<?xml version="1.0" encoding="utf-8" standalone="no"?>
<!DOCTYPE svg PUBLIC "-//W3C//DTD SVG 1.1//EN"
  "http://www.w3.org/Graphics/SVG/1.1/DTD/svg11.dtd">
<!-- Created with matplotlib (https://matplotlib.org/) -->
<svg height="345.6pt" version="1.1" viewBox="0 0 460.8 345.6" width="460.8pt" xmlns="http://www.w3.org/2000/svg" xmlns:xlink="http://www.w3.org/1999/xlink">
 <defs>
  <style type="text/css">
*{stroke-linecap:butt;stroke-linejoin:round;}
  </style>
 </defs>
 <g id="figure_1">
  <g id="patch_1">
   <path d="M 0 345.6 
L 460.8 345.6 
L 460.8 0 
L 0 0 
z
" style="fill:#ffffff;"/>
  </g>
  <g id="axes_1">
   <g id="patch_2">
    <path d="M 57.6 307.584 
L 414.72 307.584 
L 414.72 41.472 
L 57.6 41.472 
z
" style="fill:#ffffff;"/>
   </g>
   <g id="matplotlib.axis_1">
    <g id="xtick_1">
     <g id="line2d_1">
      <path clip-path="url(#pf839dca3ef)" d="M 73.507422 307.584 
L 73.507422 41.472 
" style="fill:none;stroke:#b0b0b0;stroke-dasharray:0.8,1.32;stroke-dashoffset:0;stroke-width:0.8;"/>
     </g>
     <g id="line2d_2">
      <defs>
       <path d="M 0 0 
L 0 3.5 
" id="m7f56e5ad3b" style="stroke:#000000;stroke-width:0.8;"/>
      </defs>
      <g>
       <use style="stroke:#000000;stroke-width:0.8;" x="73.507422" xlink:href="#m7f56e5ad3b" y="307.584"/>
      </g>
     </g>
     <g id="text_1">
      <!-- 0 -->
      <defs>
       <path d="M 27.296875 4.203125 
Q 15.703125 4.203125 9.453125 13.75 
Q 3.203125 23.296875 3.203125 41.890625 
Q 3.203125 60.5 9.453125 70.046875 
Q 15.703125 79.59375 27.203125 79.59375 
Q 38.703125 79.59375 45.453125 69.84375 
Q 52.203125 60.09375 52.203125 41.890625 
Q 52.203125 23.703125 45.390625 13.953125 
Q 38.59375 4.203125 27.296875 4.203125 
z
M 27.5 72.796875 
Q 19.203125 72.796875 14.59375 64.796875 
Q 10 56.796875 10 41.703125 
Q 10 10.703125 27.5 10.703125 
Q 36 10.703125 40.75 18.84375 
Q 45.5 27 45.5 41.890625 
Q 45.5 56.796875 40.59375 64.796875 
Q 35.703125 72.796875 27.5 72.796875 
z
" id="STXihei-48"/>
      </defs>
      <g transform="translate(70.73711 322.543375)scale(0.1 -0.1)">
       <use xlink:href="#STXihei-48"/>
      </g>
     </g>
    </g>
    <g id="xtick_2">
     <g id="line2d_3">
      <path clip-path="url(#pf839dca3ef)" d="M 138.568453 307.584 
L 138.568453 41.472 
" style="fill:none;stroke:#b0b0b0;stroke-dasharray:0.8,1.32;stroke-dashoffset:0;stroke-width:0.8;"/>
     </g>
     <g id="line2d_4">
      <g>
       <use style="stroke:#000000;stroke-width:0.8;" x="138.568453" xlink:href="#m7f56e5ad3b" y="307.584"/>
      </g>
     </g>
     <g id="text_2">
      <!-- 200 -->
      <defs>
       <path d="M 11.59375 55.296875 
L 4.703125 55.296875 
Q 5.203125 66.296875 12 72.9375 
Q 18.796875 79.59375 28.4375 79.59375 
Q 38.09375 79.59375 44.4375 73.34375 
Q 50.796875 67.09375 50.796875 58.09375 
Q 50.796875 51.40625 47.25 45.703125 
Q 43.703125 40 36.5 32.203125 
L 18.59375 12.90625 
L 51.796875 12.90625 
L 51.796875 6 
L 3 6 
L 30.40625 35.59375 
Q 37.59375 43.40625 40.6875 47.90625 
Q 43.796875 52.40625 43.796875 58.203125 
Q 43.796875 64 39.25 68.390625 
Q 34.703125 72.796875 27.953125 72.796875 
Q 21.203125 72.796875 16.75 68.25 
Q 12.296875 63.703125 11.59375 55.296875 
z
" id="STXihei-50"/>
      </defs>
      <g transform="translate(130.257516 322.543375)scale(0.1 -0.1)">
       <use xlink:href="#STXihei-50"/>
       <use x="55.399994" xlink:href="#STXihei-48"/>
       <use x="110.799988" xlink:href="#STXihei-48"/>
      </g>
     </g>
    </g>
    <g id="xtick_3">
     <g id="line2d_5">
      <path clip-path="url(#pf839dca3ef)" d="M 203.629484 307.584 
L 203.629484 41.472 
" style="fill:none;stroke:#b0b0b0;stroke-dasharray:0.8,1.32;stroke-dashoffset:0;stroke-width:0.8;"/>
     </g>
     <g id="line2d_6">
      <g>
       <use style="stroke:#000000;stroke-width:0.8;" x="203.629484" xlink:href="#m7f56e5ad3b" y="307.584"/>
      </g>
     </g>
     <g id="text_3">
      <!-- 400 -->
      <defs>
       <path d="M 42.59375 79.59375 
L 44 79.59375 
L 44 29.59375 
L 52.703125 29.59375 
L 52.703125 22.703125 
L 44 22.703125 
L 44 6 
L 36.90625 6 
L 36.90625 22.703125 
L 2.5 22.703125 
z
M 36.90625 29.59375 
L 36.90625 59.5 
L 15.703125 29.59375 
z
" id="STXihei-52"/>
      </defs>
      <g transform="translate(195.318547 322.543375)scale(0.1 -0.1)">
       <use xlink:href="#STXihei-52"/>
       <use x="55.399994" xlink:href="#STXihei-48"/>
       <use x="110.799988" xlink:href="#STXihei-48"/>
      </g>
     </g>
    </g>
    <g id="xtick_4">
     <g id="line2d_7">
      <path clip-path="url(#pf839dca3ef)" d="M 268.690516 307.584 
L 268.690516 41.472 
" style="fill:none;stroke:#b0b0b0;stroke-dasharray:0.8,1.32;stroke-dashoffset:0;stroke-width:0.8;"/>
     </g>
     <g id="line2d_8">
      <g>
       <use style="stroke:#000000;stroke-width:0.8;" x="268.690516" xlink:href="#m7f56e5ad3b" y="307.584"/>
      </g>
     </g>
     <g id="text_4">
      <!-- 600 -->
      <defs>
       <path d="M 36.703125 79.59375 
L 42.59375 75.796875 
L 23.203125 46.40625 
Q 27.296875 47.796875 31 47.796875 
Q 39 47.796875 45 41.4375 
Q 51 35.09375 51 25.9375 
Q 51 16.796875 44.453125 10.5 
Q 37.90625 4.203125 28.546875 4.203125 
Q 19.203125 4.203125 12.953125 10.59375 
Q 6.703125 17 6.703125 26.203125 
Q 6.703125 30.59375 8.390625 35.25 
Q 10.09375 39.90625 14.90625 47.09375 
z
M 43.90625 26.296875 
Q 43.90625 32.59375 39.5 37 
Q 35.09375 41.40625 28.796875 41.40625 
Q 22.5 41.40625 18.09375 37 
Q 13.703125 32.59375 13.703125 26.296875 
Q 13.703125 20 18.140625 15.59375 
Q 22.59375 11.203125 28.796875 11.203125 
Q 35 11.203125 39.453125 15.59375 
Q 43.90625 20 43.90625 26.296875 
z
" id="STXihei-54"/>
      </defs>
      <g transform="translate(260.379578 322.543375)scale(0.1 -0.1)">
       <use xlink:href="#STXihei-54"/>
       <use x="55.399994" xlink:href="#STXihei-48"/>
       <use x="110.799988" xlink:href="#STXihei-48"/>
      </g>
     </g>
    </g>
    <g id="xtick_5">
     <g id="line2d_9">
      <path clip-path="url(#pf839dca3ef)" d="M 333.751547 307.584 
L 333.751547 41.472 
" style="fill:none;stroke:#b0b0b0;stroke-dasharray:0.8,1.32;stroke-dashoffset:0;stroke-width:0.8;"/>
     </g>
     <g id="line2d_10">
      <g>
       <use style="stroke:#000000;stroke-width:0.8;" x="333.751547" xlink:href="#m7f56e5ad3b" y="307.584"/>
      </g>
     </g>
     <g id="text_5">
      <!-- 800 -->
      <defs>
       <path d="M 38.40625 45.40625 
Q 52 38.703125 52 26.59375 
Q 52 17 45.25 10.59375 
Q 38.5 4.203125 27.546875 4.203125 
Q 16.59375 4.203125 10 10.59375 
Q 3.40625 17 3.40625 26 
Q 3.40625 38.59375 17.296875 45.40625 
Q 6.796875 51 6.796875 60.90625 
Q 6.796875 68.296875 12.9375 73.9375 
Q 19.09375 79.59375 27.796875 79.59375 
Q 36.5 79.59375 42.59375 74.09375 
Q 48.703125 68.59375 48.703125 60.703125 
Q 48.703125 51.09375 38.40625 45.40625 
z
M 41.5 61 
Q 41.5 65.796875 37.75 69.25 
Q 34 72.703125 27.953125 72.703125 
Q 21.90625 72.703125 18 69.25 
Q 14.09375 65.796875 14.09375 60.890625 
Q 14.09375 56 18.34375 52.140625 
Q 22.59375 48.296875 28 48.296875 
Q 33.40625 48.296875 37.453125 52.09375 
Q 41.5 55.90625 41.5 61 
z
M 44.796875 26.5 
Q 44.796875 32.59375 39.84375 37.1875 
Q 34.90625 41.796875 27.84375 41.796875 
Q 20.796875 41.796875 15.6875 37.046875 
Q 10.59375 32.296875 10.59375 25.84375 
Q 10.59375 19.40625 15.296875 15.203125 
Q 20 11 27.59375 11 
Q 35.203125 11 40 15.5 
Q 44.796875 20 44.796875 26.5 
z
" id="STXihei-56"/>
      </defs>
      <g transform="translate(325.440609 322.543375)scale(0.1 -0.1)">
       <use xlink:href="#STXihei-56"/>
       <use x="55.399994" xlink:href="#STXihei-48"/>
       <use x="110.799988" xlink:href="#STXihei-48"/>
      </g>
     </g>
    </g>
    <g id="xtick_6">
     <g id="line2d_11">
      <path clip-path="url(#pf839dca3ef)" d="M 398.812578 307.584 
L 398.812578 41.472 
" style="fill:none;stroke:#b0b0b0;stroke-dasharray:0.8,1.32;stroke-dashoffset:0;stroke-width:0.8;"/>
     </g>
     <g id="line2d_12">
      <g>
       <use style="stroke:#000000;stroke-width:0.8;" x="398.812578" xlink:href="#m7f56e5ad3b" y="307.584"/>
      </g>
     </g>
     <g id="text_6">
      <!-- 1000 -->
      <defs>
       <path d="M 18.5 77.796875 
L 32.59375 77.796875 
L 32.59375 6 
L 25.5 6 
L 25.5 70.796875 
L 14.203125 70.796875 
z
" id="STXihei-49"/>
      </defs>
      <g transform="translate(387.731328 322.543375)scale(0.1 -0.1)">
       <use xlink:href="#STXihei-49"/>
       <use x="55.399994" xlink:href="#STXihei-48"/>
       <use x="110.799988" xlink:href="#STXihei-48"/>
       <use x="166.199982" xlink:href="#STXihei-48"/>
      </g>
     </g>
    </g>
   </g>
   <g id="matplotlib.axis_2">
    <g id="ytick_1">
     <g id="line2d_13">
      <path clip-path="url(#pf839dca3ef)" d="M 57.6 287.987476 
L 414.72 287.987476 
" style="fill:none;stroke:#b0b0b0;stroke-dasharray:0.8,1.32;stroke-dashoffset:0;stroke-width:0.8;"/>
     </g>
     <g id="line2d_14">
      <defs>
       <path d="M 0 0 
L -3.5 0 
" id="m2745cb92be" style="stroke:#000000;stroke-width:0.8;"/>
      </defs>
      <g>
       <use style="stroke:#000000;stroke-width:0.8;" x="57.6" xlink:href="#m2745cb92be" y="287.987476"/>
      </g>
     </g>
     <g id="text_7">
      <!-- 300 -->
      <defs>
       <path d="M 13.203125 61.203125 
L 5.90625 61.203125 
Q 7.90625 70.09375 13.546875 74.84375 
Q 19.203125 79.59375 27.34375 79.59375 
Q 35.5 79.59375 41.546875 74.1875 
Q 47.59375 68.796875 47.59375 61.09375 
Q 47.59375 51.796875 38.40625 46.40625 
Q 44.703125 43.796875 48.140625 38.640625 
Q 51.59375 33.5 51.59375 27.40625 
Q 51.59375 17.90625 44.640625 11.046875 
Q 37.703125 4.203125 27.09375 4.203125 
Q 17.703125 4.203125 11.59375 9.546875 
Q 5.5 14.90625 3.5 25.203125 
L 10.5 25.203125 
Q 12.40625 18.09375 16.34375 14.640625 
Q 20.296875 11.203125 27.5 11.203125 
Q 34.703125 11.203125 39.59375 15.796875 
Q 44.5 20.40625 44.5 27.203125 
Q 44.5 34 39.09375 38.140625 
Q 33.703125 42.296875 23.40625 42.5 
L 23.40625 49.09375 
Q 30.796875 49.09375 35.4375 52.5 
Q 40.09375 55.90625 40.09375 60.953125 
Q 40.09375 66 36.34375 69.34375 
Q 32.59375 72.703125 27.296875 72.703125 
Q 22 72.703125 18.75 69.84375 
Q 15.5 67 13.203125 61.203125 
z
" id="STXihei-51"/>
      </defs>
      <g transform="translate(33.978125 291.967164)scale(0.1 -0.1)">
       <use xlink:href="#STXihei-51"/>
       <use x="55.399994" xlink:href="#STXihei-48"/>
       <use x="110.799988" xlink:href="#STXihei-48"/>
      </g>
     </g>
    </g>
    <g id="ytick_2">
     <g id="line2d_15">
      <path clip-path="url(#pf839dca3ef)" d="M 57.6 253.166707 
L 414.72 253.166707 
" style="fill:none;stroke:#b0b0b0;stroke-dasharray:0.8,1.32;stroke-dashoffset:0;stroke-width:0.8;"/>
     </g>
     <g id="line2d_16">
      <g>
       <use style="stroke:#000000;stroke-width:0.8;" x="57.6" xlink:href="#m2745cb92be" y="253.166707"/>
      </g>
     </g>
     <g id="text_8">
      <!-- 325 -->
      <defs>
       <path d="M 49.203125 77.796875 
L 49.203125 71 
L 23.59375 71 
L 20 51.40625 
Q 24.796875 52.796875 29 52.796875 
Q 38.40625 52.796875 44.703125 46.140625 
Q 51 39.5 51 29.09375 
Q 51 18.703125 44.140625 11.453125 
Q 37.296875 4.203125 26 4.203125 
Q 17.40625 4.203125 11.34375 9.34375 
Q 5.296875 14.5 4.09375 23.40625 
L 11.40625 23.40625 
Q 12.703125 17.40625 16.796875 14.203125 
Q 20.90625 11 26.296875 11 
Q 33.40625 11 38.546875 16.296875 
Q 43.703125 21.59375 43.703125 29.5 
Q 43.703125 36.703125 39.203125 41.34375 
Q 34.703125 46 27.453125 46 
Q 20.203125 46 11.40625 42.203125 
L 18.09375 77.796875 
z
" id="STXihei-53"/>
      </defs>
      <g transform="translate(33.978125 257.146394)scale(0.1 -0.1)">
       <use xlink:href="#STXihei-51"/>
       <use x="55.399994" xlink:href="#STXihei-50"/>
       <use x="110.799988" xlink:href="#STXihei-53"/>
      </g>
     </g>
    </g>
    <g id="ytick_3">
     <g id="line2d_17">
      <path clip-path="url(#pf839dca3ef)" d="M 57.6 218.345937 
L 414.72 218.345937 
" style="fill:none;stroke:#b0b0b0;stroke-dasharray:0.8,1.32;stroke-dashoffset:0;stroke-width:0.8;"/>
     </g>
     <g id="line2d_18">
      <g>
       <use style="stroke:#000000;stroke-width:0.8;" x="57.6" xlink:href="#m2745cb92be" y="218.345937"/>
      </g>
     </g>
     <g id="text_9">
      <!-- 350 -->
      <g transform="translate(33.978125 222.325625)scale(0.1 -0.1)">
       <use xlink:href="#STXihei-51"/>
       <use x="55.399994" xlink:href="#STXihei-53"/>
       <use x="110.799988" xlink:href="#STXihei-48"/>
      </g>
     </g>
    </g>
    <g id="ytick_4">
     <g id="line2d_19">
      <path clip-path="url(#pf839dca3ef)" d="M 57.6 183.525168 
L 414.72 183.525168 
" style="fill:none;stroke:#b0b0b0;stroke-dasharray:0.8,1.32;stroke-dashoffset:0;stroke-width:0.8;"/>
     </g>
     <g id="line2d_20">
      <g>
       <use style="stroke:#000000;stroke-width:0.8;" x="57.6" xlink:href="#m2745cb92be" y="183.525168"/>
      </g>
     </g>
     <g id="text_10">
      <!-- 375 -->
      <defs>
       <path d="M 7.203125 77.796875 
L 52.703125 77.796875 
L 14.296875 4.203125 
L 8.40625 7.203125 
L 41.59375 71 
L 7.203125 71 
z
" id="STXihei-55"/>
      </defs>
      <g transform="translate(33.978125 187.504855)scale(0.1 -0.1)">
       <use xlink:href="#STXihei-51"/>
       <use x="55.399994" xlink:href="#STXihei-55"/>
       <use x="110.799988" xlink:href="#STXihei-53"/>
      </g>
     </g>
    </g>
    <g id="ytick_5">
     <g id="line2d_21">
      <path clip-path="url(#pf839dca3ef)" d="M 57.6 148.704398 
L 414.72 148.704398 
" style="fill:none;stroke:#b0b0b0;stroke-dasharray:0.8,1.32;stroke-dashoffset:0;stroke-width:0.8;"/>
     </g>
     <g id="line2d_22">
      <g>
       <use style="stroke:#000000;stroke-width:0.8;" x="57.6" xlink:href="#m2745cb92be" y="148.704398"/>
      </g>
     </g>
     <g id="text_11">
      <!-- 400 -->
      <g transform="translate(33.978125 152.684086)scale(0.1 -0.1)">
       <use xlink:href="#STXihei-52"/>
       <use x="55.399994" xlink:href="#STXihei-48"/>
       <use x="110.799988" xlink:href="#STXihei-48"/>
      </g>
     </g>
    </g>
    <g id="ytick_6">
     <g id="line2d_23">
      <path clip-path="url(#pf839dca3ef)" d="M 57.6 113.883629 
L 414.72 113.883629 
" style="fill:none;stroke:#b0b0b0;stroke-dasharray:0.8,1.32;stroke-dashoffset:0;stroke-width:0.8;"/>
     </g>
     <g id="line2d_24">
      <g>
       <use style="stroke:#000000;stroke-width:0.8;" x="57.6" xlink:href="#m2745cb92be" y="113.883629"/>
      </g>
     </g>
     <g id="text_12">
      <!-- 425 -->
      <g transform="translate(33.978125 117.863316)scale(0.1 -0.1)">
       <use xlink:href="#STXihei-52"/>
       <use x="55.399994" xlink:href="#STXihei-50"/>
       <use x="110.799988" xlink:href="#STXihei-53"/>
      </g>
     </g>
    </g>
    <g id="ytick_7">
     <g id="line2d_25">
      <path clip-path="url(#pf839dca3ef)" d="M 57.6 79.062859 
L 414.72 79.062859 
" style="fill:none;stroke:#b0b0b0;stroke-dasharray:0.8,1.32;stroke-dashoffset:0;stroke-width:0.8;"/>
     </g>
     <g id="line2d_26">
      <g>
       <use style="stroke:#000000;stroke-width:0.8;" x="57.6" xlink:href="#m2745cb92be" y="79.062859"/>
      </g>
     </g>
     <g id="text_13">
      <!-- 450 -->
      <g transform="translate(33.978125 83.042547)scale(0.1 -0.1)">
       <use xlink:href="#STXihei-52"/>
       <use x="55.399994" xlink:href="#STXihei-53"/>
       <use x="110.799988" xlink:href="#STXihei-48"/>
      </g>
     </g>
    </g>
    <g id="ytick_8">
     <g id="line2d_27">
      <path clip-path="url(#pf839dca3ef)" d="M 57.6 44.24209 
L 414.72 44.24209 
" style="fill:none;stroke:#b0b0b0;stroke-dasharray:0.8,1.32;stroke-dashoffset:0;stroke-width:0.8;"/>
     </g>
     <g id="line2d_28">
      <g>
       <use style="stroke:#000000;stroke-width:0.8;" x="57.6" xlink:href="#m2745cb92be" y="44.24209"/>
      </g>
     </g>
     <g id="text_14">
      <!-- 475 -->
      <g transform="translate(33.978125 48.221777)scale(0.1 -0.1)">
       <use xlink:href="#STXihei-52"/>
       <use x="55.399994" xlink:href="#STXihei-55"/>
       <use x="110.799988" xlink:href="#STXihei-53"/>
      </g>
     </g>
    </g>
   </g>
   <g id="line2d_29">
    <path clip-path="url(#pf839dca3ef)" d="M 73.832727 93.354514 
L 74.158032 74.036557 
L 74.483338 62.296983 
L 74.808643 55.912454 
L 75.133948 53.568 
L 75.459253 53.905394 
L 75.784558 54.735902 
L 78.386999 67.401145 
L 80.013525 72.877306 
L 80.33883 74.071161 
L 80.664136 74.771902 
L 81.314746 76.52808 
L 83.591882 81.294849 
L 84.567797 82.869353 
L 85.218408 84.019953 
L 85.869018 84.798554 
L 86.519628 85.663666 
L 86.844934 85.54255 
L 87.820849 86.165431 
L 88.146154 86.615289 
L 88.471459 86.814265 
L 89.12207 87.77454 
L 89.447375 87.662075 
L 90.748595 88.631001 
L 91.073901 88.276305 
L 92.049816 88.760768 
L 92.375121 88.951093 
L 92.700426 88.829977 
L 94.001647 89.764298 
L 94.326952 90.205505 
L 94.652257 90.196854 
L 95.628173 91.105222 
L 95.953478 91.191733 
L 96.278783 91.572383 
L 96.929393 91.78001 
L 97.254698 92.16931 
L 97.580004 92.212566 
L 97.905309 92.697029 
L 98.230614 92.818144 
L 98.881224 93.242049 
L 99.206529 93.242049 
L 99.531835 93.415072 
L 99.85714 94.029302 
L 100.182445 93.86493 
L 101.483666 95.223157 
L 102.784886 95.292366 
L 103.435496 95.880642 
L 103.760802 95.837386 
L 104.736717 96.365105 
L 105.062022 96.927428 
L 105.712633 97.455146 
L 106.037938 97.576262 
L 106.363243 97.455146 
L 106.688548 97.533006 
L 107.339158 98.034772 
L 107.664463 98.02612 
L 107.989769 98.475979 
L 108.315074 98.631699 
L 108.640379 98.527886 
L 109.616294 99.159418 
L 109.9416 99.038302 
L 110.59221 99.548718 
L 110.917515 99.514114 
L 111.24282 99.730392 
L 111.89343 99.877461 
L 113.194651 100.915595 
L 113.519956 101.036711 
L 113.845261 101.278943 
L 115.146482 101.477918 
L 115.471787 101.884521 
L 115.797092 102.10945 
L 116.122398 102.498751 
L 116.447703 102.446844 
L 117.098313 103.026469 
L 117.423618 103.121632 
L 117.748923 103.000516 
L 118.074228 103.095678 
L 118.724839 103.562839 
L 119.050144 103.839675 
L 119.375449 103.917535 
L 119.700754 104.280882 
L 120.026059 104.358742 
L 120.351365 104.600974 
L 120.67667 104.471207 
L 121.97789 104.87781 
L 122.303195 104.652881 
L 122.628501 104.895112 
L 122.953806 104.782647 
L 123.279111 105.171948 
L 123.929721 105.215204 
L 124.255026 105.249808 
L 125.230942 105.734271 
L 126.206857 106.184129 
L 126.532163 106.132223 
L 126.857468 106.426361 
L 127.182773 106.305245 
L 127.833383 106.478267 
L 128.483993 106.210083 
L 128.809299 106.270641 
L 129.459909 106.841615 
L 129.785214 107.144404 
L 130.110519 107.204962 
L 130.76113 107.706727 
L 131.41174 107.377984 
L 131.737045 107.377984 
L 132.06235 107.862447 
L 132.387655 107.992214 
L 133.038266 107.559658 
L 133.363571 107.533704 
L 133.688876 107.637518 
L 134.014181 107.862447 
L 134.664791 107.559658 
L 134.990097 107.34338 
L 135.315402 107.34338 
L 135.640707 107.559658 
L 135.966012 107.585611 
L 136.291317 107.879749 
L 136.941927 107.931656 
L 137.267233 107.862447 
L 137.592538 108.026818 
L 137.917843 108.018167 
L 138.243148 107.801889 
L 139.544369 107.948958 
L 140.194979 107.905703 
L 142.472115 108.641048 
L 143.122725 109.220673 
L 144.423946 109.488858 
L 144.749251 109.50616 
L 145.399862 109.852205 
L 145.725167 109.878159 
L 146.375777 110.12039 
L 147.026387 110.180948 
L 147.351692 110.535644 
L 147.676998 110.665411 
L 148.327608 111.089316 
L 148.652913 111.089316 
L 149.303523 111.418059 
L 149.628829 111.487268 
L 149.954134 111.331547 
L 150.279439 111.539174 
L 150.604744 111.513221 
L 150.930049 111.798708 
L 151.58066 112.023637 
L 151.905965 111.954428 
L 152.556575 112.205311 
L 152.88188 112.369682 
L 153.207185 112.369682 
L 153.53249 112.257218 
L 153.857796 112.568658 
L 154.508406 112.724378 
L 155.159016 112.957959 
L 155.809627 112.854145 
L 156.134932 113.018516 
L 156.460237 113.04447 
L 157.436152 113.779815 
L 157.761457 113.537584 
L 158.412068 113.606793 
L 158.737373 113.866326 
L 159.713288 114.039349 
L 160.038594 113.693304 
L 160.689204 113.286701 
L 161.014509 113.485677 
L 161.339814 113.416468 
L 161.990424 113.745211 
L 162.31573 113.580839 
L 163.291645 113.684653 
L 164.592866 113.528933 
L 165.243476 114.073953 
L 165.894086 114.134511 
L 166.219392 114.022047 
L 166.544697 114.030698 
L 166.870002 114.264278 
L 167.195307 114.099907 
L 167.520612 114.108558 
L 168.171222 114.307534 
L 168.821833 114.368092 
L 169.147138 114.056651 
L 169.472443 114.004744 
L 169.797748 114.238325 
L 170.773664 114.411347 
L 171.098969 114.28158 
L 171.424274 114.489207 
L 172.074884 114.385394 
L 172.725495 114.50651 
L 173.0508 114.402696 
L 173.70141 114.558416 
L 174.026715 114.35944 
L 175.002631 114.489207 
L 175.978546 114.679532 
L 176.303851 114.887159 
L 177.605072 114.89581 
L 178.255682 115.120739 
L 178.580987 115.163995 
L 178.906293 115.501389 
L 179.556903 115.795527 
L 180.532818 115.985852 
L 180.858124 116.340548 
L 181.183429 116.323245 
L 181.834039 116.74715 
L 183.13526 116.850964 
L 183.460565 116.954777 
L 183.78587 116.850964 
L 184.761785 117.543054 
L 185.412396 117.646867 
L 186.388311 118.347608 
L 186.713616 118.278399 
L 187.364227 118.460073 
L 187.689532 118.382213 
L 188.340142 118.58984 
L 188.665447 118.477375 
L 189.966668 118.477375 
L 190.291973 118.321655 
L 190.617278 118.598491 
L 190.942583 118.728257 
L 191.267889 118.58984 
L 191.593194 118.797466 
L 192.894414 118.217841 
L 193.219719 118.269748 
L 193.545025 118.460073 
L 193.87033 118.321655 
L 194.195635 118.330306 
L 194.52094 118.598491 
L 194.846245 118.356259 
L 195.822161 118.883978 
L 196.147466 118.74556 
L 198.099297 119.411696 
L 200.376433 119.636625 
L 200.701738 119.818299 
L 201.027043 120.164344 
L 201.352348 120.190297 
L 201.677653 120.069182 
L 202.002959 120.181646 
L 202.328264 120.103786 
L 202.978874 120.337366 
L 203.304179 120.259506 
L 203.629484 120.475784 
L 203.95479 120.380622 
L 204.280095 120.588249 
L 204.930705 120.579598 
L 206.557231 121.28899 
L 207.858451 120.882387 
L 208.509062 121.05541 
L 208.834367 121.323594 
L 209.159672 121.263036 
L 210.135588 121.704244 
L 210.786198 121.583128 
L 211.111503 121.75615 
L 211.436808 121.660988 
L 212.412724 122.508798 
L 212.738029 122.404985 
L 213.063334 122.482845 
L 213.713944 122.379031 
L 214.364555 122.404985 
L 215.015165 122.699123 
L 215.34047 122.569356 
L 215.665775 122.309822 
L 215.99108 122.275218 
L 216.316385 122.578007 
L 216.641691 122.552054 
L 216.966996 122.638565 
L 217.292301 122.915401 
L 217.942911 123.105726 
L 218.593522 123.564235 
L 218.918827 123.59884 
L 219.244132 123.460422 
L 219.894742 123.529631 
L 220.220047 123.75456 
L 221.195963 123.572886 
L 221.521268 123.823769 
L 221.846573 123.780513 
L 222.171878 124.040047 
L 222.822489 124.083303 
L 223.798404 124.507208 
L 224.123709 124.818648 
L 224.449014 124.957066 
L 224.77432 124.922461 
L 226.07554 125.597249 
L 226.72615 125.848132 
L 227.376761 126.168223 
L 228.027371 126.687291 
L 228.352676 126.592128 
L 229.003287 127.102544 
L 230.955118 127.699472 
L 231.280423 127.552403 
L 231.931033 127.984959 
L 232.256338 127.83789 
L 232.581643 127.898448 
L 232.906948 128.218539 
L 233.232254 128.036866 
L 233.882864 128.14933 
L 234.208169 128.512677 
L 234.858779 128.296399 
L 235.184085 128.478073 
L 235.50939 128.495375 
L 235.834695 128.651095 
L 236.16 128.677049 
L 236.485305 129.256674 
L 236.81061 129.282627 
L 237.135915 129.187465 
L 237.461221 129.256674 
L 237.786526 128.927931 
L 238.111831 128.824118 
L 238.762441 128.953885 
L 239.087746 129.273976 
L 240.063662 128.962536 
L 241.364882 129.308581 
L 241.690188 129.170163 
L 242.015493 129.248023 
L 242.666103 128.971187 
L 242.991408 129.066349 
L 243.316713 128.971187 
L 243.642019 129.118256 
L 243.967324 129.542161 
L 244.292629 129.395092 
L 246.89507 130.251553 
L 247.220375 130.675458 
L 247.870986 130.91769 
L 248.846901 130.813876 
L 249.172206 130.606249 
L 250.148122 130.99555 
L 250.473427 131.376199 
L 251.124037 131.670337 
L 251.449342 131.618431 
L 252.099953 131.929871 
L 252.750563 132.059638 
L 253.075868 132.206707 
L 253.401173 132.604659 
L 253.726478 132.786332 
L 254.051784 132.820937 
L 255.027699 133.262144 
L 255.353004 133.089121 
L 255.678309 133.15833 
L 256.654225 133.054517 
L 256.97953 133.417864 
L 257.304835 133.530329 
L 257.63014 133.478422 
L 258.280751 133.755258 
L 258.606056 133.642793 
L 258.931361 133.85042 
L 259.256666 133.867723 
L 259.581971 134.014792 
L 259.907276 134.447348 
L 260.557887 134.77609 
L 260.883192 134.862602 
L 261.208497 135.087531 
L 261.533802 135.130786 
L 261.859107 135.364367 
L 262.509718 134.983717 
L 262.835023 134.897206 
L 263.485633 135.009671 
L 263.810938 135.2346 
L 265.112159 135.286507 
L 265.762769 135.615249 
L 266.413379 136.134317 
L 267.06399 136.16027 
L 267.7146 136.229479 
L 268.039905 136.411153 
L 268.36521 136.23813 
L 268.690516 136.264084 
L 269.015821 136.610128 
L 269.341126 136.575524 
L 270.317041 137.431985 
L 270.967652 137.682868 
L 271.292957 138.08947 
L 272.268872 138.366306 
L 272.919483 138.23654 
L 273.570093 138.522027 
L 274.220703 138.461469 
L 274.871314 138.876723 
L 275.847229 138.677747 
L 276.497839 139.248721 
L 277.14845 139.646673 
L 277.473755 139.681277 
L 277.79906 139.594766 
L 278.124365 139.802393 
L 278.44967 139.499603 
L 279.425586 139.984066 
L 279.750891 140.191693 
L 280.076196 140.148438 
L 280.401501 140.347414 
L 281.052111 139.984066 
L 281.377417 140.079229 
L 281.702722 139.940811 
L 282.353332 140.55504 
L 282.678637 140.537738 
L 283.003942 140.823225 
L 283.329248 140.762667 
L 283.654553 140.840528 
L 284.305163 140.442576 
L 284.955773 140.970294 
L 285.281079 140.805923 
L 285.931689 140.866481 
L 286.256994 140.788621 
L 286.907604 140.978946 
L 287.232909 140.875132 
L 287.88352 141.506664 
L 288.208825 141.515315 
L 288.53413 141.921918 
L 289.510046 141.921918 
L 290.160656 142.224707 
L 290.485961 142.103591 
L 291.136571 142.691868 
L 291.461876 142.847588 
L 291.787182 142.873541 
L 292.112487 143.098471 
L 292.437792 142.994657 
L 292.763097 142.752426 
L 293.088402 142.951402 
L 293.739013 143.072517 
L 294.064318 143.16768 
L 294.714928 143.219586 
L 295.040233 143.262842 
L 295.365538 143.435864 
L 295.690844 143.349353 
L 297.317369 144.01549 
L 297.642674 143.911676 
L 297.96798 143.972234 
L 298.293285 144.17121 
L 298.943895 144.17121 
L 300.895726 145.235298 
L 301.871641 145.261251 
L 302.522252 145.754365 
L 302.847557 145.477529 
L 305.775303 146.411851 
L 306.100608 146.550269 
L 306.425914 146.333991 
L 306.751219 146.524315 
L 307.401829 146.377246 
L 308.377745 146.688687 
L 309.028355 146.584873 
L 309.678965 146.965523 
L 310.329576 146.956871 
L 311.305491 146.879011 
L 311.956101 147.173149 
L 312.606712 147.086638 
L 312.932017 147.363474 
L 313.257322 147.415381 
L 313.907932 147.726821 
L 314.233237 147.501892 
L 315.209153 147.934448 
L 315.534458 147.700868 
L 316.510373 147.64031 
L 316.835679 147.692217 
L 317.160984 148.055564 
L 318.136899 148.081517 
L 318.462204 148.193982 
L 318.78751 147.969053 
L 319.112815 147.917146 
L 319.43812 148.072866 
L 320.08873 148.046913 
L 320.414035 147.821984 
L 321.715256 147.787379 
L 322.040561 147.865239 
L 322.365866 147.674915 
L 323.341782 148.263191 
L 323.667087 148.228586 
L 323.992392 148.505422 
L 324.317697 148.600585 
L 324.643002 148.557329 
L 324.968308 148.7217 
L 325.293613 148.695747 
L 325.618918 148.886072 
L 326.269528 148.739003 
L 326.920138 148.998536 
L 327.245444 148.747654 
L 327.896054 148.842816 
L 328.546664 148.808212 
L 328.871969 148.955281 
L 329.197275 149.500302 
L 329.52258 149.552208 
L 330.498495 150.322158 
L 330.8238 150.348112 
L 331.474411 150.95369 
L 332.125021 150.988295 
L 333.100936 151.446804 
L 333.751547 152.017778 
L 334.076852 152.069685 
L 334.402157 152.311916 
L 335.378073 152.061034 
L 336.028683 151.611176 
L 336.679293 151.792849 
L 337.655209 152.208103 
L 337.980514 152.225405 
L 338.305819 152.355172 
L 338.631124 152.199452 
L 338.956429 152.18215 
L 339.281734 152.49359 
L 339.60704 152.502241 
L 340.25765 152.856937 
L 340.582955 153.090518 
L 341.233565 153.202982 
L 342.209481 153.600934 
L 343.185396 154.024839 
L 343.510701 153.765305 
L 344.161312 154.128652 
L 345.137227 154.215163 
L 345.462532 154.258419 
L 345.787837 154.474697 
L 346.438448 154.180559 
L 346.763753 154.457395 
L 347.414363 154.318977 
L 348.064974 154.042141 
L 349.366194 154.491999 
L 349.691499 154.768835 
L 350.667415 154.933207 
L 351.318025 155.123531 
L 351.968635 154.812091 
L 352.619246 154.80344 
L 352.944551 154.812091 
L 353.269856 155.097578 
L 353.920466 155.106229 
L 354.571077 155.538785 
L 354.896382 155.530134 
L 356.522908 156.18762 
L 358.149433 156.914314 
L 358.474739 156.836454 
L 358.800044 156.957569 
L 359.125349 157.251708 
L 359.450654 157.225754 
L 360.101264 157.545846 
L 360.42657 157.50259 
L 361.402485 157.909193 
L 362.053095 158.454214 
L 362.703706 158.817561 
L 363.029011 159.051141 
L 363.354316 158.88677 
L 364.655537 159.630766 
L 364.980842 159.916253 
L 365.306147 160.020067 
L 365.956757 160.712157 
L 366.607367 160.798668 
L 368.233893 161.707036 
L 368.559198 161.568618 
L 368.884504 161.637827 
L 369.209809 161.525362 
L 369.535114 161.940616 
L 370.511029 162.174197 
L 370.836334 162.399126 
L 371.16164 162.459684 
L 371.486945 162.658659 
L 371.81225 162.537544 
L 372.788165 162.753822 
L 373.438776 163.134471 
L 374.089386 163.835212 
L 374.414691 163.956328 
L 374.739996 164.406186 
L 375.065302 164.58786 
L 375.390607 164.631115 
L 375.715912 164.812789 
L 376.041217 164.838742 
L 376.366522 165.219392 
L 377.017132 165.625995 
L 377.667743 166.231573 
L 377.993048 166.292131 
L 378.318353 166.733338 
L 378.643658 166.906361 
L 378.968963 167.20915 
L 379.944879 167.494637 
L 380.595489 168.420307 
L 381.571405 169.544953 
L 381.89671 169.570907 
L 383.19793 170.531181 
L 383.523236 170.963737 
L 384.499151 171.647176 
L 385.149761 172.235452 
L 385.475066 172.347917 
L 385.800372 172.75452 
L 386.450982 173.827259 
L 386.776287 173.91377 
L 387.101592 174.329024 
L 387.426897 174.528 
L 387.752203 174.579907 
L 388.728118 175.367159 
L 391.655864 180.272346 
L 392.306475 181.993919 
L 392.957085 183.77605 
L 393.607695 186.250271 
L 393.933001 187.374917 
L 394.908916 192.530987 
L 395.559526 198.050403 
L 395.884831 200.948529 
L 396.535442 210.213882 
L 397.186052 223.363589 
L 397.836662 243.0968 
L 398.161968 259.482027 
L 398.487273 295.488 
L 398.487273 295.488 
" style="fill:none;stroke:#4bacc6;stroke-linecap:square;stroke-width:2;"/>
   </g>
   <g id="patch_3">
    <path d="M 57.6 307.584 
L 57.6 41.472 
" style="fill:none;stroke:#000000;stroke-linecap:square;stroke-linejoin:miter;stroke-width:0.8;"/>
   </g>
   <g id="patch_4">
    <path d="M 414.72 307.584 
L 414.72 41.472 
" style="fill:none;stroke:#000000;stroke-linecap:square;stroke-linejoin:miter;stroke-width:0.8;"/>
   </g>
   <g id="patch_5">
    <path d="M 57.6 307.584 
L 414.72 307.584 
" style="fill:none;stroke:#000000;stroke-linecap:square;stroke-linejoin:miter;stroke-width:0.8;"/>
   </g>
   <g id="patch_6">
    <path d="M 57.6 41.472 
L 414.72 41.472 
" style="fill:none;stroke:#000000;stroke-linecap:square;stroke-linejoin:miter;stroke-width:0.8;"/>
   </g>
   <g id="text_15">
    <!-- 2016秋季 Average -->
    <defs>
     <path d="M 69.703125 23.59375 
Q 64.796875 5.5 44.203125 -9.09375 
Q 42.09375 -5.703125 38.90625 -4.59375 
Q 52 3 58.390625 12.390625 
Q 64.796875 21.796875 65.9375 34.796875 
Q 67.09375 47.796875 67.09375 59.6875 
Q 67.09375 71.59375 65.5 79.5 
Q 71.203125 78.796875 74 78.703125 
Q 74.90625 78.703125 74.90625 78.09375 
Q 74.90625 77.5 74.09375 76.796875 
Q 73.296875 76.09375 73.046875 73.640625 
Q 72.796875 71.203125 72.59375 63 
L 72.40625 45.203125 
Q 72.40625 37.5 71.40625 31.703125 
Q 81.203125 6.90625 97 -2.796875 
Q 93.796875 -4.5 91.90625 -7.796875 
Q 76.09375 6 69.703125 23.59375 
z
M 23.703125 67.40625 
Q 15.40625 65.59375 8.5 64.703125 
Q 8.203125 68.09375 6.296875 70.5 
Q 27.5 71.09375 39.796875 78.59375 
Q 41.203125 75.59375 43.90625 73.59375 
Q 44.703125 73 44.703125 72.34375 
Q 44.703125 71.703125 43.90625 71.703125 
L 42.796875 71.796875 
Q 40.90625 71.796875 29.5 68.90625 
L 29.5 51.203125 
Q 39.203125 51.203125 45.5 52 
L 45.5 45.59375 
Q 39.203125 46.40625 29.5 46.40625 
L 29.5 41.296875 
Q 39 34 46.09375 27.09375 
L 41.296875 22.40625 
Q 36.90625 28.703125 29.5 35.5 
L 29.5 7.90625 
Q 29.5 0.40625 30.296875 -9.296875 
L 22.796875 -9.296875 
Q 23.703125 -0.296875 23.703125 7.90625 
L 23.703125 34.90625 
Q 18.5 23.296875 8.59375 9.203125 
Q 6.5 12.203125 2.59375 13.203125 
Q 17.296875 28.203125 23.203125 46.40625 
Q 12.40625 46.40625 5.703125 45.59375 
L 5.703125 52 
Q 12.59375 51.203125 23.703125 51.203125 
z
M 87.40625 62.296875 
Q 90.796875 59.90625 93.90625 59.203125 
Q 95.40625 58.90625 95.40625 58.15625 
Q 95.40625 57.40625 94.25 56.546875 
Q 93.09375 55.703125 90.6875 51 
Q 88.296875 46.296875 82 32.09375 
Q 80.09375 33.90625 77 34.703125 
Q 85 48.5 87.40625 62.296875 
z
M 57.296875 61.09375 
Q 57.40625 47.5 54.5 32.296875 
L 48.296875 33.40625 
Q 51.5 42.703125 51.5 55.09375 
Q 51.5 58.203125 51.296875 61.09375 
z
" id="STXihei-31179"/>
     <path d="M 47.5 70.296875 
Q 33.09375 69.5 21.90625 69.296875 
Q 21.5 72.296875 19 75.703125 
Q 29.703125 74.796875 35.703125 74.796875 
Q 41.703125 74.796875 54.890625 75.5 
Q 68.09375 76.203125 78 79.296875 
Q 78.59375 76.203125 79.796875 74.59375 
Q 81 73 81 72.5 
Q 81 71.5 79 71.84375 
Q 77 72.203125 74.703125 72.203125 
Q 72.40625 72.203125 67.25 71.59375 
Q 62.09375 71 53.296875 70.59375 
L 53.296875 60.90625 
Q 79.203125 60.90625 92.09375 61.59375 
L 92.09375 55.59375 
Q 80.5 56.203125 61.703125 56.203125 
Q 76.796875 43.5 96.5 38.40625 
Q 93.40625 35.796875 91.796875 32.40625 
Q 67.703125 42.703125 55.203125 56.203125 
L 53.296875 56.203125 
L 53.296875 48.203125 
Q 53.296875 43.59375 53.59375 37.296875 
L 47 37.296875 
Q 47.5 44.40625 47.5 48.203125 
L 47.5 56.203125 
L 45.703125 56.203125 
Q 37.59375 47.40625 30.25 41.953125 
Q 22.90625 36.5 9 29.90625 
Q 7.703125 33.296875 3.703125 36.09375 
Q 24.203125 41.09375 39.203125 56.203125 
Q 20.40625 56.09375 8.5 55.59375 
L 8.5 61.59375 
Q 21.40625 60.90625 47.5 60.90625 
z
M 49.09375 13.296875 
Q 23.5 13.296875 12.203125 12.40625 
L 12.203125 18.90625 
Q 26 18 49.09375 18 
L 49.09375 22.203125 
L 63.796875 30.5 
L 42.59375 30.5 
Q 31.796875 30.5 23.90625 30 
L 23.90625 35.59375 
Q 33 35.203125 50.890625 35.203125 
Q 68.796875 35.203125 77.59375 35.59375 
L 77.59375 30.90625 
Q 73.703125 31.09375 68.703125 28.09375 
L 54.90625 19.90625 
L 54.90625 18 
Q 76.703125 18 90.09375 18.90625 
L 90.09375 12.5 
Q 80.703125 13.296875 54.90625 13.296875 
L 54.90625 2.203125 
Q 54.90625 -3.09375 53.703125 -5.390625 
Q 52.5 -7.703125 48.546875 -8.640625 
Q 44.59375 -9.59375 35.203125 -10 
Q 35.09375 -6.09375 32.296875 -2.5 
Q 38 -3.203125 41.59375 -3.203125 
Q 45.203125 -3.203125 47.140625 -2.390625 
Q 49.09375 -1.59375 49.09375 0.90625 
z
" id="STXihei-23395"/>
     <path id="STXihei-32"/>
     <path d="M 38.09375 80.703125 
L 71.59375 6 
L 63.90625 6 
L 52.59375 30.5 
L 21.59375 30.5 
L 10.40625 6 
L 2.40625 6 
L 36.296875 80.703125 
z
M 37.203125 64.796875 
L 24.90625 37.796875 
L 49.40625 37.796875 
z
" id="STXihei-65"/>
     <path d="M 2.59375 59.09375 
L 9.90625 59.09375 
L 27.59375 18.703125 
L 45.296875 59.09375 
L 52.59375 59.09375 
L 28.296875 4.203125 
L 27.09375 4.203125 
z
" id="STXihei-118"/>
     <path d="M 52.296875 23.203125 
L 58.09375 20.203125 
Q 49.5 4.203125 32.703125 4.203125 
Q 20.703125 4.203125 12.890625 12.453125 
Q 5.09375 20.703125 5.09375 32.296875 
Q 5.09375 43.90625 12.9375 52.203125 
Q 20.796875 60.5 32.34375 60.5 
Q 43.90625 60.5 51.75 52.796875 
Q 59.59375 45.09375 59.90625 31.796875 
L 12.09375 31.796875 
Q 12.40625 22.203125 18.15625 16.34375 
Q 23.90625 10.5 32.09375 10.5 
Q 45.59375 10.5 52.296875 23.203125 
z
M 52.296875 37.703125 
Q 50.90625 45.296875 45.296875 49.59375 
Q 39.703125 53.90625 32.40625 53.90625 
Q 17.40625 53.90625 12.796875 37.703125 
z
" id="STXihei-101"/>
     <path d="M 5 59.09375 
L 12 59.09375 
L 12 51.40625 
Q 14.796875 56.09375 17.4375 58.296875 
Q 20.09375 60.5 23.34375 60.5 
Q 26.59375 60.5 29.90625 58.703125 
L 26.296875 52.90625 
Q 24.796875 53.796875 23.203125 53.796875 
Q 20.09375 53.796875 17.34375 50.59375 
Q 14.59375 47.40625 13.296875 42.34375 
Q 12 37.296875 12 24 
L 12 6 
L 5 6 
z
" id="STXihei-114"/>
     <path d="M 60.5 59.09375 
L 60.5 6 
L 53.796875 6 
L 53.796875 15.09375 
Q 44.703125 4.203125 33 4.203125 
Q 21.296875 4.203125 13.25 12.546875 
Q 5.203125 20.90625 5.203125 32.453125 
Q 5.203125 44 13.296875 52.25 
Q 21.40625 60.5 32.703125 60.5 
Q 45.703125 60.5 53.796875 49.40625 
L 53.796875 59.09375 
z
M 54.203125 32.296875 
Q 54.203125 41.40625 48.09375 47.65625 
Q 42 53.90625 33.140625 53.90625 
Q 24.296875 53.90625 18.1875 47.453125 
Q 12.09375 41 12.09375 32.203125 
Q 12.09375 23.40625 18.296875 16.953125 
Q 24.5 10.5 33.140625 10.5 
Q 41.796875 10.5 48 16.703125 
Q 54.203125 22.90625 54.203125 32.296875 
z
" id="STXihei-97"/>
     <path d="M 54.09375 59.09375 
L 61 59.09375 
L 61 18.09375 
Q 61 7.203125 59.09375 2.09375 
Q 57.203125 -3 53.59375 -6.390625 
Q 50 -9.796875 44.890625 -11.59375 
Q 39.796875 -13.40625 33.703125 -13.40625 
Q 12.90625 -13.40625 6.296875 3.203125 
L 13.703125 3.203125 
Q 19.5 -7.203125 33.40625 -7.203125 
Q 40.09375 -7.203125 45.046875 -4.59375 
Q 50 -2 52.046875 2.046875 
Q 54.09375 6.09375 54.09375 14.703125 
L 54.09375 17 
Q 50 11.90625 44.390625 9.40625 
Q 38.796875 6.90625 32.59375 6.90625 
Q 21 6.90625 13.296875 14.796875 
Q 5.59375 22.703125 5.59375 33.40625 
Q 5.59375 44.5 13.796875 52.5 
Q 22 60.5 33.640625 60.5 
Q 45.296875 60.5 54.09375 49.90625 
z
M 54.40625 33.40625 
Q 54.40625 42.09375 48.5 48 
Q 42.59375 53.90625 33.90625 53.90625 
Q 24.703125 53.90625 18.59375 47.546875 
Q 12.5 41.203125 12.5 33 
Q 12.5 24.796875 18.390625 19.046875 
Q 24.296875 13.296875 33.5 13.296875 
Q 42.703125 13.296875 48.546875 18.890625 
Q 54.40625 24.5 54.40625 33.40625 
z
" id="STXihei-103"/>
    </defs>
    <g transform="translate(183.856875 35.472)scale(0.12 -0.12)">
     <use xlink:href="#STXihei-50"/>
     <use x="55.399994" xlink:href="#STXihei-48"/>
     <use x="110.799988" xlink:href="#STXihei-49"/>
     <use x="166.199982" xlink:href="#STXihei-54"/>
     <use x="221.599976" xlink:href="#STXihei-31179"/>
     <use x="321.59996" xlink:href="#STXihei-23395"/>
     <use x="421.599945" xlink:href="#STXihei-32"/>
     <use x="446.59993" xlink:href="#STXihei-65"/>
     <use x="520.599915" xlink:href="#STXihei-118"/>
     <use x="575.999908" xlink:href="#STXihei-101"/>
     <use x="640.999893" xlink:href="#STXihei-114"/>
     <use x="671.099884" xlink:href="#STXihei-97"/>
     <use x="739.399872" xlink:href="#STXihei-103"/>
     <use x="806.69986" xlink:href="#STXihei-101"/>
    </g>
   </g>
  </g>
 </g>
 <defs>
  <clipPath id="pf839dca3ef">
   <rect height="266.112" width="357.12" x="57.6" y="41.472"/>
  </clipPath>
 </defs>
</svg>
