<?xml version="1.0" encoding="utf-8" standalone="no"?>
<!DOCTYPE svg PUBLIC "-//W3C//DTD SVG 1.1//EN"
  "http://www.w3.org/Graphics/SVG/1.1/DTD/svg11.dtd">
<!-- Created with matplotlib (https://matplotlib.org/) -->
<svg height="345.6pt" version="1.1" viewBox="0 0 460.8 345.6" width="460.8pt" xmlns="http://www.w3.org/2000/svg" xmlns:xlink="http://www.w3.org/1999/xlink">
 <defs>
  <style type="text/css">
*{stroke-linecap:butt;stroke-linejoin:round;}
  </style>
 </defs>
 <g id="figure_1">
  <g id="patch_1">
   <path d="M 0 345.6 
L 460.8 345.6 
L 460.8 0 
L 0 0 
z
" style="fill:#ffffff;"/>
  </g>
  <g id="axes_1">
   <g id="patch_2">
    <path d="M 57.6 307.584 
L 414.72 307.584 
L 414.72 41.472 
L 57.6 41.472 
z
" style="fill:#ffffff;"/>
   </g>
   <g id="matplotlib.axis_1">
    <g id="xtick_1">
     <g id="line2d_1">
      <path clip-path="url(#p079d81f6b5)" d="M 73.507422 307.584 
L 73.507422 41.472 
" style="fill:none;stroke:#b0b0b0;stroke-dasharray:0.8,1.32;stroke-dashoffset:0;stroke-width:0.8;"/>
     </g>
     <g id="line2d_2">
      <defs>
       <path d="M 0 0 
L 0 3.5 
" id="mde1a9e4857" style="stroke:#000000;stroke-width:0.8;"/>
      </defs>
      <g>
       <use style="stroke:#000000;stroke-width:0.8;" x="73.507422" xlink:href="#mde1a9e4857" y="307.584"/>
      </g>
     </g>
     <g id="text_1">
      <!-- 0 -->
      <defs>
       <path d="M 27.296875 4.203125 
Q 15.703125 4.203125 9.453125 13.75 
Q 3.203125 23.296875 3.203125 41.890625 
Q 3.203125 60.5 9.453125 70.046875 
Q 15.703125 79.59375 27.203125 79.59375 
Q 38.703125 79.59375 45.453125 69.84375 
Q 52.203125 60.09375 52.203125 41.890625 
Q 52.203125 23.703125 45.390625 13.953125 
Q 38.59375 4.203125 27.296875 4.203125 
z
M 27.5 72.796875 
Q 19.203125 72.796875 14.59375 64.796875 
Q 10 56.796875 10 41.703125 
Q 10 10.703125 27.5 10.703125 
Q 36 10.703125 40.75 18.84375 
Q 45.5 27 45.5 41.890625 
Q 45.5 56.796875 40.59375 64.796875 
Q 35.703125 72.796875 27.5 72.796875 
z
" id="STXihei-48"/>
      </defs>
      <g transform="translate(70.73711 322.543375)scale(0.1 -0.1)">
       <use xlink:href="#STXihei-48"/>
      </g>
     </g>
    </g>
    <g id="xtick_2">
     <g id="line2d_3">
      <path clip-path="url(#p079d81f6b5)" d="M 138.568453 307.584 
L 138.568453 41.472 
" style="fill:none;stroke:#b0b0b0;stroke-dasharray:0.8,1.32;stroke-dashoffset:0;stroke-width:0.8;"/>
     </g>
     <g id="line2d_4">
      <g>
       <use style="stroke:#000000;stroke-width:0.8;" x="138.568453" xlink:href="#mde1a9e4857" y="307.584"/>
      </g>
     </g>
     <g id="text_2">
      <!-- 200 -->
      <defs>
       <path d="M 11.59375 55.296875 
L 4.703125 55.296875 
Q 5.203125 66.296875 12 72.9375 
Q 18.796875 79.59375 28.4375 79.59375 
Q 38.09375 79.59375 44.4375 73.34375 
Q 50.796875 67.09375 50.796875 58.09375 
Q 50.796875 51.40625 47.25 45.703125 
Q 43.703125 40 36.5 32.203125 
L 18.59375 12.90625 
L 51.796875 12.90625 
L 51.796875 6 
L 3 6 
L 30.40625 35.59375 
Q 37.59375 43.40625 40.6875 47.90625 
Q 43.796875 52.40625 43.796875 58.203125 
Q 43.796875 64 39.25 68.390625 
Q 34.703125 72.796875 27.953125 72.796875 
Q 21.203125 72.796875 16.75 68.25 
Q 12.296875 63.703125 11.59375 55.296875 
z
" id="STXihei-50"/>
      </defs>
      <g transform="translate(130.257516 322.543375)scale(0.1 -0.1)">
       <use xlink:href="#STXihei-50"/>
       <use x="55.399994" xlink:href="#STXihei-48"/>
       <use x="110.799988" xlink:href="#STXihei-48"/>
      </g>
     </g>
    </g>
    <g id="xtick_3">
     <g id="line2d_5">
      <path clip-path="url(#p079d81f6b5)" d="M 203.629484 307.584 
L 203.629484 41.472 
" style="fill:none;stroke:#b0b0b0;stroke-dasharray:0.8,1.32;stroke-dashoffset:0;stroke-width:0.8;"/>
     </g>
     <g id="line2d_6">
      <g>
       <use style="stroke:#000000;stroke-width:0.8;" x="203.629484" xlink:href="#mde1a9e4857" y="307.584"/>
      </g>
     </g>
     <g id="text_3">
      <!-- 400 -->
      <defs>
       <path d="M 42.59375 79.59375 
L 44 79.59375 
L 44 29.59375 
L 52.703125 29.59375 
L 52.703125 22.703125 
L 44 22.703125 
L 44 6 
L 36.90625 6 
L 36.90625 22.703125 
L 2.5 22.703125 
z
M 36.90625 29.59375 
L 36.90625 59.5 
L 15.703125 29.59375 
z
" id="STXihei-52"/>
      </defs>
      <g transform="translate(195.318547 322.543375)scale(0.1 -0.1)">
       <use xlink:href="#STXihei-52"/>
       <use x="55.399994" xlink:href="#STXihei-48"/>
       <use x="110.799988" xlink:href="#STXihei-48"/>
      </g>
     </g>
    </g>
    <g id="xtick_4">
     <g id="line2d_7">
      <path clip-path="url(#p079d81f6b5)" d="M 268.690516 307.584 
L 268.690516 41.472 
" style="fill:none;stroke:#b0b0b0;stroke-dasharray:0.8,1.32;stroke-dashoffset:0;stroke-width:0.8;"/>
     </g>
     <g id="line2d_8">
      <g>
       <use style="stroke:#000000;stroke-width:0.8;" x="268.690516" xlink:href="#mde1a9e4857" y="307.584"/>
      </g>
     </g>
     <g id="text_4">
      <!-- 600 -->
      <defs>
       <path d="M 36.703125 79.59375 
L 42.59375 75.796875 
L 23.203125 46.40625 
Q 27.296875 47.796875 31 47.796875 
Q 39 47.796875 45 41.4375 
Q 51 35.09375 51 25.9375 
Q 51 16.796875 44.453125 10.5 
Q 37.90625 4.203125 28.546875 4.203125 
Q 19.203125 4.203125 12.953125 10.59375 
Q 6.703125 17 6.703125 26.203125 
Q 6.703125 30.59375 8.390625 35.25 
Q 10.09375 39.90625 14.90625 47.09375 
z
M 43.90625 26.296875 
Q 43.90625 32.59375 39.5 37 
Q 35.09375 41.40625 28.796875 41.40625 
Q 22.5 41.40625 18.09375 37 
Q 13.703125 32.59375 13.703125 26.296875 
Q 13.703125 20 18.140625 15.59375 
Q 22.59375 11.203125 28.796875 11.203125 
Q 35 11.203125 39.453125 15.59375 
Q 43.90625 20 43.90625 26.296875 
z
" id="STXihei-54"/>
      </defs>
      <g transform="translate(260.379578 322.543375)scale(0.1 -0.1)">
       <use xlink:href="#STXihei-54"/>
       <use x="55.399994" xlink:href="#STXihei-48"/>
       <use x="110.799988" xlink:href="#STXihei-48"/>
      </g>
     </g>
    </g>
    <g id="xtick_5">
     <g id="line2d_9">
      <path clip-path="url(#p079d81f6b5)" d="M 333.751547 307.584 
L 333.751547 41.472 
" style="fill:none;stroke:#b0b0b0;stroke-dasharray:0.8,1.32;stroke-dashoffset:0;stroke-width:0.8;"/>
     </g>
     <g id="line2d_10">
      <g>
       <use style="stroke:#000000;stroke-width:0.8;" x="333.751547" xlink:href="#mde1a9e4857" y="307.584"/>
      </g>
     </g>
     <g id="text_5">
      <!-- 800 -->
      <defs>
       <path d="M 38.40625 45.40625 
Q 52 38.703125 52 26.59375 
Q 52 17 45.25 10.59375 
Q 38.5 4.203125 27.546875 4.203125 
Q 16.59375 4.203125 10 10.59375 
Q 3.40625 17 3.40625 26 
Q 3.40625 38.59375 17.296875 45.40625 
Q 6.796875 51 6.796875 60.90625 
Q 6.796875 68.296875 12.9375 73.9375 
Q 19.09375 79.59375 27.796875 79.59375 
Q 36.5 79.59375 42.59375 74.09375 
Q 48.703125 68.59375 48.703125 60.703125 
Q 48.703125 51.09375 38.40625 45.40625 
z
M 41.5 61 
Q 41.5 65.796875 37.75 69.25 
Q 34 72.703125 27.953125 72.703125 
Q 21.90625 72.703125 18 69.25 
Q 14.09375 65.796875 14.09375 60.890625 
Q 14.09375 56 18.34375 52.140625 
Q 22.59375 48.296875 28 48.296875 
Q 33.40625 48.296875 37.453125 52.09375 
Q 41.5 55.90625 41.5 61 
z
M 44.796875 26.5 
Q 44.796875 32.59375 39.84375 37.1875 
Q 34.90625 41.796875 27.84375 41.796875 
Q 20.796875 41.796875 15.6875 37.046875 
Q 10.59375 32.296875 10.59375 25.84375 
Q 10.59375 19.40625 15.296875 15.203125 
Q 20 11 27.59375 11 
Q 35.203125 11 40 15.5 
Q 44.796875 20 44.796875 26.5 
z
" id="STXihei-56"/>
      </defs>
      <g transform="translate(325.440609 322.543375)scale(0.1 -0.1)">
       <use xlink:href="#STXihei-56"/>
       <use x="55.399994" xlink:href="#STXihei-48"/>
       <use x="110.799988" xlink:href="#STXihei-48"/>
      </g>
     </g>
    </g>
    <g id="xtick_6">
     <g id="line2d_11">
      <path clip-path="url(#p079d81f6b5)" d="M 398.812578 307.584 
L 398.812578 41.472 
" style="fill:none;stroke:#b0b0b0;stroke-dasharray:0.8,1.32;stroke-dashoffset:0;stroke-width:0.8;"/>
     </g>
     <g id="line2d_12">
      <g>
       <use style="stroke:#000000;stroke-width:0.8;" x="398.812578" xlink:href="#mde1a9e4857" y="307.584"/>
      </g>
     </g>
     <g id="text_6">
      <!-- 1000 -->
      <defs>
       <path d="M 18.5 77.796875 
L 32.59375 77.796875 
L 32.59375 6 
L 25.5 6 
L 25.5 70.796875 
L 14.203125 70.796875 
z
" id="STXihei-49"/>
      </defs>
      <g transform="translate(387.731328 322.543375)scale(0.1 -0.1)">
       <use xlink:href="#STXihei-49"/>
       <use x="55.399994" xlink:href="#STXihei-48"/>
       <use x="110.799988" xlink:href="#STXihei-48"/>
       <use x="166.199982" xlink:href="#STXihei-48"/>
      </g>
     </g>
    </g>
   </g>
   <g id="matplotlib.axis_2">
    <g id="ytick_1">
     <g id="line2d_13">
      <path clip-path="url(#p079d81f6b5)" d="M 57.6 295.349205 
L 414.72 295.349205 
" style="fill:none;stroke:#b0b0b0;stroke-dasharray:0.8,1.32;stroke-dashoffset:0;stroke-width:0.8;"/>
     </g>
     <g id="line2d_14">
      <defs>
       <path d="M 0 0 
L -3.5 0 
" id="md53a0fae91" style="stroke:#000000;stroke-width:0.8;"/>
      </defs>
      <g>
       <use style="stroke:#000000;stroke-width:0.8;" x="57.6" xlink:href="#md53a0fae91" y="295.349205"/>
      </g>
     </g>
     <g id="text_7">
      <!-- 35 -->
      <defs>
       <path d="M 13.203125 61.203125 
L 5.90625 61.203125 
Q 7.90625 70.09375 13.546875 74.84375 
Q 19.203125 79.59375 27.34375 79.59375 
Q 35.5 79.59375 41.546875 74.1875 
Q 47.59375 68.796875 47.59375 61.09375 
Q 47.59375 51.796875 38.40625 46.40625 
Q 44.703125 43.796875 48.140625 38.640625 
Q 51.59375 33.5 51.59375 27.40625 
Q 51.59375 17.90625 44.640625 11.046875 
Q 37.703125 4.203125 27.09375 4.203125 
Q 17.703125 4.203125 11.59375 9.546875 
Q 5.5 14.90625 3.5 25.203125 
L 10.5 25.203125 
Q 12.40625 18.09375 16.34375 14.640625 
Q 20.296875 11.203125 27.5 11.203125 
Q 34.703125 11.203125 39.59375 15.796875 
Q 44.5 20.40625 44.5 27.203125 
Q 44.5 34 39.09375 38.140625 
Q 33.703125 42.296875 23.40625 42.5 
L 23.40625 49.09375 
Q 30.796875 49.09375 35.4375 52.5 
Q 40.09375 55.90625 40.09375 60.953125 
Q 40.09375 66 36.34375 69.34375 
Q 32.59375 72.703125 27.296875 72.703125 
Q 22 72.703125 18.75 69.84375 
Q 15.5 67 13.203125 61.203125 
z
" id="STXihei-51"/>
       <path d="M 49.203125 77.796875 
L 49.203125 71 
L 23.59375 71 
L 20 51.40625 
Q 24.796875 52.796875 29 52.796875 
Q 38.40625 52.796875 44.703125 46.140625 
Q 51 39.5 51 29.09375 
Q 51 18.703125 44.140625 11.453125 
Q 37.296875 4.203125 26 4.203125 
Q 17.40625 4.203125 11.34375 9.34375 
Q 5.296875 14.5 4.09375 23.40625 
L 11.40625 23.40625 
Q 12.703125 17.40625 16.796875 14.203125 
Q 20.90625 11 26.296875 11 
Q 33.40625 11 38.546875 16.296875 
Q 43.703125 21.59375 43.703125 29.5 
Q 43.703125 36.703125 39.203125 41.34375 
Q 34.703125 46 27.453125 46 
Q 20.203125 46 11.40625 42.203125 
L 18.09375 77.796875 
z
" id="STXihei-53"/>
      </defs>
      <g transform="translate(39.51875 299.328892)scale(0.1 -0.1)">
       <use xlink:href="#STXihei-51"/>
       <use x="55.399994" xlink:href="#STXihei-53"/>
      </g>
     </g>
    </g>
    <g id="ytick_2">
     <g id="line2d_15">
      <path clip-path="url(#p079d81f6b5)" d="M 57.6 244.341976 
L 414.72 244.341976 
" style="fill:none;stroke:#b0b0b0;stroke-dasharray:0.8,1.32;stroke-dashoffset:0;stroke-width:0.8;"/>
     </g>
     <g id="line2d_16">
      <g>
       <use style="stroke:#000000;stroke-width:0.8;" x="57.6" xlink:href="#md53a0fae91" y="244.341976"/>
      </g>
     </g>
     <g id="text_8">
      <!-- 40 -->
      <g transform="translate(39.51875 248.321663)scale(0.1 -0.1)">
       <use xlink:href="#STXihei-52"/>
       <use x="55.399994" xlink:href="#STXihei-48"/>
      </g>
     </g>
    </g>
    <g id="ytick_3">
     <g id="line2d_17">
      <path clip-path="url(#p079d81f6b5)" d="M 57.6 193.334747 
L 414.72 193.334747 
" style="fill:none;stroke:#b0b0b0;stroke-dasharray:0.8,1.32;stroke-dashoffset:0;stroke-width:0.8;"/>
     </g>
     <g id="line2d_18">
      <g>
       <use style="stroke:#000000;stroke-width:0.8;" x="57.6" xlink:href="#md53a0fae91" y="193.334747"/>
      </g>
     </g>
     <g id="text_9">
      <!-- 45 -->
      <g transform="translate(39.51875 197.314434)scale(0.1 -0.1)">
       <use xlink:href="#STXihei-52"/>
       <use x="55.399994" xlink:href="#STXihei-53"/>
      </g>
     </g>
    </g>
    <g id="ytick_4">
     <g id="line2d_19">
      <path clip-path="url(#p079d81f6b5)" d="M 57.6 142.327518 
L 414.72 142.327518 
" style="fill:none;stroke:#b0b0b0;stroke-dasharray:0.8,1.32;stroke-dashoffset:0;stroke-width:0.8;"/>
     </g>
     <g id="line2d_20">
      <g>
       <use style="stroke:#000000;stroke-width:0.8;" x="57.6" xlink:href="#md53a0fae91" y="142.327518"/>
      </g>
     </g>
     <g id="text_10">
      <!-- 50 -->
      <g transform="translate(39.51875 146.307206)scale(0.1 -0.1)">
       <use xlink:href="#STXihei-53"/>
       <use x="55.399994" xlink:href="#STXihei-48"/>
      </g>
     </g>
    </g>
    <g id="ytick_5">
     <g id="line2d_21">
      <path clip-path="url(#p079d81f6b5)" d="M 57.6 91.320289 
L 414.72 91.320289 
" style="fill:none;stroke:#b0b0b0;stroke-dasharray:0.8,1.32;stroke-dashoffset:0;stroke-width:0.8;"/>
     </g>
     <g id="line2d_22">
      <g>
       <use style="stroke:#000000;stroke-width:0.8;" x="57.6" xlink:href="#md53a0fae91" y="91.320289"/>
      </g>
     </g>
     <g id="text_11">
      <!-- 55 -->
      <g transform="translate(39.51875 95.299977)scale(0.1 -0.1)">
       <use xlink:href="#STXihei-53"/>
       <use x="55.399994" xlink:href="#STXihei-53"/>
      </g>
     </g>
    </g>
   </g>
   <g id="line2d_23">
    <path clip-path="url(#p079d81f6b5)" d="M 73.832727 70.986795 
L 74.483338 57.940048 
L 74.808643 53.568 
L 75.133948 53.637398 
L 75.459253 54.123181 
L 76.109863 56.066313 
L 76.760474 60.091373 
L 77.085779 58.981012 
L 77.411084 59.05041 
L 77.736389 61.479325 
L 78.061694 62.936675 
L 78.386999 63.422458 
L 78.712305 66.406554 
L 79.03761 67.655711 
L 80.33883 70.917398 
L 80.989441 73.13812 
L 81.314746 73.485108 
L 81.640051 74.803663 
L 81.965356 74.664867 
L 82.290661 75.497639 
L 82.615966 75.844627 
L 82.941272 76.399807 
L 83.591882 76.816193 
L 84.242492 78.134747 
L 84.567797 77.995952 
L 84.893103 78.204145 
L 85.218408 78.551133 
L 85.543713 77.787759 
L 85.869018 78.065349 
L 86.519628 78.065349 
L 86.844934 78.689928 
L 87.170239 79.592096 
L 87.495544 79.314506 
L 88.146154 80.07788 
L 88.796764 82.714988 
L 89.12207 82.784386 
L 90.097985 81.396434 
L 90.748595 82.229205 
L 91.073901 82.923181 
L 91.399206 82.159807 
L 91.724511 82.021012 
L 92.375121 82.853783 
L 92.700426 83.061976 
L 93.351037 84.796916 
L 94.326952 85.699084 
L 94.652257 85.83788 
L 94.977562 86.184867 
L 95.302868 85.490892 
L 95.628173 85.560289 
L 95.953478 86.531855 
L 96.278783 86.948241 
L 97.254698 88.960771 
L 97.580004 88.821976 
L 97.905309 88.821976 
L 98.555919 90.348723 
L 98.881224 89.585349 
L 99.206529 90.001735 
L 99.531835 90.765108 
L 99.85714 91.181494 
L 100.182445 90.487518 
L 100.50775 91.112096 
L 100.833055 91.181494 
L 101.15836 90.834506 
L 101.808971 91.528482 
L 102.134276 91.59788 
L 102.784886 92.777639 
L 103.110191 92.569446 
L 103.435496 93.124627 
L 103.760802 93.124627 
L 104.411412 92.361253 
L 105.062022 93.957398 
L 105.712633 94.373783 
L 106.037938 93.749205 
L 106.363243 93.541012 
L 107.013853 94.512578 
L 107.339158 94.234988 
L 107.664463 94.443181 
L 107.989769 94.16559 
L 108.315074 94.581976 
L 108.640379 94.581976 
L 109.290989 95.553542 
L 109.616294 96.525108 
L 109.9416 96.594506 
L 110.266905 97.080289 
L 110.917515 96.455711 
L 111.24282 96.802699 
L 111.568125 96.733301 
L 111.89343 96.455711 
L 112.218736 96.663904 
L 112.544041 97.288482 
L 112.869346 97.010892 
L 113.194651 97.774265 
L 113.519956 97.566072 
L 114.170567 97.427277 
L 114.495872 97.149687 
L 114.821177 97.63547 
L 115.146482 97.010892 
L 115.797092 97.774265 
L 116.122398 97.91306 
L 116.773008 99.092819 
L 117.098313 99.578602 
L 117.423618 99.717398 
L 118.074228 100.827759 
L 118.399534 101.105349 
L 118.724839 101.105349 
L 119.050144 100.966554 
L 119.700754 101.38294 
L 120.026059 101.244145 
L 120.351365 101.313542 
L 120.67667 100.966554 
L 121.652585 101.729928 
L 122.303195 103.048482 
L 122.628501 102.909687 
L 122.953806 103.67306 
L 123.279111 103.256675 
L 123.604416 103.048482 
L 123.929721 102.493301 
L 124.580332 103.048482 
L 124.905637 103.811855 
L 125.230942 104.158843 
L 125.881552 104.020048 
L 126.206857 103.742458 
L 126.532163 103.950651 
L 127.182773 103.603663 
L 127.508078 104.158843 
L 127.833383 103.326072 
L 128.158688 103.950651 
L 128.483993 104.158843 
L 128.809299 104.991614 
L 129.134604 105.269205 
L 129.459909 105.13041 
L 129.785214 105.199807 
L 130.110519 104.575229 
L 130.435824 104.783422 
L 130.76113 104.714024 
L 131.086435 105.338602 
L 131.41174 105.408 
L 131.737045 105.338602 
L 132.06235 106.657157 
L 132.387655 106.587759 
L 133.038266 106.795952 
L 133.363571 106.726554 
L 133.688876 107.351133 
L 134.014181 107.14294 
L 134.339486 107.489928 
L 134.990097 107.559325 
L 135.315402 107.69812 
L 135.640707 107.073542 
L 135.966012 107.281735 
L 136.291317 107.767518 
L 136.941927 108.114506 
L 137.267233 108.669687 
L 137.592538 108.739084 
L 137.917843 108.947277 
L 138.243148 108.87788 
L 138.568453 108.600289 
L 138.893758 109.016675 
L 139.544369 109.15547 
L 139.869674 109.988241 
L 140.194979 109.710651 
L 140.520284 110.265831 
L 140.845589 110.127036 
L 141.170895 110.682217 
L 141.4962 110.682217 
L 141.821505 110.821012 
L 142.14681 111.098602 
L 142.472115 111.931373 
L 143.448031 112.764145 
L 143.773336 112.347759 
L 144.098641 113.18053 
L 144.423946 113.527518 
L 144.749251 113.596916 
L 145.399862 115.331855 
L 145.725167 115.470651 
L 146.050472 115.470651 
L 146.701082 116.511614 
L 147.026387 116.719807 
L 147.351692 116.511614 
L 147.676998 116.581012 
L 148.002303 116.928 
L 148.327608 117.691373 
L 148.652913 117.20559 
L 148.978218 117.760771 
L 149.303523 117.830169 
L 150.604744 119.356916 
L 150.930049 120.328482 
L 151.255354 120.67547 
L 151.58066 120.050892 
L 151.905965 120.189687 
L 152.556575 120.814265 
L 152.88188 121.022458 
L 153.207185 120.883663 
L 153.53249 120.883663 
L 154.183101 120.606072 
L 154.508406 120.259084 
L 154.833711 120.744867 
L 155.159016 120.883663 
L 155.484321 121.230651 
L 155.809627 121.300048 
L 156.134932 121.924627 
L 156.460237 121.785831 
L 156.785542 121.508241 
L 157.110847 122.063422 
L 157.436152 122.132819 
L 158.412068 122.826795 
L 158.737373 123.520771 
L 159.062678 123.867759 
L 159.387983 123.867759 
L 159.713288 124.006554 
L 160.038594 124.006554 
L 160.363899 123.520771 
L 160.689204 123.381976 
L 161.014509 123.451373 
L 161.339814 124.006554 
L 161.665119 124.284145 
L 161.990424 124.075952 
L 162.31573 124.075952 
L 162.641035 124.561735 
L 162.96634 124.145349 
L 163.291645 124.839325 
L 163.942255 124.492337 
L 164.267561 125.186313 
L 164.592866 125.533301 
L 164.918171 125.394506 
L 165.243476 125.533301 
L 165.568781 125.116916 
L 165.894086 125.325108 
L 166.544697 125.047518 
L 167.195307 125.463904 
L 167.845917 125.602699 
L 168.171222 126.019084 
L 168.821833 126.019084 
L 169.797748 126.643663 
L 170.123053 127.060048 
L 170.448359 126.574265 
L 170.773664 127.892819 
L 171.098969 127.684627 
L 171.424274 127.823422 
L 171.749579 127.754024 
L 172.074884 128.17041 
L 172.400189 128.239807 
L 172.725495 128.031614 
L 173.0508 128.101012 
L 173.376105 127.823422 
L 173.70141 127.823422 
L 174.35202 128.933783 
L 174.677326 132.958843 
L 175.002631 133.444627 
L 175.327936 132.750651 
L 175.653241 133.305831 
L 175.978546 133.444627 
L 176.303851 133.375229 
L 176.629156 133.583422 
L 176.954462 133.444627 
L 177.279767 133.652819 
L 177.605072 134.138602 
L 177.930377 133.999807 
L 178.255682 134.346795 
L 178.580987 134.138602 
L 178.906293 133.791614 
L 179.231598 134.138602 
L 179.556903 134.138602 
L 179.882208 134.277398 
L 180.207513 134.208 
L 181.183429 134.554988 
L 181.508734 134.416193 
L 181.834039 133.999807 
L 182.159344 134.416193 
L 182.484649 134.554988 
L 182.809954 135.387759 
L 183.13526 135.179566 
L 183.460565 135.248964 
L 183.78587 135.94294 
L 184.111175 135.734747 
L 184.43648 134.971373 
L 184.761785 135.110169 
L 185.087091 135.387759 
L 185.412396 135.179566 
L 185.737701 135.526554 
L 186.063006 135.248964 
L 186.388311 135.804145 
L 186.713616 135.873542 
L 187.038921 136.22053 
L 187.364227 135.665349 
L 187.689532 135.665349 
L 188.340142 136.289928 
L 188.665447 136.081735 
L 188.990752 135.665349 
L 189.316058 136.428723 
L 189.966668 136.151133 
L 190.291973 136.22053 
L 190.617278 135.873542 
L 191.267889 136.289928 
L 191.593194 137.053301 
L 191.918499 137.261494 
L 192.569109 136.706313 
L 192.894414 137.469687 
L 193.219719 137.816675 
L 193.545025 137.400289 
L 193.87033 137.67788 
L 194.195635 137.261494 
L 194.52094 137.608482 
L 194.846245 138.302458 
L 195.17155 138.718843 
L 195.496856 138.857639 
L 195.822161 138.441253 
L 196.147466 138.718843 
L 197.123381 138.857639 
L 197.448686 139.204627 
L 198.099297 138.302458 
L 198.424602 138.649446 
L 198.749907 138.649446 
L 199.075212 138.441253 
L 199.400517 138.024867 
L 199.725823 138.23306 
L 200.051128 138.094265 
L 200.376433 138.441253 
L 200.701738 138.371855 
L 201.027043 138.510651 
L 201.352348 139.204627 
L 201.677653 139.412819 
L 202.002959 139.412819 
L 202.328264 139.621012 
L 202.653569 139.412819 
L 202.978874 139.551614 
L 203.304179 140.661976 
L 203.95479 140.592578 
L 204.6054 140.176193 
L 204.930705 140.106795 
L 205.25601 140.314988 
L 205.906621 141.008964 
L 206.231926 141.147759 
L 206.557231 141.078361 
L 206.882536 140.731373 
L 207.207841 140.731373 
L 207.533146 140.523181 
L 208.183757 141.772337 
L 208.509062 141.911133 
L 208.834367 141.147759 
L 209.159672 141.564145 
L 209.810282 141.70294 
L 210.460893 142.327518 
L 210.786198 141.841735 
L 211.111503 141.633542 
L 211.436808 141.70294 
L 211.762113 141.494747 
L 212.087418 142.049928 
L 212.412724 142.049928 
L 213.063334 141.633542 
L 213.388639 141.98053 
L 213.713944 141.841735 
L 214.039249 142.119325 
L 214.364555 142.188723 
L 215.015165 141.98053 
L 215.34047 142.119325 
L 215.665775 142.049928 
L 215.99108 142.743904 
L 216.316385 142.327518 
L 216.641691 142.119325 
L 217.942911 143.368482 
L 218.593522 143.923663 
L 218.918827 144.895229 
L 219.244132 144.895229 
L 219.569437 144.687036 
L 219.894742 144.825831 
L 220.545353 144.478843 
L 220.870658 144.409446 
L 221.195963 143.923663 
L 221.521268 144.201253 
L 221.846573 143.923663 
L 222.497183 143.71547 
L 222.822489 143.576675 
L 223.147794 143.71547 
L 223.473099 143.646072 
L 223.798404 143.368482 
L 224.123709 144.062458 
L 224.449014 144.478843 
L 224.77432 144.131855 
L 226.07554 144.062458 
L 226.400845 144.617639 
L 227.051456 144.687036 
L 227.376761 144.895229 
L 227.702066 145.45041 
L 228.027371 145.311614 
L 228.352676 145.311614 
L 229.003287 145.936193 
L 229.328592 145.797398 
L 229.979202 146.00559 
L 230.304507 145.658602 
L 230.629812 146.00559 
L 230.955118 145.658602 
L 231.280423 146.421976 
L 231.605728 145.797398 
L 232.581643 145.866795 
L 232.906948 145.936193 
L 233.232254 145.658602 
L 233.557559 145.936193 
L 233.882864 145.866795 
L 234.208169 146.144386 
L 234.858779 145.866795 
L 235.50939 147.115952 
L 235.834695 146.630169 
L 236.16 146.491373 
L 236.485305 146.560771 
L 236.81061 146.283181 
L 237.461221 147.115952 
L 237.786526 146.491373 
L 238.111831 146.977157 
L 238.437136 146.977157 
L 239.087746 146.630169 
L 239.738357 147.046554 
L 240.388967 147.115952 
L 241.039577 146.768964 
L 241.364882 146.838361 
L 242.015493 147.324145 
L 242.991408 147.185349 
L 243.316713 147.46294 
L 243.967324 148.365108 
L 244.292629 148.434506 
L 244.943239 149.267277 
L 245.59385 149.406072 
L 246.24446 149.822458 
L 246.89507 149.544867 
L 247.54568 149.47547 
L 247.870986 148.920289 
L 248.196291 149.267277 
L 248.521596 149.19788 
L 248.846901 150.169446 
L 249.497511 150.655229 
L 249.822817 150.655229 
L 250.148122 150.516434 
L 250.473427 150.516434 
L 250.798732 151.002217 
L 251.124037 151.973783 
L 251.449342 152.181976 
L 251.774647 152.737157 
L 252.099953 153.639325 
L 252.425258 152.945349 
L 252.750563 152.806554 
L 253.075868 152.875952 
L 253.726478 152.320771 
L 254.051784 152.320771 
L 254.377089 152.459566 
L 254.702394 152.181976 
L 255.027699 153.22294 
L 255.353004 153.084145 
L 255.678309 153.569928 
L 256.003615 153.847518 
L 256.32892 153.847518 
L 256.654225 154.472096 
L 256.97953 154.125108 
L 257.304835 154.472096 
L 257.63014 155.374265 
L 257.955445 155.582458 
L 258.280751 155.582458 
L 258.606056 155.721253 
L 258.931361 155.651855 
L 259.256666 155.374265 
L 259.581971 155.929446 
L 259.907276 156.137639 
L 260.232582 156.484627 
L 260.557887 157.109205 
L 260.883192 156.97041 
L 261.533802 157.386795 
L 262.184412 157.456193 
L 262.509718 157.178602 
L 262.835023 157.664386 
L 263.160328 157.664386 
L 263.485633 157.178602 
L 263.810938 157.178602 
L 264.136243 157.456193 
L 264.461549 157.109205 
L 264.786854 156.554024 
L 265.112159 157.109205 
L 265.437464 157.109205 
L 266.088074 157.941976 
L 266.413379 157.941976 
L 266.738685 157.733783 
L 267.389295 158.497157 
L 267.7146 158.635952 
L 268.039905 158.427759 
L 268.36521 158.080771 
L 268.690516 157.941976 
L 269.341126 158.150169 
L 269.991736 158.98294 
L 270.317041 159.191133 
L 270.642347 159.676916 
L 270.967652 159.746313 
L 271.618262 160.093301 
L 271.943567 159.329928 
L 272.268872 159.746313 
L 272.594177 159.329928 
L 272.919483 159.399325 
L 273.570093 159.26053 
L 274.220703 158.913542 
L 274.546008 159.121735 
L 274.871314 158.774747 
L 275.196619 159.399325 
L 275.847229 159.885108 
L 276.823144 159.329928 
L 277.14845 159.607518 
L 277.473755 159.53812 
L 277.79906 159.676916 
L 278.124365 159.468723 
L 278.44967 159.676916 
L 278.774975 159.399325 
L 279.100281 159.885108 
L 279.425586 159.191133 
L 280.076196 158.98294 
L 280.726806 159.468723 
L 281.052111 159.468723 
L 281.377417 159.121735 
L 281.702722 159.191133 
L 282.028027 159.121735 
L 282.353332 159.746313 
L 282.678637 159.468723 
L 283.329248 160.301494 
L 283.979858 159.954506 
L 284.630468 159.468723 
L 285.281079 159.468723 
L 285.606384 160.023904 
L 285.931689 160.232096 
L 286.256994 159.885108 
L 286.582299 160.232096 
L 286.907604 160.093301 
L 287.232909 160.093301 
L 287.88352 160.787277 
L 288.53413 160.093301 
L 288.859435 160.370892 
L 289.18474 160.370892 
L 289.510046 160.856675 
L 289.835351 160.99547 
L 290.160656 160.99547 
L 290.485961 160.71788 
L 290.811266 161.620048 
L 291.136571 161.481253 
L 291.461876 161.620048 
L 291.787182 162.175229 
L 292.112487 162.105831 
L 292.437792 162.452819 
L 292.763097 161.967036 
L 293.088402 161.897639 
L 293.413707 162.036434 
L 293.739013 162.314024 
L 294.064318 161.897639 
L 294.714928 162.175229 
L 295.040233 162.661012 
L 295.365538 162.244627 
L 295.690844 162.244627 
L 296.016149 162.105831 
L 296.341454 162.452819 
L 296.666759 162.522217 
L 296.992064 162.244627 
L 297.642674 162.314024 
L 297.96798 161.758843 
L 298.293285 162.314024 
L 298.61859 162.314024 
L 298.943895 161.967036 
L 299.2692 161.897639 
L 300.245116 162.383422 
L 300.895726 161.967036 
L 301.221031 161.967036 
L 301.546336 162.522217 
L 301.871641 162.661012 
L 302.196947 162.661012 
L 302.847557 163.008 
L 303.172862 163.563181 
L 303.823472 163.979566 
L 304.799388 164.187759 
L 305.124693 164.395952 
L 306.100608 164.673542 
L 306.425914 164.118361 
L 306.751219 164.534747 
L 307.076524 164.534747 
L 307.401829 164.881735 
L 307.727134 164.951133 
L 308.052439 165.159325 
L 308.377745 164.74294 
L 308.70305 164.604145 
L 309.028355 164.812337 
L 309.35366 164.395952 
L 309.678965 164.187759 
L 310.00427 164.187759 
L 310.329576 164.881735 
L 310.980186 165.29812 
L 311.630796 166.339084 
L 311.956101 165.645108 
L 312.281406 165.436916 
L 312.606712 165.645108 
L 312.932017 165.29812 
L 313.257322 165.436916 
L 313.582627 165.992096 
L 313.907932 166.130892 
L 314.233237 166.130892 
L 314.883848 166.547277 
L 315.209153 166.200289 
L 316.185068 166.47788 
L 316.510373 166.75547 
L 316.835679 167.380048 
L 317.160984 167.380048 
L 317.486289 167.796434 
L 317.811594 167.796434 
L 318.136899 168.559807 
L 318.462204 168.004627 
L 318.78751 167.865831 
L 319.112815 167.588241 
L 319.763425 167.935229 
L 320.08873 168.351614 
L 320.414035 168.212819 
L 320.73934 167.796434 
L 321.064646 167.865831 
L 321.389951 168.351614 
L 321.715256 168.351614 
L 322.365866 169.114988 
L 322.691171 168.837398 
L 323.016477 169.253783 
L 323.341782 168.976193 
L 323.667087 169.114988 
L 323.992392 169.600771 
L 324.317697 169.739566 
L 324.968308 169.461976 
L 325.618918 170.086554 
L 325.944223 170.017157 
L 326.594833 170.155952 
L 326.920138 170.364145 
L 327.245444 170.086554 
L 327.570749 170.572337 
L 327.896054 171.405108 
L 328.221359 171.405108 
L 328.546664 171.613301 
L 328.871969 171.543904 
L 329.197275 171.821494 
L 329.52258 171.752096 
L 329.847885 171.960289 
L 330.17319 171.543904 
L 330.498495 171.613301 
L 331.149105 172.307277 
L 331.474411 172.099084 
L 331.799716 172.51547 
L 332.125021 172.23788 
L 332.450326 172.168482 
L 332.775631 172.376675 
L 333.100936 172.168482 
L 333.426242 172.654265 
L 333.751547 172.79306 
L 334.076852 173.209446 
L 334.402157 173.348241 
L 335.052767 173.834024 
L 336.028683 173.695229 
L 336.679293 173.903422 
L 337.004598 173.834024 
L 337.980514 174.181012 
L 338.305819 174.25041 
L 338.631124 173.278843 
L 338.956429 173.417639 
L 339.281734 174.181012 
L 339.60704 173.556434 
L 340.25765 173.903422 
L 340.582955 174.597398 
L 340.90826 175.777157 
L 341.233565 175.291373 
L 341.55887 175.499566 
L 341.884176 176.956916 
L 342.209481 177.512096 
L 342.534786 177.303904 
L 343.185396 177.99788 
L 343.510701 177.720289 
L 343.836007 178.136675 
L 344.161312 178.27547 
L 344.486617 178.067277 
L 344.811922 177.512096 
L 345.137227 177.581494 
L 345.462532 177.512096 
L 345.787837 177.720289 
L 346.113143 177.512096 
L 346.763753 176.81812 
L 347.089058 176.887518 
L 347.414363 177.095711 
L 347.739668 177.512096 
L 348.064974 177.650892 
L 348.390279 177.303904 
L 348.715584 177.234506 
L 349.366194 176.748723 
L 350.016805 177.234506 
L 350.34211 177.165108 
L 350.667415 176.956916 
L 351.318025 177.303904 
L 351.64333 176.748723 
L 351.968635 176.81812 
L 352.293941 177.373301 
L 352.944551 176.471133 
L 353.269856 176.193542 
L 353.595161 176.679325 
L 353.920466 176.332337 
L 354.245772 177.303904 
L 354.571077 177.512096 
L 354.896382 177.859084 
L 355.221687 177.99788 
L 355.546992 178.344867 
L 355.872297 178.27547 
L 356.197602 178.483663 
L 356.848213 178.136675 
L 357.173518 177.928482 
L 357.498823 178.206072 
L 358.149433 179.594024 
L 358.474739 178.969446 
L 359.125349 179.524627 
L 359.450654 178.900048 
L 359.775959 179.108241 
L 360.101264 178.622458 
L 360.42657 178.830651 
L 360.751875 179.316434 
L 361.07718 179.524627 
L 361.72779 179.316434 
L 362.053095 179.177639 
L 362.3784 178.900048 
L 362.703706 178.414265 
L 363.029011 178.761253 
L 363.354316 179.316434 
L 363.679621 179.177639 
L 364.004926 179.385831 
L 364.330231 179.038843 
L 364.655537 178.969446 
L 365.306147 178.55306 
L 365.631452 178.483663 
L 365.956757 178.691855 
L 366.282062 178.691855 
L 366.607367 179.455229 
L 366.932673 179.802217 
L 367.257978 179.802217 
L 367.583283 179.177639 
L 367.908588 179.941012 
L 368.233893 180.149205 
L 368.559198 179.871614 
L 368.884504 180.079807 
L 369.860419 181.190169 
L 370.185724 180.981976 
L 370.836334 181.190169 
L 371.486945 181.606554 
L 371.81225 181.537157 
L 372.137555 181.328964 
L 372.46286 181.606554 
L 372.788165 181.675952 
L 373.764081 181.537157 
L 374.089386 181.814747 
L 374.414691 181.537157 
L 375.065302 182.786313 
L 375.390607 183.133301 
L 375.715912 183.133301 
L 376.366522 184.382458 
L 376.691827 184.521253 
L 377.342438 186.811373 
L 377.667743 186.741976 
L 377.993048 186.464386 
L 378.318353 186.741976 
L 378.643658 186.533783 
L 378.968963 187.366554 
L 379.294269 187.297157 
L 379.619574 187.505349 
L 379.944879 187.505349 
L 380.595489 188.407518 
L 380.920794 188.268723 
L 382.222015 189.379084 
L 382.54732 189.309687 
L 382.872625 189.864867 
L 383.19793 190.07306 
L 383.523236 190.697639 
L 383.848541 190.558843 
L 384.173846 190.697639 
L 385.149761 191.877398 
L 386.450982 192.432578 
L 387.101592 193.54294 
L 387.426897 194.306313 
L 387.752203 194.375711 
L 388.077508 194.722699 
L 388.402813 194.375711 
L 388.728118 195.000289 
L 389.053423 195.27788 
L 389.378728 195.000289 
L 389.704034 195.27788 
L 390.029339 196.388241 
L 390.679949 197.082217 
L 391.005254 197.706795 
L 391.330559 197.914988 
L 391.655864 198.331373 
L 392.63178 201.03788 
L 393.28239 202.495229 
L 393.607695 203.813783 
L 393.933001 204.577157 
L 394.258306 205.756916 
L 394.583611 207.769446 
L 394.908916 209.018602 
L 395.884831 214.709205 
L 396.535442 222.34294 
L 397.186052 233.099566 
L 397.836662 252.600289 
L 398.161968 266.549205 
L 398.487273 295.488 
L 398.487273 295.488 
" style="fill:none;stroke:#4bacc6;stroke-linecap:square;stroke-width:2;"/>
   </g>
   <g id="patch_3">
    <path d="M 57.6 307.584 
L 57.6 41.472 
" style="fill:none;stroke:#000000;stroke-linecap:square;stroke-linejoin:miter;stroke-width:0.8;"/>
   </g>
   <g id="patch_4">
    <path d="M 414.72 307.584 
L 414.72 41.472 
" style="fill:none;stroke:#000000;stroke-linecap:square;stroke-linejoin:miter;stroke-width:0.8;"/>
   </g>
   <g id="patch_5">
    <path d="M 57.6 307.584 
L 414.72 307.584 
" style="fill:none;stroke:#000000;stroke-linecap:square;stroke-linejoin:miter;stroke-width:0.8;"/>
   </g>
   <g id="patch_6">
    <path d="M 57.6 41.472 
L 414.72 41.472 
" style="fill:none;stroke:#000000;stroke-linecap:square;stroke-linejoin:miter;stroke-width:0.8;"/>
   </g>
   <g id="text_12">
    <!-- 2016春季 Average -->
    <defs>
     <path d="M 44.703125 66.203125 
Q 26.5 66.203125 12 65.5 
L 12 72 
Q 24.203125 71 45.703125 71 
Q 46.59375 75.90625 46.703125 81 
Q 51.5 79.59375 53.84375 79.59375 
Q 56.203125 79.59375 56.203125 78.9375 
Q 56.203125 78.296875 55.203125 77.5 
Q 53.59375 76.296875 52 71 
Q 74.90625 71 87.40625 72 
L 87.40625 65.5 
Q 75.09375 66.203125 50.796875 66.203125 
Q 49.59375 60.90625 48.5 57.703125 
L 55.59375 57.703125 
Q 72.59375 57.703125 81.703125 58.5 
L 81.703125 52 
Q 71.296875 52.90625 55.59375 52.90625 
L 46.796875 52.90625 
Q 45 48.40625 42.90625 44.5 
L 62.90625 44.5 
Q 83.40625 44.5 93.09375 45.296875 
L 93.09375 38.796875 
Q 83.09375 39.5 66.09375 39.703125 
Q 77.59375 25.5 96.40625 23.09375 
Q 93.5 20.296875 92 15.5 
Q 82.59375 18.296875 75.09375 23.703125 
L 75.09375 4.90625 
Q 75.09375 -3 75.59375 -8.09375 
L 69.09375 -8.09375 
L 69.09375 -3.40625 
L 31 -3.40625 
L 31 -9.59375 
L 24.40625 -9.59375 
Q 25 -3.703125 25 2.203125 
L 25 24.703125 
Q 17.90625 19.703125 10 14.90625 
Q 8.5 17.703125 3.796875 20.296875 
Q 23.5 28 33 39.703125 
Q 15.796875 39.5 6 38.796875 
L 6 45.296875 
Q 17.59375 44.5 36.5 44.5 
Q 38.90625 48.203125 40.796875 52.90625 
Q 26 52.90625 16.09375 52 
L 16.09375 58.5 
Q 24.796875 57.703125 42.59375 57.703125 
Q 44 62.703125 44.703125 66.203125 
z
M 60.09375 39.703125 
L 39.90625 39.703125 
Q 36.09375 34.296875 31.40625 30.09375 
L 67.703125 30.09375 
Q 63.5 34.59375 60.09375 39.703125 
z
M 31 15.703125 
L 69.09375 15.703125 
L 69.09375 25.296875 
L 31 25.296875 
z
M 31 1.296875 
L 69.09375 1.296875 
L 69.09375 11 
L 31 11 
z
" id="STXihei-26149"/>
     <path d="M 47.5 70.296875 
Q 33.09375 69.5 21.90625 69.296875 
Q 21.5 72.296875 19 75.703125 
Q 29.703125 74.796875 35.703125 74.796875 
Q 41.703125 74.796875 54.890625 75.5 
Q 68.09375 76.203125 78 79.296875 
Q 78.59375 76.203125 79.796875 74.59375 
Q 81 73 81 72.5 
Q 81 71.5 79 71.84375 
Q 77 72.203125 74.703125 72.203125 
Q 72.40625 72.203125 67.25 71.59375 
Q 62.09375 71 53.296875 70.59375 
L 53.296875 60.90625 
Q 79.203125 60.90625 92.09375 61.59375 
L 92.09375 55.59375 
Q 80.5 56.203125 61.703125 56.203125 
Q 76.796875 43.5 96.5 38.40625 
Q 93.40625 35.796875 91.796875 32.40625 
Q 67.703125 42.703125 55.203125 56.203125 
L 53.296875 56.203125 
L 53.296875 48.203125 
Q 53.296875 43.59375 53.59375 37.296875 
L 47 37.296875 
Q 47.5 44.40625 47.5 48.203125 
L 47.5 56.203125 
L 45.703125 56.203125 
Q 37.59375 47.40625 30.25 41.953125 
Q 22.90625 36.5 9 29.90625 
Q 7.703125 33.296875 3.703125 36.09375 
Q 24.203125 41.09375 39.203125 56.203125 
Q 20.40625 56.09375 8.5 55.59375 
L 8.5 61.59375 
Q 21.40625 60.90625 47.5 60.90625 
z
M 49.09375 13.296875 
Q 23.5 13.296875 12.203125 12.40625 
L 12.203125 18.90625 
Q 26 18 49.09375 18 
L 49.09375 22.203125 
L 63.796875 30.5 
L 42.59375 30.5 
Q 31.796875 30.5 23.90625 30 
L 23.90625 35.59375 
Q 33 35.203125 50.890625 35.203125 
Q 68.796875 35.203125 77.59375 35.59375 
L 77.59375 30.90625 
Q 73.703125 31.09375 68.703125 28.09375 
L 54.90625 19.90625 
L 54.90625 18 
Q 76.703125 18 90.09375 18.90625 
L 90.09375 12.5 
Q 80.703125 13.296875 54.90625 13.296875 
L 54.90625 2.203125 
Q 54.90625 -3.09375 53.703125 -5.390625 
Q 52.5 -7.703125 48.546875 -8.640625 
Q 44.59375 -9.59375 35.203125 -10 
Q 35.09375 -6.09375 32.296875 -2.5 
Q 38 -3.203125 41.59375 -3.203125 
Q 45.203125 -3.203125 47.140625 -2.390625 
Q 49.09375 -1.59375 49.09375 0.90625 
z
" id="STXihei-23395"/>
     <path id="STXihei-32"/>
     <path d="M 38.09375 80.703125 
L 71.59375 6 
L 63.90625 6 
L 52.59375 30.5 
L 21.59375 30.5 
L 10.40625 6 
L 2.40625 6 
L 36.296875 80.703125 
z
M 37.203125 64.796875 
L 24.90625 37.796875 
L 49.40625 37.796875 
z
" id="STXihei-65"/>
     <path d="M 2.59375 59.09375 
L 9.90625 59.09375 
L 27.59375 18.703125 
L 45.296875 59.09375 
L 52.59375 59.09375 
L 28.296875 4.203125 
L 27.09375 4.203125 
z
" id="STXihei-118"/>
     <path d="M 52.296875 23.203125 
L 58.09375 20.203125 
Q 49.5 4.203125 32.703125 4.203125 
Q 20.703125 4.203125 12.890625 12.453125 
Q 5.09375 20.703125 5.09375 32.296875 
Q 5.09375 43.90625 12.9375 52.203125 
Q 20.796875 60.5 32.34375 60.5 
Q 43.90625 60.5 51.75 52.796875 
Q 59.59375 45.09375 59.90625 31.796875 
L 12.09375 31.796875 
Q 12.40625 22.203125 18.15625 16.34375 
Q 23.90625 10.5 32.09375 10.5 
Q 45.59375 10.5 52.296875 23.203125 
z
M 52.296875 37.703125 
Q 50.90625 45.296875 45.296875 49.59375 
Q 39.703125 53.90625 32.40625 53.90625 
Q 17.40625 53.90625 12.796875 37.703125 
z
" id="STXihei-101"/>
     <path d="M 5 59.09375 
L 12 59.09375 
L 12 51.40625 
Q 14.796875 56.09375 17.4375 58.296875 
Q 20.09375 60.5 23.34375 60.5 
Q 26.59375 60.5 29.90625 58.703125 
L 26.296875 52.90625 
Q 24.796875 53.796875 23.203125 53.796875 
Q 20.09375 53.796875 17.34375 50.59375 
Q 14.59375 47.40625 13.296875 42.34375 
Q 12 37.296875 12 24 
L 12 6 
L 5 6 
z
" id="STXihei-114"/>
     <path d="M 60.5 59.09375 
L 60.5 6 
L 53.796875 6 
L 53.796875 15.09375 
Q 44.703125 4.203125 33 4.203125 
Q 21.296875 4.203125 13.25 12.546875 
Q 5.203125 20.90625 5.203125 32.453125 
Q 5.203125 44 13.296875 52.25 
Q 21.40625 60.5 32.703125 60.5 
Q 45.703125 60.5 53.796875 49.40625 
L 53.796875 59.09375 
z
M 54.203125 32.296875 
Q 54.203125 41.40625 48.09375 47.65625 
Q 42 53.90625 33.140625 53.90625 
Q 24.296875 53.90625 18.1875 47.453125 
Q 12.09375 41 12.09375 32.203125 
Q 12.09375 23.40625 18.296875 16.953125 
Q 24.5 10.5 33.140625 10.5 
Q 41.796875 10.5 48 16.703125 
Q 54.203125 22.90625 54.203125 32.296875 
z
" id="STXihei-97"/>
     <path d="M 54.09375 59.09375 
L 61 59.09375 
L 61 18.09375 
Q 61 7.203125 59.09375 2.09375 
Q 57.203125 -3 53.59375 -6.390625 
Q 50 -9.796875 44.890625 -11.59375 
Q 39.796875 -13.40625 33.703125 -13.40625 
Q 12.90625 -13.40625 6.296875 3.203125 
L 13.703125 3.203125 
Q 19.5 -7.203125 33.40625 -7.203125 
Q 40.09375 -7.203125 45.046875 -4.59375 
Q 50 -2 52.046875 2.046875 
Q 54.09375 6.09375 54.09375 14.703125 
L 54.09375 17 
Q 50 11.90625 44.390625 9.40625 
Q 38.796875 6.90625 32.59375 6.90625 
Q 21 6.90625 13.296875 14.796875 
Q 5.59375 22.703125 5.59375 33.40625 
Q 5.59375 44.5 13.796875 52.5 
Q 22 60.5 33.640625 60.5 
Q 45.296875 60.5 54.09375 49.90625 
z
M 54.40625 33.40625 
Q 54.40625 42.09375 48.5 48 
Q 42.59375 53.90625 33.90625 53.90625 
Q 24.703125 53.90625 18.59375 47.546875 
Q 12.5 41.203125 12.5 33 
Q 12.5 24.796875 18.390625 19.046875 
Q 24.296875 13.296875 33.5 13.296875 
Q 42.703125 13.296875 48.546875 18.890625 
Q 54.40625 24.5 54.40625 33.40625 
z
" id="STXihei-103"/>
    </defs>
    <g transform="translate(183.856875 35.472)scale(0.12 -0.12)">
     <use xlink:href="#STXihei-50"/>
     <use x="55.399994" xlink:href="#STXihei-48"/>
     <use x="110.799988" xlink:href="#STXihei-49"/>
     <use x="166.199982" xlink:href="#STXihei-54"/>
     <use x="221.599976" xlink:href="#STXihei-26149"/>
     <use x="321.59996" xlink:href="#STXihei-23395"/>
     <use x="421.599945" xlink:href="#STXihei-32"/>
     <use x="446.59993" xlink:href="#STXihei-65"/>
     <use x="520.599915" xlink:href="#STXihei-118"/>
     <use x="575.999908" xlink:href="#STXihei-101"/>
     <use x="640.999893" xlink:href="#STXihei-114"/>
     <use x="671.099884" xlink:href="#STXihei-97"/>
     <use x="739.399872" xlink:href="#STXihei-103"/>
     <use x="806.69986" xlink:href="#STXihei-101"/>
    </g>
   </g>
  </g>
 </g>
 <defs>
  <clipPath id="p079d81f6b5">
   <rect height="266.112" width="357.12" x="57.6" y="41.472"/>
  </clipPath>
 </defs>
</svg>
