<?xml version="1.0" encoding="utf-8" standalone="no"?>
<!DOCTYPE svg PUBLIC "-//W3C//DTD SVG 1.1//EN"
  "http://www.w3.org/Graphics/SVG/1.1/DTD/svg11.dtd">
<!-- Created with matplotlib (https://matplotlib.org/) -->
<svg height="345.6pt" version="1.1" viewBox="0 0 460.8 345.6" width="460.8pt" xmlns="http://www.w3.org/2000/svg" xmlns:xlink="http://www.w3.org/1999/xlink">
 <defs>
  <style type="text/css">
*{stroke-linecap:butt;stroke-linejoin:round;}
  </style>
 </defs>
 <g id="figure_1">
  <g id="patch_1">
   <path d="M 0 345.6 
L 460.8 345.6 
L 460.8 0 
L 0 0 
z
" style="fill:#ffffff;"/>
  </g>
  <g id="axes_1">
   <g id="patch_2">
    <path d="M 57.6 307.584 
L 414.72 307.584 
L 414.72 41.472 
L 57.6 41.472 
z
" style="fill:#ffffff;"/>
   </g>
   <g id="matplotlib.axis_1">
    <g id="xtick_1">
     <g id="line2d_1">
      <path clip-path="url(#p7539da6adb)" d="M 73.507422 307.584 
L 73.507422 41.472 
" style="fill:none;stroke:#b0b0b0;stroke-dasharray:0.8,1.32;stroke-dashoffset:0;stroke-width:0.8;"/>
     </g>
     <g id="line2d_2">
      <defs>
       <path d="M 0 0 
L 0 3.5 
" id="mad7ebd825d" style="stroke:#000000;stroke-width:0.8;"/>
      </defs>
      <g>
       <use style="stroke:#000000;stroke-width:0.8;" x="73.507422" xlink:href="#mad7ebd825d" y="307.584"/>
      </g>
     </g>
     <g id="text_1">
      <!-- 0 -->
      <defs>
       <path d="M 27.296875 4.203125 
Q 15.703125 4.203125 9.453125 13.75 
Q 3.203125 23.296875 3.203125 41.890625 
Q 3.203125 60.5 9.453125 70.046875 
Q 15.703125 79.59375 27.203125 79.59375 
Q 38.703125 79.59375 45.453125 69.84375 
Q 52.203125 60.09375 52.203125 41.890625 
Q 52.203125 23.703125 45.390625 13.953125 
Q 38.59375 4.203125 27.296875 4.203125 
z
M 27.5 72.796875 
Q 19.203125 72.796875 14.59375 64.796875 
Q 10 56.796875 10 41.703125 
Q 10 10.703125 27.5 10.703125 
Q 36 10.703125 40.75 18.84375 
Q 45.5 27 45.5 41.890625 
Q 45.5 56.796875 40.59375 64.796875 
Q 35.703125 72.796875 27.5 72.796875 
z
" id="STXihei-48"/>
      </defs>
      <g transform="translate(70.73711 322.543375)scale(0.1 -0.1)">
       <use xlink:href="#STXihei-48"/>
      </g>
     </g>
    </g>
    <g id="xtick_2">
     <g id="line2d_3">
      <path clip-path="url(#p7539da6adb)" d="M 138.568453 307.584 
L 138.568453 41.472 
" style="fill:none;stroke:#b0b0b0;stroke-dasharray:0.8,1.32;stroke-dashoffset:0;stroke-width:0.8;"/>
     </g>
     <g id="line2d_4">
      <g>
       <use style="stroke:#000000;stroke-width:0.8;" x="138.568453" xlink:href="#mad7ebd825d" y="307.584"/>
      </g>
     </g>
     <g id="text_2">
      <!-- 200 -->
      <defs>
       <path d="M 11.59375 55.296875 
L 4.703125 55.296875 
Q 5.203125 66.296875 12 72.9375 
Q 18.796875 79.59375 28.4375 79.59375 
Q 38.09375 79.59375 44.4375 73.34375 
Q 50.796875 67.09375 50.796875 58.09375 
Q 50.796875 51.40625 47.25 45.703125 
Q 43.703125 40 36.5 32.203125 
L 18.59375 12.90625 
L 51.796875 12.90625 
L 51.796875 6 
L 3 6 
L 30.40625 35.59375 
Q 37.59375 43.40625 40.6875 47.90625 
Q 43.796875 52.40625 43.796875 58.203125 
Q 43.796875 64 39.25 68.390625 
Q 34.703125 72.796875 27.953125 72.796875 
Q 21.203125 72.796875 16.75 68.25 
Q 12.296875 63.703125 11.59375 55.296875 
z
" id="STXihei-50"/>
      </defs>
      <g transform="translate(130.257516 322.543375)scale(0.1 -0.1)">
       <use xlink:href="#STXihei-50"/>
       <use x="55.399994" xlink:href="#STXihei-48"/>
       <use x="110.799988" xlink:href="#STXihei-48"/>
      </g>
     </g>
    </g>
    <g id="xtick_3">
     <g id="line2d_5">
      <path clip-path="url(#p7539da6adb)" d="M 203.629484 307.584 
L 203.629484 41.472 
" style="fill:none;stroke:#b0b0b0;stroke-dasharray:0.8,1.32;stroke-dashoffset:0;stroke-width:0.8;"/>
     </g>
     <g id="line2d_6">
      <g>
       <use style="stroke:#000000;stroke-width:0.8;" x="203.629484" xlink:href="#mad7ebd825d" y="307.584"/>
      </g>
     </g>
     <g id="text_3">
      <!-- 400 -->
      <defs>
       <path d="M 42.59375 79.59375 
L 44 79.59375 
L 44 29.59375 
L 52.703125 29.59375 
L 52.703125 22.703125 
L 44 22.703125 
L 44 6 
L 36.90625 6 
L 36.90625 22.703125 
L 2.5 22.703125 
z
M 36.90625 29.59375 
L 36.90625 59.5 
L 15.703125 29.59375 
z
" id="STXihei-52"/>
      </defs>
      <g transform="translate(195.318547 322.543375)scale(0.1 -0.1)">
       <use xlink:href="#STXihei-52"/>
       <use x="55.399994" xlink:href="#STXihei-48"/>
       <use x="110.799988" xlink:href="#STXihei-48"/>
      </g>
     </g>
    </g>
    <g id="xtick_4">
     <g id="line2d_7">
      <path clip-path="url(#p7539da6adb)" d="M 268.690516 307.584 
L 268.690516 41.472 
" style="fill:none;stroke:#b0b0b0;stroke-dasharray:0.8,1.32;stroke-dashoffset:0;stroke-width:0.8;"/>
     </g>
     <g id="line2d_8">
      <g>
       <use style="stroke:#000000;stroke-width:0.8;" x="268.690516" xlink:href="#mad7ebd825d" y="307.584"/>
      </g>
     </g>
     <g id="text_4">
      <!-- 600 -->
      <defs>
       <path d="M 36.703125 79.59375 
L 42.59375 75.796875 
L 23.203125 46.40625 
Q 27.296875 47.796875 31 47.796875 
Q 39 47.796875 45 41.4375 
Q 51 35.09375 51 25.9375 
Q 51 16.796875 44.453125 10.5 
Q 37.90625 4.203125 28.546875 4.203125 
Q 19.203125 4.203125 12.953125 10.59375 
Q 6.703125 17 6.703125 26.203125 
Q 6.703125 30.59375 8.390625 35.25 
Q 10.09375 39.90625 14.90625 47.09375 
z
M 43.90625 26.296875 
Q 43.90625 32.59375 39.5 37 
Q 35.09375 41.40625 28.796875 41.40625 
Q 22.5 41.40625 18.09375 37 
Q 13.703125 32.59375 13.703125 26.296875 
Q 13.703125 20 18.140625 15.59375 
Q 22.59375 11.203125 28.796875 11.203125 
Q 35 11.203125 39.453125 15.59375 
Q 43.90625 20 43.90625 26.296875 
z
" id="STXihei-54"/>
      </defs>
      <g transform="translate(260.379578 322.543375)scale(0.1 -0.1)">
       <use xlink:href="#STXihei-54"/>
       <use x="55.399994" xlink:href="#STXihei-48"/>
       <use x="110.799988" xlink:href="#STXihei-48"/>
      </g>
     </g>
    </g>
    <g id="xtick_5">
     <g id="line2d_9">
      <path clip-path="url(#p7539da6adb)" d="M 333.751547 307.584 
L 333.751547 41.472 
" style="fill:none;stroke:#b0b0b0;stroke-dasharray:0.8,1.32;stroke-dashoffset:0;stroke-width:0.8;"/>
     </g>
     <g id="line2d_10">
      <g>
       <use style="stroke:#000000;stroke-width:0.8;" x="333.751547" xlink:href="#mad7ebd825d" y="307.584"/>
      </g>
     </g>
     <g id="text_5">
      <!-- 800 -->
      <defs>
       <path d="M 38.40625 45.40625 
Q 52 38.703125 52 26.59375 
Q 52 17 45.25 10.59375 
Q 38.5 4.203125 27.546875 4.203125 
Q 16.59375 4.203125 10 10.59375 
Q 3.40625 17 3.40625 26 
Q 3.40625 38.59375 17.296875 45.40625 
Q 6.796875 51 6.796875 60.90625 
Q 6.796875 68.296875 12.9375 73.9375 
Q 19.09375 79.59375 27.796875 79.59375 
Q 36.5 79.59375 42.59375 74.09375 
Q 48.703125 68.59375 48.703125 60.703125 
Q 48.703125 51.09375 38.40625 45.40625 
z
M 41.5 61 
Q 41.5 65.796875 37.75 69.25 
Q 34 72.703125 27.953125 72.703125 
Q 21.90625 72.703125 18 69.25 
Q 14.09375 65.796875 14.09375 60.890625 
Q 14.09375 56 18.34375 52.140625 
Q 22.59375 48.296875 28 48.296875 
Q 33.40625 48.296875 37.453125 52.09375 
Q 41.5 55.90625 41.5 61 
z
M 44.796875 26.5 
Q 44.796875 32.59375 39.84375 37.1875 
Q 34.90625 41.796875 27.84375 41.796875 
Q 20.796875 41.796875 15.6875 37.046875 
Q 10.59375 32.296875 10.59375 25.84375 
Q 10.59375 19.40625 15.296875 15.203125 
Q 20 11 27.59375 11 
Q 35.203125 11 40 15.5 
Q 44.796875 20 44.796875 26.5 
z
" id="STXihei-56"/>
      </defs>
      <g transform="translate(325.440609 322.543375)scale(0.1 -0.1)">
       <use xlink:href="#STXihei-56"/>
       <use x="55.399994" xlink:href="#STXihei-48"/>
       <use x="110.799988" xlink:href="#STXihei-48"/>
      </g>
     </g>
    </g>
    <g id="xtick_6">
     <g id="line2d_11">
      <path clip-path="url(#p7539da6adb)" d="M 398.812578 307.584 
L 398.812578 41.472 
" style="fill:none;stroke:#b0b0b0;stroke-dasharray:0.8,1.32;stroke-dashoffset:0;stroke-width:0.8;"/>
     </g>
     <g id="line2d_12">
      <g>
       <use style="stroke:#000000;stroke-width:0.8;" x="398.812578" xlink:href="#mad7ebd825d" y="307.584"/>
      </g>
     </g>
     <g id="text_6">
      <!-- 1000 -->
      <defs>
       <path d="M 18.5 77.796875 
L 32.59375 77.796875 
L 32.59375 6 
L 25.5 6 
L 25.5 70.796875 
L 14.203125 70.796875 
z
" id="STXihei-49"/>
      </defs>
      <g transform="translate(387.731328 322.543375)scale(0.1 -0.1)">
       <use xlink:href="#STXihei-49"/>
       <use x="55.399994" xlink:href="#STXihei-48"/>
       <use x="110.799988" xlink:href="#STXihei-48"/>
       <use x="166.199982" xlink:href="#STXihei-48"/>
      </g>
     </g>
    </g>
   </g>
   <g id="matplotlib.axis_2">
    <g id="ytick_1">
     <g id="line2d_13">
      <path clip-path="url(#p7539da6adb)" d="M 57.6 303.332702 
L 414.72 303.332702 
" style="fill:none;stroke:#b0b0b0;stroke-dasharray:0.8,1.32;stroke-dashoffset:0;stroke-width:0.8;"/>
     </g>
     <g id="line2d_14">
      <defs>
       <path d="M 0 0 
L -3.5 0 
" id="m81378388f3" style="stroke:#000000;stroke-width:0.8;"/>
      </defs>
      <g>
       <use style="stroke:#000000;stroke-width:0.8;" x="57.6" xlink:href="#m81378388f3" y="303.332702"/>
      </g>
     </g>
     <g id="text_7">
      <!-- 240 -->
      <g transform="translate(33.978125 307.312389)scale(0.1 -0.1)">
       <use xlink:href="#STXihei-50"/>
       <use x="55.399994" xlink:href="#STXihei-52"/>
       <use x="110.799988" xlink:href="#STXihei-48"/>
      </g>
     </g>
    </g>
    <g id="ytick_2">
     <g id="line2d_15">
      <path clip-path="url(#p7539da6adb)" d="M 57.6 255.940696 
L 414.72 255.940696 
" style="fill:none;stroke:#b0b0b0;stroke-dasharray:0.8,1.32;stroke-dashoffset:0;stroke-width:0.8;"/>
     </g>
     <g id="line2d_16">
      <g>
       <use style="stroke:#000000;stroke-width:0.8;" x="57.6" xlink:href="#m81378388f3" y="255.940696"/>
      </g>
     </g>
     <g id="text_8">
      <!-- 260 -->
      <g transform="translate(33.978125 259.920383)scale(0.1 -0.1)">
       <use xlink:href="#STXihei-50"/>
       <use x="55.399994" xlink:href="#STXihei-54"/>
       <use x="110.799988" xlink:href="#STXihei-48"/>
      </g>
     </g>
    </g>
    <g id="ytick_3">
     <g id="line2d_17">
      <path clip-path="url(#p7539da6adb)" d="M 57.6 208.54869 
L 414.72 208.54869 
" style="fill:none;stroke:#b0b0b0;stroke-dasharray:0.8,1.32;stroke-dashoffset:0;stroke-width:0.8;"/>
     </g>
     <g id="line2d_18">
      <g>
       <use style="stroke:#000000;stroke-width:0.8;" x="57.6" xlink:href="#m81378388f3" y="208.54869"/>
      </g>
     </g>
     <g id="text_9">
      <!-- 280 -->
      <g transform="translate(33.978125 212.528377)scale(0.1 -0.1)">
       <use xlink:href="#STXihei-50"/>
       <use x="55.399994" xlink:href="#STXihei-56"/>
       <use x="110.799988" xlink:href="#STXihei-48"/>
      </g>
     </g>
    </g>
    <g id="ytick_4">
     <g id="line2d_19">
      <path clip-path="url(#p7539da6adb)" d="M 57.6 161.156684 
L 414.72 161.156684 
" style="fill:none;stroke:#b0b0b0;stroke-dasharray:0.8,1.32;stroke-dashoffset:0;stroke-width:0.8;"/>
     </g>
     <g id="line2d_20">
      <g>
       <use style="stroke:#000000;stroke-width:0.8;" x="57.6" xlink:href="#m81378388f3" y="161.156684"/>
      </g>
     </g>
     <g id="text_10">
      <!-- 300 -->
      <defs>
       <path d="M 13.203125 61.203125 
L 5.90625 61.203125 
Q 7.90625 70.09375 13.546875 74.84375 
Q 19.203125 79.59375 27.34375 79.59375 
Q 35.5 79.59375 41.546875 74.1875 
Q 47.59375 68.796875 47.59375 61.09375 
Q 47.59375 51.796875 38.40625 46.40625 
Q 44.703125 43.796875 48.140625 38.640625 
Q 51.59375 33.5 51.59375 27.40625 
Q 51.59375 17.90625 44.640625 11.046875 
Q 37.703125 4.203125 27.09375 4.203125 
Q 17.703125 4.203125 11.59375 9.546875 
Q 5.5 14.90625 3.5 25.203125 
L 10.5 25.203125 
Q 12.40625 18.09375 16.34375 14.640625 
Q 20.296875 11.203125 27.5 11.203125 
Q 34.703125 11.203125 39.59375 15.796875 
Q 44.5 20.40625 44.5 27.203125 
Q 44.5 34 39.09375 38.140625 
Q 33.703125 42.296875 23.40625 42.5 
L 23.40625 49.09375 
Q 30.796875 49.09375 35.4375 52.5 
Q 40.09375 55.90625 40.09375 60.953125 
Q 40.09375 66 36.34375 69.34375 
Q 32.59375 72.703125 27.296875 72.703125 
Q 22 72.703125 18.75 69.84375 
Q 15.5 67 13.203125 61.203125 
z
" id="STXihei-51"/>
      </defs>
      <g transform="translate(33.978125 165.136372)scale(0.1 -0.1)">
       <use xlink:href="#STXihei-51"/>
       <use x="55.399994" xlink:href="#STXihei-48"/>
       <use x="110.799988" xlink:href="#STXihei-48"/>
      </g>
     </g>
    </g>
    <g id="ytick_5">
     <g id="line2d_21">
      <path clip-path="url(#p7539da6adb)" d="M 57.6 113.764678 
L 414.72 113.764678 
" style="fill:none;stroke:#b0b0b0;stroke-dasharray:0.8,1.32;stroke-dashoffset:0;stroke-width:0.8;"/>
     </g>
     <g id="line2d_22">
      <g>
       <use style="stroke:#000000;stroke-width:0.8;" x="57.6" xlink:href="#m81378388f3" y="113.764678"/>
      </g>
     </g>
     <g id="text_11">
      <!-- 320 -->
      <g transform="translate(33.978125 117.744366)scale(0.1 -0.1)">
       <use xlink:href="#STXihei-51"/>
       <use x="55.399994" xlink:href="#STXihei-50"/>
       <use x="110.799988" xlink:href="#STXihei-48"/>
      </g>
     </g>
    </g>
    <g id="ytick_6">
     <g id="line2d_23">
      <path clip-path="url(#p7539da6adb)" d="M 57.6 66.372672 
L 414.72 66.372672 
" style="fill:none;stroke:#b0b0b0;stroke-dasharray:0.8,1.32;stroke-dashoffset:0;stroke-width:0.8;"/>
     </g>
     <g id="line2d_24">
      <g>
       <use style="stroke:#000000;stroke-width:0.8;" x="57.6" xlink:href="#m81378388f3" y="66.372672"/>
      </g>
     </g>
     <g id="text_12">
      <!-- 340 -->
      <g transform="translate(33.978125 70.35236)scale(0.1 -0.1)">
       <use xlink:href="#STXihei-51"/>
       <use x="55.399994" xlink:href="#STXihei-52"/>
       <use x="110.799988" xlink:href="#STXihei-48"/>
      </g>
     </g>
    </g>
   </g>
   <g id="line2d_25">
    <path clip-path="url(#p7539da6adb)" d="M 73.832727 92.143915 
L 74.158032 68.595093 
L 74.483338 58.660433 
L 74.808643 53.980104 
L 75.133948 53.568 
L 75.459253 54.877903 
L 76.109863 58.792895 
L 76.760474 63.326043 
L 77.736389 69.625354 
L 78.386999 73.481473 
L 79.68822 78.971293 
L 81.640051 84.755472 
L 83.917187 89.965649 
L 84.242492 90.215855 
L 84.893103 91.128372 
L 85.543713 91.834837 
L 85.869018 91.864273 
L 86.194323 92.526584 
L 86.519628 92.688482 
L 86.844934 92.982842 
L 87.495544 94.116129 
L 87.820849 94.189719 
L 88.146154 94.572388 
L 88.471459 94.498798 
L 88.796764 95.028646 
L 89.77268 95.852855 
L 90.097985 95.440751 
L 90.42329 95.720393 
L 90.748595 96.382703 
L 91.073901 96.206087 
L 91.724511 96.897834 
L 92.049816 97.045014 
L 93.351037 98.237173 
L 93.676342 98.619842 
L 94.001647 98.443225 
L 94.326952 98.413789 
L 95.302868 99.473486 
L 95.953478 99.37046 
L 96.604088 100.106361 
L 97.254698 100.165233 
L 97.905309 101.00416 
L 98.230614 100.93057 
L 98.555919 101.22493 
L 98.881224 101.121904 
L 99.206529 101.460418 
L 99.531835 101.416264 
L 100.833055 102.843912 
L 101.15836 103.0794 
L 101.483666 103.064682 
L 102.459581 103.741711 
L 102.784886 103.638684 
L 103.110191 103.712275 
L 104.411412 105.125204 
L 105.062022 105.52259 
L 105.387327 105.331256 
L 105.712633 105.772796 
L 106.363243 105.964131 
L 106.688548 105.875823 
L 107.339158 106.538133 
L 107.664463 106.464543 
L 107.989769 106.685313 
L 108.315074 106.538133 
L 108.640379 106.950238 
L 108.965684 106.788339 
L 109.290989 106.449825 
L 109.616294 106.994392 
L 110.266905 107.259316 
L 110.59221 107.421214 
L 110.917515 107.45065 
L 111.24282 107.833318 
L 111.568125 107.921627 
L 111.89343 107.848037 
L 112.218736 108.289577 
L 112.544041 108.422039 
L 113.194651 109.15794 
L 114.170567 108.951888 
L 114.821177 109.511172 
L 115.146482 109.408146 
L 115.471787 109.15794 
L 116.122398 109.702506 
L 117.098313 109.584762 
L 117.423618 109.834968 
L 117.748923 109.74666 
L 118.074228 109.982149 
L 118.399534 110.026303 
L 119.050144 110.776921 
L 119.375449 111.027128 
L 120.026059 111.071282 
L 121.001975 111.704156 
L 121.652585 111.630566 
L 121.97789 111.792464 
L 122.303195 111.792464 
L 122.953806 112.086825 
L 123.279111 112.704981 
L 123.604416 112.734417 
L 124.255026 113.117086 
L 124.905637 113.74996 
L 125.230942 113.735242 
L 125.556247 114.059039 
L 126.206857 114.176783 
L 126.532163 113.985448 
L 126.857468 113.985448 
L 127.182773 113.74996 
L 127.508078 113.97073 
L 127.833383 114.397553 
L 128.483993 114.809657 
L 129.134604 115.148172 
L 129.785214 115.486686 
L 130.110519 116.134279 
L 130.76113 115.869354 
L 134.014181 117.414746 
L 134.339486 117.709106 
L 134.664791 117.444182 
L 135.640707 118.356699 
L 135.966012 118.12121 
L 136.291317 118.106492 
L 136.616622 117.856286 
L 136.941927 117.782696 
L 137.592538 118.135928 
L 137.917843 118.224237 
L 138.243148 118.577469 
L 138.568453 118.386135 
L 138.893758 118.842393 
L 139.219064 118.768803 
L 139.544369 119.019009 
L 139.869674 119.004291 
L 140.194979 119.431114 
L 140.520284 119.283934 
L 140.845589 119.31337 
L 141.170895 119.563576 
L 141.4962 119.519422 
L 141.821505 119.225062 
L 142.472115 119.431114 
L 143.773336 119.990398 
L 144.098641 120.211168 
L 144.423946 119.946244 
L 144.749251 120.093424 
L 145.074556 119.90209 
L 145.399862 120.240604 
L 146.050472 119.97568 
L 146.375777 120.255323 
L 146.701082 120.682145 
L 147.026387 120.917633 
L 147.351692 121.403328 
L 147.676998 121.373892 
L 148.002303 121.992048 
L 148.652913 122.301126 
L 148.978218 122.315844 
L 149.628829 121.918458 
L 150.604744 122.05092 
L 150.930049 122.1981 
L 151.58066 122.860411 
L 152.23127 123.272515 
L 153.857796 123.493286 
L 154.833711 123.861236 
L 155.159016 123.8318 
L 155.484321 123.920108 
L 155.809627 124.214468 
L 156.134932 124.19975 
L 156.460237 124.538265 
L 156.785542 124.626573 
L 157.110847 124.891497 
L 157.436152 125.318319 
L 158.086763 124.965087 
L 159.062678 125.009241 
L 159.387983 125.333037 
L 160.689204 125.671552 
L 161.014509 125.951194 
L 161.339814 126.05422 
L 162.31573 126.113092 
L 162.641035 125.83345 
L 163.291645 125.862886 
L 164.267561 126.142528 
L 164.592866 126.039502 
L 165.243476 126.333862 
L 165.568781 126.363298 
L 165.894086 126.2014 
L 166.544697 126.2014 
L 166.870002 125.921758 
L 167.195307 125.877604 
L 167.520612 126.068938 
L 167.845917 125.818732 
L 168.171222 125.75986 
L 168.496528 125.951194 
L 168.821833 125.995348 
L 169.147138 126.186682 
L 169.797748 126.039502 
L 170.123053 126.12781 
L 170.448359 125.936476 
L 170.773664 126.27499 
L 171.424274 126.466325 
L 171.749579 126.790121 
L 172.074884 126.775403 
L 172.400189 126.893147 
L 172.725495 126.672377 
L 173.0508 126.628223 
L 173.376105 126.392734 
L 173.70141 126.436888 
L 174.026715 126.657659 
L 174.35202 126.157246 
L 175.002631 126.12781 
L 175.653241 125.951194 
L 175.978546 126.27499 
L 176.303851 126.157246 
L 177.279767 126.378016 
L 177.605072 126.27499 
L 177.930377 126.451606 
L 178.255682 126.171964 
L 178.906293 126.613505 
L 179.231598 126.304426 
L 179.556903 126.451606 
L 180.207513 126.260272 
L 181.508734 127.231661 
L 181.834039 127.275815 
L 182.484649 127.673202 
L 182.809954 127.717356 
L 183.460565 128.482692 
L 184.111175 129.277465 
L 184.43648 129.674852 
L 185.412396 130.086956 
L 185.737701 130.293008 
L 186.063006 130.719831 
L 186.388311 130.646241 
L 186.713616 130.955319 
L 187.038921 130.602087 
L 187.364227 130.49906 
L 187.689532 130.660959 
L 188.014837 130.646241 
L 189.641363 131.308551 
L 190.617278 131.897272 
L 192.243804 132.309376 
L 192.569109 132.13276 
L 193.219719 132.35353 
L 193.545025 132.20635 
L 193.87033 132.250504 
L 194.195635 132.544864 
L 194.52094 132.544864 
L 194.846245 132.191632 
L 195.822161 132.795071 
L 196.147466 132.5743 
L 196.472771 132.750917 
L 197.448686 132.868661 
L 197.773992 133.045277 
L 198.099297 132.795071 
L 198.424602 133.001123 
L 198.749907 132.986405 
L 199.075212 133.118867 
L 199.400517 133.001123 
L 201.027043 133.854768 
L 201.352348 133.648715 
L 201.677653 133.825332 
L 202.002959 133.825332 
L 202.328264 134.046102 
L 202.653569 134.075538 
L 202.978874 134.237436 
L 203.304179 134.208 
L 203.629484 134.06082 
L 204.280095 134.222718 
L 204.6054 134.340462 
L 204.930705 134.826157 
L 205.25601 134.57595 
L 205.581315 134.546514 
L 206.231926 134.782003 
L 206.882536 134.634822 
L 207.207841 134.664258 
L 207.858451 134.369898 
L 208.509062 134.855593 
L 208.834367 134.708412 
L 209.159672 134.72313 
L 209.810282 135.429595 
L 210.135588 135.282415 
L 210.786198 135.826982 
L 211.111503 135.635647 
L 211.436808 135.797546 
L 211.762113 135.650365 
L 212.087418 135.76811 
L 212.412724 135.473749 
L 213.063334 135.650365 
L 213.388639 135.370723 
L 213.713944 135.576775 
L 214.039249 135.341287 
L 214.364555 134.943901 
L 215.34047 135.517903 
L 215.665775 135.532621 
L 216.316385 136.047752 
L 217.617606 135.959444 
L 217.942911 136.50401 
L 218.268216 136.459856 
L 218.593522 136.607036 
L 219.569437 138.049402 
L 219.894742 138.13771 
L 220.220047 138.593968 
L 220.545353 138.299608 
L 220.870658 138.490942 
L 221.195963 139.006073 
L 221.846573 139.315151 
L 222.171878 139.153253 
L 222.497183 139.388741 
L 222.822489 139.432895 
L 223.147794 139.948026 
L 223.798404 140.315976 
L 224.123709 140.198232 
L 224.449014 140.315976 
L 225.099625 140.934133 
L 225.42493 140.978287 
L 226.400845 141.581725 
L 226.72615 141.434545 
L 227.051456 141.758341 
L 228.352676 141.802495 
L 228.677981 142.14101 
L 229.003287 142.037984 
L 229.653897 142.405934 
L 229.979202 142.199882 
L 231.280423 142.332344 
L 231.605728 142.65614 
L 232.581643 142.979936 
L 232.906948 142.788602 
L 234.533474 142.759166 
L 235.184085 143.347887 
L 235.50939 143.495067 
L 235.834695 143.833581 
L 236.16 143.524503 
L 236.485305 143.598093 
L 236.81061 143.951325 
L 237.135915 143.774709 
L 237.786526 143.804145 
L 238.111831 143.642247 
L 238.437136 144.275122 
L 238.762441 143.966043 
L 239.087746 144.304558 
L 239.413052 144.230968 
L 239.738357 144.039634 
L 240.388967 144.157378 
L 240.714272 144.495892 
L 241.039577 144.451738 
L 241.364882 144.525328 
L 241.690188 144.333994 
L 242.015493 144.701944 
L 242.991408 144.716662 
L 243.316713 145.040458 
L 243.967324 144.996304 
L 244.943239 144.95215 
L 245.268544 145.114049 
L 245.59385 145.143485 
L 246.569765 145.997129 
L 246.89507 145.835231 
L 247.220375 146.041283 
L 247.54568 145.967693 
L 248.196291 146.276772 
L 248.521596 146.100156 
L 248.846901 146.232618 
L 249.172206 146.026565 
L 249.822817 146.262054 
L 250.473427 146.262054 
L 250.798732 146.497542 
L 251.124037 146.43867 
L 252.750563 147.218725 
L 253.075868 147.130416 
L 253.401173 147.468931 
L 253.726478 147.601393 
L 254.051784 147.586675 
L 256.32892 148.80827 
L 256.654225 148.970168 
L 256.97953 149.382273 
L 257.304835 149.235093 
L 257.63014 149.529453 
L 257.955445 149.470581 
L 258.280751 149.764941 
L 258.606056 149.617761 
L 258.931361 150.074019 
L 259.256666 149.809095 
L 260.232582 150.412534 
L 260.883192 150.603868 
L 262.184412 151.722437 
L 262.835023 151.869617 
L 263.160328 151.899053 
L 264.136243 152.296439 
L 264.461549 152.281721 
L 265.112159 152.841006 
L 265.437464 152.708544 
L 265.762769 152.782134 
L 266.088074 152.649672 
L 266.413379 152.355312 
L 266.738685 152.723262 
L 267.389295 152.693826 
L 268.36521 153.370855 
L 269.015821 153.356137 
L 269.341126 153.782959 
L 269.666431 153.591625 
L 270.317041 153.635779 
L 270.967652 154.195063 
L 271.618262 154.44527 
L 271.943567 154.9604 
L 272.268872 154.857374 
L 272.594177 155.078144 
L 272.919483 154.9604 
L 273.244788 155.313632 
L 273.570093 155.431377 
L 273.895398 155.828763 
L 274.220703 155.961225 
L 274.546008 155.769891 
L 274.871314 155.843481 
L 275.196619 156.329175 
L 275.847229 156.947332 
L 276.172534 156.976768 
L 276.497839 157.315282 
L 276.823144 157.447744 
L 277.14845 157.418308 
L 277.79906 157.653797 
L 278.124365 157.683233 
L 278.44967 157.594925 
L 279.100281 157.668515 
L 279.425586 157.918721 
L 279.750891 157.904003 
L 280.076196 157.771541 
L 280.726806 158.198363 
L 281.052111 157.992311 
L 281.377417 158.316107 
L 281.702722 158.419133 
L 282.028027 158.713494 
L 282.353332 158.74293 
L 282.678637 158.433851 
L 283.329248 158.654622 
L 283.654553 158.551596 
L 284.305163 158.904828 
L 284.630468 158.934264 
L 284.955773 158.654622 
L 286.256994 159.33165 
L 286.582299 159.640729 
L 286.907604 159.596575 
L 287.558215 159.949807 
L 287.88352 159.787909 
L 288.208825 159.817345 
L 288.53413 160.126423 
L 288.859435 160.155859 
L 289.18474 160.435501 
L 289.835351 160.5974 
L 290.485961 160.980068 
L 290.811266 160.906478 
L 291.461876 161.230274 
L 291.787182 161.127248 
L 292.437792 161.40689 
L 293.088402 161.215556 
L 293.739013 161.156684 
L 294.064318 160.847606 
L 295.365538 160.774016 
L 295.690844 161.083094 
L 296.016149 161.127248 
L 296.341454 160.994786 
L 296.992064 161.156684 
L 297.317369 161.421608 
L 298.293285 161.392172 
L 299.2692 162.216381 
L 299.919811 162.245817 
L 300.570421 162.81982 
L 300.895726 162.687358 
L 301.871641 163.11418 
L 302.196947 162.952282 
L 302.847557 163.173052 
L 303.498167 163.379104 
L 303.823472 163.276078 
L 304.148778 163.437976 
L 304.799388 163.511566 
L 305.449998 163.879517 
L 307.401829 164.527109 
L 307.727134 164.453519 
L 308.377745 164.556545 
L 308.70305 164.89506 
L 309.028355 164.777316 
L 309.35366 164.96865 
L 309.678965 164.998086 
L 310.00427 165.145266 
L 310.329576 164.953932 
L 310.980186 165.204138 
L 311.305491 165.04224 
L 311.630796 165.366036 
L 312.281406 165.719268 
L 312.606712 165.572088 
L 313.257322 166.116655 
L 313.907932 166.160809 
L 314.558543 166.425733 
L 315.209153 166.175527 
L 315.859763 166.249117 
L 316.185068 166.057783 
L 316.510373 166.219681 
L 317.160984 166.337425 
L 317.486289 166.116655 
L 318.78751 166.381579 
L 319.112815 166.263835 
L 319.43812 166.337425 
L 319.763425 166.263835 
L 320.08873 166.778966 
L 320.73934 166.734811 
L 321.389951 167.26466 
L 323.992392 167.794508 
L 324.317697 167.956407 
L 324.643002 167.868099 
L 325.293613 168.074151 
L 325.618918 168.000561 
L 326.269528 168.133023 
L 327.245444 168.736461 
L 327.570749 168.736461 
L 327.896054 169.030822 
L 328.221359 169.001386 
L 328.546664 169.295746 
L 328.871969 169.354618 
L 329.197275 169.648978 
L 329.847885 169.70785 
L 330.8238 170.473187 
L 331.149105 170.340725 
L 333.100936 171.503448 
L 333.751547 171.356268 
L 334.076852 171.78309 
L 335.378073 172.474837 
L 335.703378 173.019404 
L 336.679293 173.254892 
L 337.004598 173.431508 
L 337.329903 173.328482 
L 337.655209 173.622842 
L 337.980514 173.63756 
L 338.305819 173.85833 
L 338.631124 173.549252 
L 339.60704 174.417615 
L 339.932345 174.344025 
L 340.582955 174.594231 
L 341.884176 175.19767 
L 342.209481 175.462594 
L 342.534786 176.051314 
L 342.860091 176.360393 
L 343.510701 176.257367 
L 343.836007 176.610599 
L 344.486617 176.978549 
L 344.811922 177.449526 
L 345.137227 177.508398 
L 345.787837 177.86163 
L 346.113143 177.891066 
L 346.438448 178.273735 
L 347.089058 178.700557 
L 347.739668 178.347325 
L 348.064974 178.479787 
L 348.390279 178.435633 
L 348.715584 178.568095 
L 349.366194 179.024353 
L 350.016805 179.009635 
L 350.34211 179.49533 
L 350.667415 179.42174 
L 350.99272 179.671946 
L 351.318025 179.627792 
L 351.968635 179.42174 
L 352.293941 179.289278 
L 352.619246 179.480612 
L 352.944551 179.27456 
L 353.269856 179.20097 
L 353.595161 179.56892 
L 353.920466 179.465894 
L 354.245772 179.49533 
L 354.571077 179.701382 
L 354.896382 179.7161 
L 355.872297 180.452001 
L 356.522908 180.805233 
L 356.848213 180.746361 
L 357.498823 181.261492 
L 358.800044 181.761904 
L 359.450654 182.291753 
L 359.775959 182.247598 
L 360.101264 182.453651 
L 360.42657 182.350625 
L 360.751875 182.571395 
L 361.07718 182.630267 
L 361.402485 182.541959 
L 362.703706 183.101243 
L 363.354316 183.778272 
L 364.004926 183.969606 
L 364.330231 184.322838 
L 364.655537 184.470019 
L 364.980842 184.16094 
L 365.306147 184.587763 
L 365.956757 184.322838 
L 367.583283 185.367817 
L 368.233893 185.323663 
L 368.559198 185.72105 
L 369.209809 186.01541 
L 369.860419 185.971256 
L 372.137555 187.663828 
L 372.788165 187.64911 
L 374.739996 188.635217 
L 375.065302 188.473318 
L 376.041217 189.209219 
L 376.691827 190.01871 
L 377.342438 190.268916 
L 377.667743 190.636867 
L 377.993048 190.769329 
L 378.318353 190.666303 
L 378.968963 190.975381 
L 379.294269 190.857637 
L 379.619574 191.107843 
L 379.944879 190.975381 
L 380.270184 191.048971 
L 380.595489 191.372767 
L 381.246099 191.637692 
L 381.571405 191.902616 
L 382.222015 192.741543 
L 382.54732 192.756261 
L 383.19793 193.124211 
L 383.523236 193.609905 
L 384.499151 194.16919 
L 384.824456 194.213344 
L 385.149761 194.581294 
L 385.475066 194.640166 
L 385.800372 194.919809 
L 386.125677 195.611555 
L 386.450982 195.935352 
L 386.776287 196.568226 
L 387.752203 197.495461 
L 388.402813 198.452132 
L 389.053423 199.070289 
L 390.354644 201.336863 
L 390.679949 202.087482 
L 391.330559 203.176615 
L 391.98117 204.574826 
L 392.63178 206.414578 
L 393.28239 208.4751 
L 393.933001 210.947726 
L 395.234221 218.821864 
L 395.884831 225.798203 
L 396.535442 235.423784 
L 397.186052 249.302871 
L 397.836662 267.773979 
L 398.487273 295.488 
L 398.487273 295.488 
" style="fill:none;stroke:#4bacc6;stroke-linecap:square;stroke-width:2;"/>
   </g>
   <g id="patch_3">
    <path d="M 57.6 307.584 
L 57.6 41.472 
" style="fill:none;stroke:#000000;stroke-linecap:square;stroke-linejoin:miter;stroke-width:0.8;"/>
   </g>
   <g id="patch_4">
    <path d="M 414.72 307.584 
L 414.72 41.472 
" style="fill:none;stroke:#000000;stroke-linecap:square;stroke-linejoin:miter;stroke-width:0.8;"/>
   </g>
   <g id="patch_5">
    <path d="M 57.6 307.584 
L 414.72 307.584 
" style="fill:none;stroke:#000000;stroke-linecap:square;stroke-linejoin:miter;stroke-width:0.8;"/>
   </g>
   <g id="patch_6">
    <path d="M 57.6 41.472 
L 414.72 41.472 
" style="fill:none;stroke:#000000;stroke-linecap:square;stroke-linejoin:miter;stroke-width:0.8;"/>
   </g>
   <g id="text_13">
    <!-- 2017秋季 Average -->
    <defs>
     <path d="M 7.203125 77.796875 
L 52.703125 77.796875 
L 14.296875 4.203125 
L 8.40625 7.203125 
L 41.59375 71 
L 7.203125 71 
z
" id="STXihei-55"/>
     <path d="M 69.703125 23.59375 
Q 64.796875 5.5 44.203125 -9.09375 
Q 42.09375 -5.703125 38.90625 -4.59375 
Q 52 3 58.390625 12.390625 
Q 64.796875 21.796875 65.9375 34.796875 
Q 67.09375 47.796875 67.09375 59.6875 
Q 67.09375 71.59375 65.5 79.5 
Q 71.203125 78.796875 74 78.703125 
Q 74.90625 78.703125 74.90625 78.09375 
Q 74.90625 77.5 74.09375 76.796875 
Q 73.296875 76.09375 73.046875 73.640625 
Q 72.796875 71.203125 72.59375 63 
L 72.40625 45.203125 
Q 72.40625 37.5 71.40625 31.703125 
Q 81.203125 6.90625 97 -2.796875 
Q 93.796875 -4.5 91.90625 -7.796875 
Q 76.09375 6 69.703125 23.59375 
z
M 23.703125 67.40625 
Q 15.40625 65.59375 8.5 64.703125 
Q 8.203125 68.09375 6.296875 70.5 
Q 27.5 71.09375 39.796875 78.59375 
Q 41.203125 75.59375 43.90625 73.59375 
Q 44.703125 73 44.703125 72.34375 
Q 44.703125 71.703125 43.90625 71.703125 
L 42.796875 71.796875 
Q 40.90625 71.796875 29.5 68.90625 
L 29.5 51.203125 
Q 39.203125 51.203125 45.5 52 
L 45.5 45.59375 
Q 39.203125 46.40625 29.5 46.40625 
L 29.5 41.296875 
Q 39 34 46.09375 27.09375 
L 41.296875 22.40625 
Q 36.90625 28.703125 29.5 35.5 
L 29.5 7.90625 
Q 29.5 0.40625 30.296875 -9.296875 
L 22.796875 -9.296875 
Q 23.703125 -0.296875 23.703125 7.90625 
L 23.703125 34.90625 
Q 18.5 23.296875 8.59375 9.203125 
Q 6.5 12.203125 2.59375 13.203125 
Q 17.296875 28.203125 23.203125 46.40625 
Q 12.40625 46.40625 5.703125 45.59375 
L 5.703125 52 
Q 12.59375 51.203125 23.703125 51.203125 
z
M 87.40625 62.296875 
Q 90.796875 59.90625 93.90625 59.203125 
Q 95.40625 58.90625 95.40625 58.15625 
Q 95.40625 57.40625 94.25 56.546875 
Q 93.09375 55.703125 90.6875 51 
Q 88.296875 46.296875 82 32.09375 
Q 80.09375 33.90625 77 34.703125 
Q 85 48.5 87.40625 62.296875 
z
M 57.296875 61.09375 
Q 57.40625 47.5 54.5 32.296875 
L 48.296875 33.40625 
Q 51.5 42.703125 51.5 55.09375 
Q 51.5 58.203125 51.296875 61.09375 
z
" id="STXihei-31179"/>
     <path d="M 47.5 70.296875 
Q 33.09375 69.5 21.90625 69.296875 
Q 21.5 72.296875 19 75.703125 
Q 29.703125 74.796875 35.703125 74.796875 
Q 41.703125 74.796875 54.890625 75.5 
Q 68.09375 76.203125 78 79.296875 
Q 78.59375 76.203125 79.796875 74.59375 
Q 81 73 81 72.5 
Q 81 71.5 79 71.84375 
Q 77 72.203125 74.703125 72.203125 
Q 72.40625 72.203125 67.25 71.59375 
Q 62.09375 71 53.296875 70.59375 
L 53.296875 60.90625 
Q 79.203125 60.90625 92.09375 61.59375 
L 92.09375 55.59375 
Q 80.5 56.203125 61.703125 56.203125 
Q 76.796875 43.5 96.5 38.40625 
Q 93.40625 35.796875 91.796875 32.40625 
Q 67.703125 42.703125 55.203125 56.203125 
L 53.296875 56.203125 
L 53.296875 48.203125 
Q 53.296875 43.59375 53.59375 37.296875 
L 47 37.296875 
Q 47.5 44.40625 47.5 48.203125 
L 47.5 56.203125 
L 45.703125 56.203125 
Q 37.59375 47.40625 30.25 41.953125 
Q 22.90625 36.5 9 29.90625 
Q 7.703125 33.296875 3.703125 36.09375 
Q 24.203125 41.09375 39.203125 56.203125 
Q 20.40625 56.09375 8.5 55.59375 
L 8.5 61.59375 
Q 21.40625 60.90625 47.5 60.90625 
z
M 49.09375 13.296875 
Q 23.5 13.296875 12.203125 12.40625 
L 12.203125 18.90625 
Q 26 18 49.09375 18 
L 49.09375 22.203125 
L 63.796875 30.5 
L 42.59375 30.5 
Q 31.796875 30.5 23.90625 30 
L 23.90625 35.59375 
Q 33 35.203125 50.890625 35.203125 
Q 68.796875 35.203125 77.59375 35.59375 
L 77.59375 30.90625 
Q 73.703125 31.09375 68.703125 28.09375 
L 54.90625 19.90625 
L 54.90625 18 
Q 76.703125 18 90.09375 18.90625 
L 90.09375 12.5 
Q 80.703125 13.296875 54.90625 13.296875 
L 54.90625 2.203125 
Q 54.90625 -3.09375 53.703125 -5.390625 
Q 52.5 -7.703125 48.546875 -8.640625 
Q 44.59375 -9.59375 35.203125 -10 
Q 35.09375 -6.09375 32.296875 -2.5 
Q 38 -3.203125 41.59375 -3.203125 
Q 45.203125 -3.203125 47.140625 -2.390625 
Q 49.09375 -1.59375 49.09375 0.90625 
z
" id="STXihei-23395"/>
     <path id="STXihei-32"/>
     <path d="M 38.09375 80.703125 
L 71.59375 6 
L 63.90625 6 
L 52.59375 30.5 
L 21.59375 30.5 
L 10.40625 6 
L 2.40625 6 
L 36.296875 80.703125 
z
M 37.203125 64.796875 
L 24.90625 37.796875 
L 49.40625 37.796875 
z
" id="STXihei-65"/>
     <path d="M 2.59375 59.09375 
L 9.90625 59.09375 
L 27.59375 18.703125 
L 45.296875 59.09375 
L 52.59375 59.09375 
L 28.296875 4.203125 
L 27.09375 4.203125 
z
" id="STXihei-118"/>
     <path d="M 52.296875 23.203125 
L 58.09375 20.203125 
Q 49.5 4.203125 32.703125 4.203125 
Q 20.703125 4.203125 12.890625 12.453125 
Q 5.09375 20.703125 5.09375 32.296875 
Q 5.09375 43.90625 12.9375 52.203125 
Q 20.796875 60.5 32.34375 60.5 
Q 43.90625 60.5 51.75 52.796875 
Q 59.59375 45.09375 59.90625 31.796875 
L 12.09375 31.796875 
Q 12.40625 22.203125 18.15625 16.34375 
Q 23.90625 10.5 32.09375 10.5 
Q 45.59375 10.5 52.296875 23.203125 
z
M 52.296875 37.703125 
Q 50.90625 45.296875 45.296875 49.59375 
Q 39.703125 53.90625 32.40625 53.90625 
Q 17.40625 53.90625 12.796875 37.703125 
z
" id="STXihei-101"/>
     <path d="M 5 59.09375 
L 12 59.09375 
L 12 51.40625 
Q 14.796875 56.09375 17.4375 58.296875 
Q 20.09375 60.5 23.34375 60.5 
Q 26.59375 60.5 29.90625 58.703125 
L 26.296875 52.90625 
Q 24.796875 53.796875 23.203125 53.796875 
Q 20.09375 53.796875 17.34375 50.59375 
Q 14.59375 47.40625 13.296875 42.34375 
Q 12 37.296875 12 24 
L 12 6 
L 5 6 
z
" id="STXihei-114"/>
     <path d="M 60.5 59.09375 
L 60.5 6 
L 53.796875 6 
L 53.796875 15.09375 
Q 44.703125 4.203125 33 4.203125 
Q 21.296875 4.203125 13.25 12.546875 
Q 5.203125 20.90625 5.203125 32.453125 
Q 5.203125 44 13.296875 52.25 
Q 21.40625 60.5 32.703125 60.5 
Q 45.703125 60.5 53.796875 49.40625 
L 53.796875 59.09375 
z
M 54.203125 32.296875 
Q 54.203125 41.40625 48.09375 47.65625 
Q 42 53.90625 33.140625 53.90625 
Q 24.296875 53.90625 18.1875 47.453125 
Q 12.09375 41 12.09375 32.203125 
Q 12.09375 23.40625 18.296875 16.953125 
Q 24.5 10.5 33.140625 10.5 
Q 41.796875 10.5 48 16.703125 
Q 54.203125 22.90625 54.203125 32.296875 
z
" id="STXihei-97"/>
     <path d="M 54.09375 59.09375 
L 61 59.09375 
L 61 18.09375 
Q 61 7.203125 59.09375 2.09375 
Q 57.203125 -3 53.59375 -6.390625 
Q 50 -9.796875 44.890625 -11.59375 
Q 39.796875 -13.40625 33.703125 -13.40625 
Q 12.90625 -13.40625 6.296875 3.203125 
L 13.703125 3.203125 
Q 19.5 -7.203125 33.40625 -7.203125 
Q 40.09375 -7.203125 45.046875 -4.59375 
Q 50 -2 52.046875 2.046875 
Q 54.09375 6.09375 54.09375 14.703125 
L 54.09375 17 
Q 50 11.90625 44.390625 9.40625 
Q 38.796875 6.90625 32.59375 6.90625 
Q 21 6.90625 13.296875 14.796875 
Q 5.59375 22.703125 5.59375 33.40625 
Q 5.59375 44.5 13.796875 52.5 
Q 22 60.5 33.640625 60.5 
Q 45.296875 60.5 54.09375 49.90625 
z
M 54.40625 33.40625 
Q 54.40625 42.09375 48.5 48 
Q 42.59375 53.90625 33.90625 53.90625 
Q 24.703125 53.90625 18.59375 47.546875 
Q 12.5 41.203125 12.5 33 
Q 12.5 24.796875 18.390625 19.046875 
Q 24.296875 13.296875 33.5 13.296875 
Q 42.703125 13.296875 48.546875 18.890625 
Q 54.40625 24.5 54.40625 33.40625 
z
" id="STXihei-103"/>
    </defs>
    <g transform="translate(183.856875 35.472)scale(0.12 -0.12)">
     <use xlink:href="#STXihei-50"/>
     <use x="55.399994" xlink:href="#STXihei-48"/>
     <use x="110.799988" xlink:href="#STXihei-49"/>
     <use x="166.199982" xlink:href="#STXihei-55"/>
     <use x="221.599976" xlink:href="#STXihei-31179"/>
     <use x="321.59996" xlink:href="#STXihei-23395"/>
     <use x="421.599945" xlink:href="#STXihei-32"/>
     <use x="446.59993" xlink:href="#STXihei-65"/>
     <use x="520.599915" xlink:href="#STXihei-118"/>
     <use x="575.999908" xlink:href="#STXihei-101"/>
     <use x="640.999893" xlink:href="#STXihei-114"/>
     <use x="671.099884" xlink:href="#STXihei-97"/>
     <use x="739.399872" xlink:href="#STXihei-103"/>
     <use x="806.69986" xlink:href="#STXihei-101"/>
    </g>
   </g>
  </g>
 </g>
 <defs>
  <clipPath id="p7539da6adb">
   <rect height="266.112" width="357.12" x="57.6" y="41.472"/>
  </clipPath>
 </defs>
</svg>
