<?xml version="1.0" encoding="utf-8" standalone="no"?>
<!DOCTYPE svg PUBLIC "-//W3C//DTD SVG 1.1//EN"
  "http://www.w3.org/Graphics/SVG/1.1/DTD/svg11.dtd">
<!-- Created with matplotlib (https://matplotlib.org/) -->
<svg height="345.6pt" version="1.1" viewBox="0 0 460.8 345.6" width="460.8pt" xmlns="http://www.w3.org/2000/svg" xmlns:xlink="http://www.w3.org/1999/xlink">
 <defs>
  <style type="text/css">
*{stroke-linecap:butt;stroke-linejoin:round;}
  </style>
 </defs>
 <g id="figure_1">
  <g id="patch_1">
   <path d="M 0 345.6 
L 460.8 345.6 
L 460.8 0 
L 0 0 
z
" style="fill:#ffffff;"/>
  </g>
  <g id="axes_1">
   <g id="patch_2">
    <path d="M 57.6 307.584 
L 414.72 307.584 
L 414.72 41.472 
L 57.6 41.472 
z
" style="fill:#ffffff;"/>
   </g>
   <g id="matplotlib.axis_1">
    <g id="xtick_1">
     <g id="line2d_1">
      <path clip-path="url(#pcbec34cf4a)" d="M 73.507422 307.584 
L 73.507422 41.472 
" style="fill:none;stroke:#b0b0b0;stroke-dasharray:0.8,1.32;stroke-dashoffset:0;stroke-width:0.8;"/>
     </g>
     <g id="line2d_2">
      <defs>
       <path d="M 0 0 
L 0 3.5 
" id="m46b0181621" style="stroke:#000000;stroke-width:0.8;"/>
      </defs>
      <g>
       <use style="stroke:#000000;stroke-width:0.8;" x="73.507422" xlink:href="#m46b0181621" y="307.584"/>
      </g>
     </g>
     <g id="text_1">
      <!-- 0 -->
      <defs>
       <path d="M 27.296875 4.203125 
Q 15.703125 4.203125 9.453125 13.75 
Q 3.203125 23.296875 3.203125 41.890625 
Q 3.203125 60.5 9.453125 70.046875 
Q 15.703125 79.59375 27.203125 79.59375 
Q 38.703125 79.59375 45.453125 69.84375 
Q 52.203125 60.09375 52.203125 41.890625 
Q 52.203125 23.703125 45.390625 13.953125 
Q 38.59375 4.203125 27.296875 4.203125 
z
M 27.5 72.796875 
Q 19.203125 72.796875 14.59375 64.796875 
Q 10 56.796875 10 41.703125 
Q 10 10.703125 27.5 10.703125 
Q 36 10.703125 40.75 18.84375 
Q 45.5 27 45.5 41.890625 
Q 45.5 56.796875 40.59375 64.796875 
Q 35.703125 72.796875 27.5 72.796875 
z
" id="STXihei-48"/>
      </defs>
      <g transform="translate(70.73711 322.543375)scale(0.1 -0.1)">
       <use xlink:href="#STXihei-48"/>
      </g>
     </g>
    </g>
    <g id="xtick_2">
     <g id="line2d_3">
      <path clip-path="url(#pcbec34cf4a)" d="M 138.568453 307.584 
L 138.568453 41.472 
" style="fill:none;stroke:#b0b0b0;stroke-dasharray:0.8,1.32;stroke-dashoffset:0;stroke-width:0.8;"/>
     </g>
     <g id="line2d_4">
      <g>
       <use style="stroke:#000000;stroke-width:0.8;" x="138.568453" xlink:href="#m46b0181621" y="307.584"/>
      </g>
     </g>
     <g id="text_2">
      <!-- 200 -->
      <defs>
       <path d="M 11.59375 55.296875 
L 4.703125 55.296875 
Q 5.203125 66.296875 12 72.9375 
Q 18.796875 79.59375 28.4375 79.59375 
Q 38.09375 79.59375 44.4375 73.34375 
Q 50.796875 67.09375 50.796875 58.09375 
Q 50.796875 51.40625 47.25 45.703125 
Q 43.703125 40 36.5 32.203125 
L 18.59375 12.90625 
L 51.796875 12.90625 
L 51.796875 6 
L 3 6 
L 30.40625 35.59375 
Q 37.59375 43.40625 40.6875 47.90625 
Q 43.796875 52.40625 43.796875 58.203125 
Q 43.796875 64 39.25 68.390625 
Q 34.703125 72.796875 27.953125 72.796875 
Q 21.203125 72.796875 16.75 68.25 
Q 12.296875 63.703125 11.59375 55.296875 
z
" id="STXihei-50"/>
      </defs>
      <g transform="translate(130.257516 322.543375)scale(0.1 -0.1)">
       <use xlink:href="#STXihei-50"/>
       <use x="55.399994" xlink:href="#STXihei-48"/>
       <use x="110.799988" xlink:href="#STXihei-48"/>
      </g>
     </g>
    </g>
    <g id="xtick_3">
     <g id="line2d_5">
      <path clip-path="url(#pcbec34cf4a)" d="M 203.629484 307.584 
L 203.629484 41.472 
" style="fill:none;stroke:#b0b0b0;stroke-dasharray:0.8,1.32;stroke-dashoffset:0;stroke-width:0.8;"/>
     </g>
     <g id="line2d_6">
      <g>
       <use style="stroke:#000000;stroke-width:0.8;" x="203.629484" xlink:href="#m46b0181621" y="307.584"/>
      </g>
     </g>
     <g id="text_3">
      <!-- 400 -->
      <defs>
       <path d="M 42.59375 79.59375 
L 44 79.59375 
L 44 29.59375 
L 52.703125 29.59375 
L 52.703125 22.703125 
L 44 22.703125 
L 44 6 
L 36.90625 6 
L 36.90625 22.703125 
L 2.5 22.703125 
z
M 36.90625 29.59375 
L 36.90625 59.5 
L 15.703125 29.59375 
z
" id="STXihei-52"/>
      </defs>
      <g transform="translate(195.318547 322.543375)scale(0.1 -0.1)">
       <use xlink:href="#STXihei-52"/>
       <use x="55.399994" xlink:href="#STXihei-48"/>
       <use x="110.799988" xlink:href="#STXihei-48"/>
      </g>
     </g>
    </g>
    <g id="xtick_4">
     <g id="line2d_7">
      <path clip-path="url(#pcbec34cf4a)" d="M 268.690516 307.584 
L 268.690516 41.472 
" style="fill:none;stroke:#b0b0b0;stroke-dasharray:0.8,1.32;stroke-dashoffset:0;stroke-width:0.8;"/>
     </g>
     <g id="line2d_8">
      <g>
       <use style="stroke:#000000;stroke-width:0.8;" x="268.690516" xlink:href="#m46b0181621" y="307.584"/>
      </g>
     </g>
     <g id="text_4">
      <!-- 600 -->
      <defs>
       <path d="M 36.703125 79.59375 
L 42.59375 75.796875 
L 23.203125 46.40625 
Q 27.296875 47.796875 31 47.796875 
Q 39 47.796875 45 41.4375 
Q 51 35.09375 51 25.9375 
Q 51 16.796875 44.453125 10.5 
Q 37.90625 4.203125 28.546875 4.203125 
Q 19.203125 4.203125 12.953125 10.59375 
Q 6.703125 17 6.703125 26.203125 
Q 6.703125 30.59375 8.390625 35.25 
Q 10.09375 39.90625 14.90625 47.09375 
z
M 43.90625 26.296875 
Q 43.90625 32.59375 39.5 37 
Q 35.09375 41.40625 28.796875 41.40625 
Q 22.5 41.40625 18.09375 37 
Q 13.703125 32.59375 13.703125 26.296875 
Q 13.703125 20 18.140625 15.59375 
Q 22.59375 11.203125 28.796875 11.203125 
Q 35 11.203125 39.453125 15.59375 
Q 43.90625 20 43.90625 26.296875 
z
" id="STXihei-54"/>
      </defs>
      <g transform="translate(260.379578 322.543375)scale(0.1 -0.1)">
       <use xlink:href="#STXihei-54"/>
       <use x="55.399994" xlink:href="#STXihei-48"/>
       <use x="110.799988" xlink:href="#STXihei-48"/>
      </g>
     </g>
    </g>
    <g id="xtick_5">
     <g id="line2d_9">
      <path clip-path="url(#pcbec34cf4a)" d="M 333.751547 307.584 
L 333.751547 41.472 
" style="fill:none;stroke:#b0b0b0;stroke-dasharray:0.8,1.32;stroke-dashoffset:0;stroke-width:0.8;"/>
     </g>
     <g id="line2d_10">
      <g>
       <use style="stroke:#000000;stroke-width:0.8;" x="333.751547" xlink:href="#m46b0181621" y="307.584"/>
      </g>
     </g>
     <g id="text_5">
      <!-- 800 -->
      <defs>
       <path d="M 38.40625 45.40625 
Q 52 38.703125 52 26.59375 
Q 52 17 45.25 10.59375 
Q 38.5 4.203125 27.546875 4.203125 
Q 16.59375 4.203125 10 10.59375 
Q 3.40625 17 3.40625 26 
Q 3.40625 38.59375 17.296875 45.40625 
Q 6.796875 51 6.796875 60.90625 
Q 6.796875 68.296875 12.9375 73.9375 
Q 19.09375 79.59375 27.796875 79.59375 
Q 36.5 79.59375 42.59375 74.09375 
Q 48.703125 68.59375 48.703125 60.703125 
Q 48.703125 51.09375 38.40625 45.40625 
z
M 41.5 61 
Q 41.5 65.796875 37.75 69.25 
Q 34 72.703125 27.953125 72.703125 
Q 21.90625 72.703125 18 69.25 
Q 14.09375 65.796875 14.09375 60.890625 
Q 14.09375 56 18.34375 52.140625 
Q 22.59375 48.296875 28 48.296875 
Q 33.40625 48.296875 37.453125 52.09375 
Q 41.5 55.90625 41.5 61 
z
M 44.796875 26.5 
Q 44.796875 32.59375 39.84375 37.1875 
Q 34.90625 41.796875 27.84375 41.796875 
Q 20.796875 41.796875 15.6875 37.046875 
Q 10.59375 32.296875 10.59375 25.84375 
Q 10.59375 19.40625 15.296875 15.203125 
Q 20 11 27.59375 11 
Q 35.203125 11 40 15.5 
Q 44.796875 20 44.796875 26.5 
z
" id="STXihei-56"/>
      </defs>
      <g transform="translate(325.440609 322.543375)scale(0.1 -0.1)">
       <use xlink:href="#STXihei-56"/>
       <use x="55.399994" xlink:href="#STXihei-48"/>
       <use x="110.799988" xlink:href="#STXihei-48"/>
      </g>
     </g>
    </g>
    <g id="xtick_6">
     <g id="line2d_11">
      <path clip-path="url(#pcbec34cf4a)" d="M 398.812578 307.584 
L 398.812578 41.472 
" style="fill:none;stroke:#b0b0b0;stroke-dasharray:0.8,1.32;stroke-dashoffset:0;stroke-width:0.8;"/>
     </g>
     <g id="line2d_12">
      <g>
       <use style="stroke:#000000;stroke-width:0.8;" x="398.812578" xlink:href="#m46b0181621" y="307.584"/>
      </g>
     </g>
     <g id="text_6">
      <!-- 1000 -->
      <defs>
       <path d="M 18.5 77.796875 
L 32.59375 77.796875 
L 32.59375 6 
L 25.5 6 
L 25.5 70.796875 
L 14.203125 70.796875 
z
" id="STXihei-49"/>
      </defs>
      <g transform="translate(387.731328 322.543375)scale(0.1 -0.1)">
       <use xlink:href="#STXihei-49"/>
       <use x="55.399994" xlink:href="#STXihei-48"/>
       <use x="110.799988" xlink:href="#STXihei-48"/>
       <use x="166.199982" xlink:href="#STXihei-48"/>
      </g>
     </g>
    </g>
   </g>
   <g id="matplotlib.axis_2">
    <g id="ytick_1">
     <g id="line2d_13">
      <path clip-path="url(#pcbec34cf4a)" d="M 57.6 287.749312 
L 414.72 287.749312 
" style="fill:none;stroke:#b0b0b0;stroke-dasharray:0.8,1.32;stroke-dashoffset:0;stroke-width:0.8;"/>
     </g>
     <g id="line2d_14">
      <defs>
       <path d="M 0 0 
L -3.5 0 
" id="m3b6a1f5c2f" style="stroke:#000000;stroke-width:0.8;"/>
      </defs>
      <g>
       <use style="stroke:#000000;stroke-width:0.8;" x="57.6" xlink:href="#m3b6a1f5c2f" y="287.749312"/>
      </g>
     </g>
     <g id="text_7">
      <!-- 60 -->
      <g transform="translate(39.51875 291.728999)scale(0.1 -0.1)">
       <use xlink:href="#STXihei-54"/>
       <use x="55.399994" xlink:href="#STXihei-48"/>
      </g>
     </g>
    </g>
    <g id="ytick_2">
     <g id="line2d_15">
      <path clip-path="url(#pcbec34cf4a)" d="M 57.6 253.140177 
L 414.72 253.140177 
" style="fill:none;stroke:#b0b0b0;stroke-dasharray:0.8,1.32;stroke-dashoffset:0;stroke-width:0.8;"/>
     </g>
     <g id="line2d_16">
      <g>
       <use style="stroke:#000000;stroke-width:0.8;" x="57.6" xlink:href="#m3b6a1f5c2f" y="253.140177"/>
      </g>
     </g>
     <g id="text_8">
      <!-- 65 -->
      <defs>
       <path d="M 49.203125 77.796875 
L 49.203125 71 
L 23.59375 71 
L 20 51.40625 
Q 24.796875 52.796875 29 52.796875 
Q 38.40625 52.796875 44.703125 46.140625 
Q 51 39.5 51 29.09375 
Q 51 18.703125 44.140625 11.453125 
Q 37.296875 4.203125 26 4.203125 
Q 17.40625 4.203125 11.34375 9.34375 
Q 5.296875 14.5 4.09375 23.40625 
L 11.40625 23.40625 
Q 12.703125 17.40625 16.796875 14.203125 
Q 20.90625 11 26.296875 11 
Q 33.40625 11 38.546875 16.296875 
Q 43.703125 21.59375 43.703125 29.5 
Q 43.703125 36.703125 39.203125 41.34375 
Q 34.703125 46 27.453125 46 
Q 20.203125 46 11.40625 42.203125 
L 18.09375 77.796875 
z
" id="STXihei-53"/>
      </defs>
      <g transform="translate(39.51875 257.119865)scale(0.1 -0.1)">
       <use xlink:href="#STXihei-54"/>
       <use x="55.399994" xlink:href="#STXihei-53"/>
      </g>
     </g>
    </g>
    <g id="ytick_3">
     <g id="line2d_17">
      <path clip-path="url(#pcbec34cf4a)" d="M 57.6 218.531042 
L 414.72 218.531042 
" style="fill:none;stroke:#b0b0b0;stroke-dasharray:0.8,1.32;stroke-dashoffset:0;stroke-width:0.8;"/>
     </g>
     <g id="line2d_18">
      <g>
       <use style="stroke:#000000;stroke-width:0.8;" x="57.6" xlink:href="#m3b6a1f5c2f" y="218.531042"/>
      </g>
     </g>
     <g id="text_9">
      <!-- 70 -->
      <defs>
       <path d="M 7.203125 77.796875 
L 52.703125 77.796875 
L 14.296875 4.203125 
L 8.40625 7.203125 
L 41.59375 71 
L 7.203125 71 
z
" id="STXihei-55"/>
      </defs>
      <g transform="translate(39.51875 222.51073)scale(0.1 -0.1)">
       <use xlink:href="#STXihei-55"/>
       <use x="55.399994" xlink:href="#STXihei-48"/>
      </g>
     </g>
    </g>
    <g id="ytick_4">
     <g id="line2d_19">
      <path clip-path="url(#pcbec34cf4a)" d="M 57.6 183.921908 
L 414.72 183.921908 
" style="fill:none;stroke:#b0b0b0;stroke-dasharray:0.8,1.32;stroke-dashoffset:0;stroke-width:0.8;"/>
     </g>
     <g id="line2d_20">
      <g>
       <use style="stroke:#000000;stroke-width:0.8;" x="57.6" xlink:href="#m3b6a1f5c2f" y="183.921908"/>
      </g>
     </g>
     <g id="text_10">
      <!-- 75 -->
      <g transform="translate(39.51875 187.901595)scale(0.1 -0.1)">
       <use xlink:href="#STXihei-55"/>
       <use x="55.399994" xlink:href="#STXihei-53"/>
      </g>
     </g>
    </g>
    <g id="ytick_5">
     <g id="line2d_21">
      <path clip-path="url(#pcbec34cf4a)" d="M 57.6 149.312773 
L 414.72 149.312773 
" style="fill:none;stroke:#b0b0b0;stroke-dasharray:0.8,1.32;stroke-dashoffset:0;stroke-width:0.8;"/>
     </g>
     <g id="line2d_22">
      <g>
       <use style="stroke:#000000;stroke-width:0.8;" x="57.6" xlink:href="#m3b6a1f5c2f" y="149.312773"/>
      </g>
     </g>
     <g id="text_11">
      <!-- 80 -->
      <g transform="translate(39.51875 153.292461)scale(0.1 -0.1)">
       <use xlink:href="#STXihei-56"/>
       <use x="55.399994" xlink:href="#STXihei-48"/>
      </g>
     </g>
    </g>
    <g id="ytick_6">
     <g id="line2d_23">
      <path clip-path="url(#pcbec34cf4a)" d="M 57.6 114.703639 
L 414.72 114.703639 
" style="fill:none;stroke:#b0b0b0;stroke-dasharray:0.8,1.32;stroke-dashoffset:0;stroke-width:0.8;"/>
     </g>
     <g id="line2d_24">
      <g>
       <use style="stroke:#000000;stroke-width:0.8;" x="57.6" xlink:href="#m3b6a1f5c2f" y="114.703639"/>
      </g>
     </g>
     <g id="text_12">
      <!-- 85 -->
      <g transform="translate(39.51875 118.683326)scale(0.1 -0.1)">
       <use xlink:href="#STXihei-56"/>
       <use x="55.399994" xlink:href="#STXihei-53"/>
      </g>
     </g>
    </g>
    <g id="ytick_7">
     <g id="line2d_25">
      <path clip-path="url(#pcbec34cf4a)" d="M 57.6 80.094504 
L 414.72 80.094504 
" style="fill:none;stroke:#b0b0b0;stroke-dasharray:0.8,1.32;stroke-dashoffset:0;stroke-width:0.8;"/>
     </g>
     <g id="line2d_26">
      <g>
       <use style="stroke:#000000;stroke-width:0.8;" x="57.6" xlink:href="#m3b6a1f5c2f" y="80.094504"/>
      </g>
     </g>
     <g id="text_13">
      <!-- 90 -->
      <defs>
       <path d="M 19.203125 4.203125 
L 13.296875 8 
L 32.703125 37.40625 
Q 28.90625 36.09375 25.203125 36.09375 
Q 16.59375 36.09375 10.75 42.296875 
Q 4.90625 48.5 4.90625 57.75 
Q 4.90625 67 11.40625 73.296875 
Q 17.90625 79.59375 27.34375 79.59375 
Q 36.796875 79.59375 42.9375 73.140625 
Q 49.09375 66.703125 49.09375 57.703125 
Q 49.09375 52.703125 47.046875 47.640625 
Q 45 42.59375 41 36.703125 
z
M 11.90625 57.5 
Q 11.90625 51.203125 16.296875 46.796875 
Q 20.703125 42.40625 27 42.40625 
Q 33.296875 42.40625 37.6875 46.84375 
Q 42.09375 51.296875 42.09375 57.5 
Q 42.09375 63.703125 37.6875 68.140625 
Q 33.296875 72.59375 27 72.59375 
Q 20.703125 72.59375 16.296875 68.1875 
Q 11.90625 63.796875 11.90625 57.5 
z
" id="STXihei-57"/>
      </defs>
      <g transform="translate(39.51875 84.074192)scale(0.1 -0.1)">
       <use xlink:href="#STXihei-57"/>
       <use x="55.399994" xlink:href="#STXihei-48"/>
      </g>
     </g>
    </g>
    <g id="ytick_8">
     <g id="line2d_27">
      <path clip-path="url(#pcbec34cf4a)" d="M 57.6 45.48537 
L 414.72 45.48537 
" style="fill:none;stroke:#b0b0b0;stroke-dasharray:0.8,1.32;stroke-dashoffset:0;stroke-width:0.8;"/>
     </g>
     <g id="line2d_28">
      <g>
       <use style="stroke:#000000;stroke-width:0.8;" x="57.6" xlink:href="#m3b6a1f5c2f" y="45.48537"/>
      </g>
     </g>
     <g id="text_14">
      <!-- 95 -->
      <g transform="translate(39.51875 49.465057)scale(0.1 -0.1)">
       <use xlink:href="#STXihei-57"/>
       <use x="55.399994" xlink:href="#STXihei-53"/>
      </g>
     </g>
    </g>
   </g>
   <g id="line2d_29">
    <path clip-path="url(#pcbec34cf4a)" d="M 73.832727 117.240209 
L 74.158032 78.159832 
L 74.483338 62.854426 
L 74.808643 54.814789 
L 75.133948 53.696978 
L 75.459253 53.568 
L 75.784558 56.835446 
L 76.109863 58.64114 
L 76.435169 61.220703 
L 77.736389 67.19669 
L 78.386999 72.183845 
L 79.03761 74.247495 
L 79.362915 74.290488 
L 79.68822 74.978371 
L 80.33883 77.600927 
L 80.989441 80.051512 
L 81.640051 81.169322 
L 82.290661 83.018009 
L 82.615966 83.146987 
L 82.941272 82.975016 
L 83.266577 84.178812 
L 83.591882 84.651732 
L 84.242492 87.016331 
L 85.218408 88.73604 
L 85.543713 89.294945 
L 85.869018 89.380931 
L 86.194323 90.240785 
L 86.519628 90.025821 
L 86.844934 90.154799 
L 87.170239 91.057646 
L 87.820849 90.713705 
L 88.796764 92.003486 
L 89.447375 91.444581 
L 89.77268 91.831515 
L 90.097985 92.433413 
L 90.42329 92.519399 
L 91.073901 93.637209 
L 91.399206 93.723195 
L 91.724511 94.540056 
L 93.025731 96.259765 
L 93.351037 97.119619 
L 93.676342 96.689692 
L 94.001647 96.603706 
L 94.326952 97.076626 
L 94.652257 97.29159 
L 94.977562 97.29159 
L 95.302868 98.108451 
L 95.628173 98.022466 
L 96.278783 98.667357 
L 96.604088 98.839328 
L 96.929393 100.000131 
L 97.254698 100.559036 
L 97.580004 100.688014 
L 97.905309 101.547868 
L 98.230614 101.504876 
L 98.555919 101.934803 
L 98.881224 101.934803 
L 99.85714 103.31057 
L 100.50775 104.041446 
L 101.15836 105.030278 
L 101.483666 105.417213 
L 101.808971 106.191082 
L 102.134276 105.976118 
L 102.459581 106.406045 
L 102.784886 106.234074 
L 103.435496 106.835972 
L 103.760802 106.96495 
L 104.086107 106.79298 
L 104.411412 107.136921 
L 104.736717 107.308892 
L 105.387327 106.749987 
L 105.712633 107.222907 
L 106.037938 106.621009 
L 107.013853 107.867797 
L 107.339158 107.953783 
L 107.989769 108.942615 
L 108.640379 109.243564 
L 108.965684 109.501521 
L 109.290989 109.458528 
L 109.616294 109.673491 
L 109.9416 109.501521 
L 110.266905 109.028601 
L 110.917515 109.157579 
L 111.24282 109.759477 
L 111.568125 109.97444 
L 111.89343 110.404368 
L 112.218736 110.404368 
L 112.869346 111.3932 
L 113.194651 111.350207 
L 114.495872 112.081083 
L 114.821177 112.081083 
L 115.146482 111.86612 
L 115.471787 112.296047 
L 115.797092 112.33904 
L 116.122398 111.3932 
L 116.447703 111.264222 
L 117.098313 111.952105 
L 117.423618 112.167069 
L 117.748923 112.897945 
L 118.074228 113.241887 
L 118.399534 113.198894 
L 119.375449 114.144734 
L 119.700754 114.015755 
L 120.026059 114.144734 
L 120.351365 113.886777 
L 120.67667 113.843785 
L 121.001975 114.058748 
L 121.32728 113.886777 
L 121.652585 114.015755 
L 122.303195 114.87561 
L 122.628501 115.004588 
L 122.953806 114.918602 
L 123.604416 115.391522 
L 123.929721 115.090573 
L 124.255026 115.176559 
L 124.580332 115.434515 
L 124.905637 115.907435 
L 125.230942 115.477508 
L 125.556247 115.477508 
L 125.881552 116.036413 
L 126.206857 116.122398 
L 126.532163 115.692471 
L 126.857468 115.950428 
L 127.182773 115.692471 
L 127.833383 116.767289 
L 128.483993 116.724296 
L 129.134604 117.154224 
L 129.459909 117.498165 
L 130.110519 117.670136 
L 130.435824 117.455173 
L 131.086435 118.486998 
L 131.41174 118.615976 
L 131.737045 118.186049 
L 132.06235 118.401012 
L 132.387655 118.401012 
L 132.71296 119.260867 
L 133.038266 118.916925 
L 133.363571 119.217874 
L 134.339486 119.217874 
L 134.664791 119.561816 
L 134.990097 119.561816 
L 135.966012 118.615976 
L 136.291317 118.744954 
L 136.616622 119.303859 
L 136.941927 119.174881 
L 137.267233 120.120721 
L 137.592538 119.905757 
L 137.917843 120.980575 
L 138.243148 121.281524 
L 138.568453 121.754444 
L 138.893758 121.195539 
L 139.219064 121.281524 
L 139.544369 121.53948 
L 139.869674 122.227364 
L 140.194979 121.668459 
L 140.520284 121.53948 
L 141.170895 122.442327 
L 141.4962 122.48532 
L 141.821505 122.915247 
L 142.472115 123.001233 
L 142.79742 123.259189 
L 143.122725 123.087218 
L 143.448031 123.259189 
L 143.773336 123.087218 
L 144.098641 123.087218 
L 145.074556 123.818094 
L 145.399862 124.334007 
L 145.725167 124.291014 
L 146.375777 125.236854 
L 146.701082 125.666781 
L 147.026387 125.580795 
L 147.351692 125.666781 
L 147.676998 125.580795 
L 148.002303 126.053715 
L 148.327608 126.096708 
L 148.652913 125.752766 
L 149.303523 126.311672 
L 149.628829 126.397657 
L 150.279439 127.257511 
L 150.604744 127.472475 
L 151.255354 127.300504 
L 151.58066 126.91357 
L 151.905965 126.827584 
L 152.556575 127.214519 
L 152.88188 127.55846 
L 153.207185 127.472475 
L 153.53249 127.515468 
L 153.857796 127.257511 
L 154.183101 127.730431 
L 154.508406 127.386489 
L 155.159016 127.55846 
L 155.484321 128.246344 
L 155.809627 128.633278 
L 156.134932 128.547293 
L 156.460237 127.988387 
L 156.785542 128.289336 
L 157.110847 128.848242 
L 157.761457 128.97722 
L 158.086763 128.762256 
L 158.412068 128.934227 
L 158.737373 129.493132 
L 159.062678 129.192183 
L 159.387983 129.536125 
L 160.038594 128.805249 
L 160.363899 128.676271 
L 160.689204 128.762256 
L 161.339814 129.579118 
L 161.665119 129.235176 
L 161.990424 129.149191 
L 162.96634 130.009045 
L 163.291645 129.622111 
L 164.267561 130.181016 
L 164.592866 130.696928 
L 164.918171 130.696928 
L 165.243476 130.56795 
L 165.568781 130.309994 
L 166.219392 132.115688 
L 166.870002 131.212841 
L 167.195307 131.298826 
L 167.845917 131.685761 
L 168.496528 132.717586 
L 168.821833 132.588608 
L 169.147138 132.588608 
L 169.797748 134.007367 
L 170.448359 134.394302 
L 171.098969 133.921382 
L 171.424274 133.319484 
L 171.749579 133.835396 
L 172.074884 133.792404 
L 172.400189 134.265324 
L 173.0508 134.437294 
L 173.376105 134.394302 
L 174.026715 134.609265 
L 174.35202 134.437294 
L 174.677326 134.695251 
L 175.002631 134.566273 
L 175.653241 135.039192 
L 175.978546 135.082185 
L 176.303851 135.297149 
L 176.629156 135.254156 
L 176.954462 135.813061 
L 177.279767 135.598098 
L 177.605072 136.242988 
L 177.930377 136.328974 
L 178.255682 135.942039 
L 178.580987 135.899047 
L 178.906293 136.328974 
L 179.231598 136.071018 
L 180.858124 136.844886 
L 181.183429 136.973865 
L 181.508734 137.446784 
L 183.13526 138.65058 
L 185.087091 137.446784 
L 185.412396 137.446784 
L 186.063006 136.973865 
L 186.388311 137.962697 
L 186.713616 137.575763 
L 187.038921 137.661748 
L 187.364227 137.446784 
L 188.014837 137.704741 
L 188.340142 137.876712 
L 188.990752 137.575763 
L 189.641363 137.962697 
L 189.966668 137.833719 
L 190.617278 138.435617 
L 190.942583 138.349631 
L 191.267889 138.47861 
L 191.593194 138.822551 
L 191.918499 138.822551 
L 192.243804 139.209486 
L 192.569109 139.037515 
L 192.894414 139.080508 
L 193.219719 139.510435 
L 193.545025 139.424449 
L 193.87033 139.682406 
L 194.195635 139.037515 
L 194.52094 139.553427 
L 194.846245 139.381457 
L 195.496856 139.854376 
L 196.147466 139.59642 
L 196.472771 139.682406 
L 197.123381 139.467442 
L 197.773992 139.1235 
L 198.424602 139.381457 
L 199.400517 140.499267 
L 199.725823 140.757223 
L 200.376433 140.628245 
L 201.027043 141.531092 
L 201.352348 141.058172 
L 201.677653 140.972187 
L 202.002959 141.01518 
L 202.328264 141.187151 
L 202.653569 142.004012 
L 202.978874 141.961019 
L 203.304179 142.089998 
L 203.95479 140.886202 
L 204.280095 140.886202 
L 204.6054 140.714231 
L 204.930705 140.929194 
L 205.25601 140.671238 
L 205.906621 141.402114 
L 206.231926 141.273136 
L 206.882536 141.66007 
L 207.207841 141.617078 
L 207.533146 141.875034 
L 208.183757 142.734888 
L 208.509062 142.433939 
L 209.159672 143.207808 
L 209.484977 143.508757 
L 209.810282 143.336786 
L 210.135588 143.594742 
L 210.786198 143.250801 
L 211.111503 143.508757 
L 212.087418 143.336786 
L 212.412724 143.680728 
L 212.738029 144.368611 
L 213.713944 145.357444 
L 214.039249 145.271458 
L 215.015165 145.959342 
L 215.34047 145.658393 
L 215.99108 145.916349 
L 216.316385 146.260291 
L 216.966996 146.475254 
L 217.617606 146.389269 
L 217.942911 146.948174 
L 218.268216 147.249123 
L 218.918827 148.323941 
L 219.244132 148.409926 
L 219.569437 148.366934 
L 219.894742 148.62489 
L 220.545353 149.57073 
L 220.870658 149.613722 
L 221.195963 149.828686 
L 221.521268 149.484744 
L 222.171878 150.21562 
L 222.822489 151.032482 
L 223.147794 150.989489 
L 223.473099 151.591387 
L 223.798404 151.247446 
L 224.123709 151.419416 
L 224.449014 151.333431 
L 224.77432 151.892336 
L 225.099625 152.1073 
L 225.42493 151.806351 
L 226.07554 152.537227 
L 226.400845 152.365256 
L 227.051456 152.709198 
L 227.376761 153.010147 
L 227.702066 153.912994 
L 228.027371 153.69803 
L 228.352676 154.084965 
L 229.003287 154.041972 
L 229.328592 153.741023 
L 229.653897 153.741023 
L 229.979202 154.299928 
L 230.304507 153.955986 
L 230.629812 154.17095 
L 230.955118 154.084965 
L 231.280423 153.655037 
L 231.931033 153.22511 
L 232.581643 153.569052 
L 232.906948 153.397081 
L 233.232254 153.440074 
L 234.208169 153.955986 
L 234.533474 154.084965 
L 234.858779 154.815841 
L 235.184085 154.815841 
L 235.834695 155.073797 
L 236.16 154.987812 
L 236.485305 155.632702 
L 236.81061 155.933651 
L 237.135915 155.718688 
L 237.461221 156.019637 
L 237.786526 155.933651 
L 238.762441 156.363578 
L 239.087746 156.621535 
L 239.413052 156.621535 
L 239.738357 156.750513 
L 240.063662 156.750513 
L 240.388967 157.051462 
L 240.714272 157.696353 
L 241.039577 157.65336 
L 241.364882 158.384236 
L 241.690188 158.040294 
L 242.015493 158.040294 
L 242.666103 158.341243 
L 242.991408 158.040294 
L 243.316713 157.997302 
L 243.642019 158.5992 
L 244.292629 159.115112 
L 245.268544 159.158105 
L 245.59385 159.802996 
L 246.24446 159.631025 
L 246.89507 159.674017 
L 247.220375 159.931974 
L 247.870986 160.017959 
L 248.196291 160.447886 
L 248.846901 160.533872 
L 249.172206 160.275915 
L 249.497511 160.361901 
L 250.148122 161.092777 
L 250.473427 160.834821 
L 250.798732 160.404894 
L 251.124037 160.447886 
L 251.774647 160.275915 
L 252.099953 160.361901 
L 252.425258 160.66285 
L 252.750563 160.705843 
L 253.075868 160.619857 
L 253.726478 161.479711 
L 254.377089 161.909639 
L 254.702394 162.640515 
L 255.353004 162.25358 
L 256.003615 163.414384 
L 256.32892 163.328398 
L 256.97953 162.898471 
L 257.955445 163.285405 
L 258.280751 163.242413 
L 258.606056 163.371391 
L 258.931361 163.328398 
L 259.581971 164.059274 
L 259.907276 164.532194 
L 260.557887 164.833143 
L 261.208497 164.403216 
L 261.859107 164.446209 
L 262.184412 164.876136 
L 262.509718 164.962121 
L 263.160328 164.403216 
L 263.485633 164.575187 
L 263.810938 164.446209 
L 264.136243 164.704165 
L 264.461549 164.661172 
L 265.762769 165.692997 
L 266.088074 165.521026 
L 266.413379 165.993946 
L 267.7146 166.165917 
L 268.690516 165.821975 
L 269.015821 165.950954 
L 269.666431 165.950954 
L 270.317041 165.993946 
L 270.642347 166.423873 
L 270.967652 166.638837 
L 271.292957 166.552852 
L 271.618262 167.240735 
L 271.943567 167.541684 
L 272.919483 167.756648 
L 273.244788 168.27256 
L 273.570093 168.358546 
L 273.895398 168.573509 
L 275.196619 167.455699 
L 275.847229 168.100589 
L 276.172534 168.057597 
L 276.497839 168.788473 
L 276.823144 168.788473 
L 277.14845 168.444531 
L 277.473755 168.616502 
L 278.124365 167.584677 
L 278.774975 167.111757 
L 279.100281 167.240735 
L 279.425586 166.982779 
L 280.401501 168.100589 
L 281.052111 167.670662 
L 281.377417 168.358546 
L 281.702722 168.186575 
L 282.028027 168.358546 
L 282.353332 168.702487 
L 283.003942 168.917451 
L 283.654553 169.734312 
L 283.979858 169.347378 
L 284.305163 169.519349 
L 284.630468 169.089422 
L 285.281079 169.863291 
L 285.606384 169.863291 
L 285.931689 169.992269 
L 286.256994 169.820298 
L 286.582299 169.777305 
L 286.907604 169.605334 
L 287.232909 170.121247 
L 287.88352 170.766138 
L 288.208825 170.551174 
L 288.53413 170.80913 
L 288.859435 170.379203 
L 289.18474 170.422196 
L 289.510046 170.33621 
L 289.835351 170.035261 
L 290.811266 169.906283 
L 291.461876 170.723145 
L 292.112487 170.422196 
L 292.437792 170.508181 
L 292.763097 169.906283 
L 293.088402 170.508181 
L 293.413707 170.121247 
L 294.064318 169.906283 
L 294.389623 170.594167 
L 294.714928 170.80913 
L 295.365538 170.895116 
L 295.690844 170.207232 
L 296.016149 170.035261 
L 296.341454 170.293218 
L 296.666759 170.33621 
L 297.317369 171.454021 
L 298.293285 171.110079 
L 298.61859 170.981101 
L 298.943895 171.196065 
L 299.594505 172.141904 
L 299.919811 172.141904 
L 300.245116 171.668985 
L 300.570421 171.411028 
L 300.895726 171.540006 
L 301.221031 171.840955 
L 301.871641 172.786795 
L 302.522252 173.044751 
L 303.172862 172.915773 
L 303.498167 173.3457 
L 303.823472 173.517671 
L 304.148778 173.3457 
L 304.474083 173.431686 
L 304.799388 173.302708 
L 305.124693 173.388693 
L 305.449998 173.259715 
L 305.775303 172.872781 
L 306.425914 172.614824 
L 306.751219 172.313875 
L 307.076524 172.22789 
L 307.401829 173.001759 
L 307.727134 172.829788 
L 308.052439 173.044751 
L 308.377745 172.958766 
L 309.028355 173.904606 
L 309.35366 174.033584 
L 310.00427 173.775628 
L 310.329576 173.689642 
L 310.980186 174.033584 
L 311.630796 174.893438 
L 311.956101 174.936431 
L 312.281406 175.23738 
L 312.606712 175.151394 
L 312.932017 175.409351 
L 313.582627 176.312198 
L 314.233237 175.366358 
L 314.558543 174.592489 
L 315.209153 175.022416 
L 315.859763 174.936431 
L 316.510373 175.839278 
L 317.486289 175.022416 
L 317.811594 175.065409 
L 318.462204 175.495336 
L 319.112815 176.226212 
L 319.43812 176.226212 
L 320.08873 175.667307 
L 320.414035 175.753292 
L 321.389951 174.721467 
L 322.040561 174.850445 
L 322.365866 174.635482 
L 323.016477 174.549496 
L 323.341782 174.506504 
L 323.667087 175.194387 
L 323.992392 175.581321 
L 324.317697 175.495336 
L 324.643002 175.538329 
L 324.968308 175.88227 
L 325.618918 176.097234 
L 325.944223 175.88227 
L 326.269528 176.699132 
L 326.594833 176.742125 
L 326.920138 176.570154 
L 327.245444 176.914096 
L 327.570749 177.000081 
L 327.896054 176.914096 
L 328.546664 177.558986 
L 328.871969 178.117892 
L 329.52258 178.590811 
L 329.847885 178.375848 
L 330.498495 179.536651 
L 330.8238 180.052564 
L 331.799716 180.224535 
L 332.125021 180.353513 
L 332.450326 180.826433 
L 333.100936 180.998403 
L 333.426242 180.826433 
L 333.751547 180.998403 
L 334.076852 180.998403 
L 334.727462 181.25636 
L 335.052767 182.030229 
L 335.378073 181.858258 
L 336.028683 181.815265 
L 336.353988 181.944243 
L 336.679293 182.202199 
L 337.004598 182.288185 
L 337.329903 183.019061 
L 337.655209 182.804097 
L 337.980514 183.019061 
L 338.305819 183.019061 
L 338.631124 183.32001 
L 338.956429 183.019061 
L 339.281734 183.749937 
L 339.60704 184.093879 
L 339.932345 183.921908 
L 340.582955 184.695777 
L 340.90826 184.824755 
L 341.233565 184.351835 
L 341.55887 185.082711 
L 341.884176 185.039719 
L 342.209481 185.641616 
L 342.534786 185.555631 
L 342.860091 185.727602 
L 343.185396 185.512638 
L 343.836007 185.598624 
L 344.161312 185.555631 
L 344.486617 186.028551 
L 344.811922 186.200522 
L 345.462532 186.80242 
L 345.787837 186.716434 
L 346.113143 187.103369 
L 346.438448 187.146361 
L 346.763753 186.80242 
L 347.414363 186.544463 
L 347.739668 186.888405 
L 349.040889 186.759427 
L 350.016805 186.931398 
L 350.34211 187.662274 
L 350.99272 188.092201 
L 351.318025 188.049208 
L 351.968635 187.361325 
L 352.293941 187.662274 
L 352.619246 187.748259 
L 352.944551 187.533296 
L 353.595161 187.963223 
L 353.920466 187.791252 
L 354.245772 187.92023 
L 354.571077 187.490303 
L 355.546992 187.533296 
L 355.872297 187.877238 
L 356.197602 187.705267 
L 356.848213 187.92023 
L 357.173518 187.533296 
L 357.824128 188.049208 
L 358.149433 188.350157 
L 358.474739 188.307165 
L 358.800044 188.651106 
L 359.775959 188.737092 
L 360.101264 188.608114 
L 360.751875 188.909063 
L 362.053095 188.86607 
L 362.3784 188.565121 
L 362.703706 188.823077 
L 363.029011 188.608114 
L 363.354316 188.909063 
L 363.679621 189.467968 
L 364.004926 189.038041 
L 364.330231 189.124026 
L 364.655537 189.038041 
L 364.980842 189.167019 
L 365.306147 189.553953 
L 365.631452 189.639939 
L 365.956757 189.940888 
L 366.282062 189.768917 
L 366.607367 190.112859 
L 366.932673 190.026873 
L 367.257978 190.28483 
L 367.908588 190.112859 
L 368.233893 190.886728 
L 368.559198 191.230669 
L 368.884504 190.800742 
L 369.209809 190.757749 
L 369.535114 190.886728 
L 369.860419 190.757749 
L 370.185724 191.101691 
L 370.511029 190.92972 
L 371.16164 190.92972 
L 371.486945 191.488626 
L 371.81225 191.359647 
L 372.137555 191.832567 
L 373.113471 192.477458 
L 373.438776 192.34848 
L 374.089386 192.907385 
L 374.414691 192.520451 
L 374.739996 192.8214 
L 375.065302 193.29432 
L 375.390607 193.46629 
L 376.366522 194.541108 
L 376.691827 194.627094 
L 377.017132 194.498116 
L 377.342438 194.670086 
L 377.993048 194.799065 
L 378.643658 195.443955 
L 378.968963 195.443955 
L 379.294269 196.174831 
L 379.619574 196.346802 
L 379.944879 195.83089 
L 380.270184 196.518773 
L 380.595489 195.873882 
L 380.920794 195.916875 
L 381.246099 195.615926 
L 382.222015 196.647751 
L 383.19793 197.206656 
L 383.523236 197.034686 
L 384.173846 197.765562 
L 384.499151 197.89454 
L 385.149761 197.765562 
L 385.475066 198.324467 
L 386.125677 198.625416 
L 386.450982 199.01235 
L 387.426897 199.184321 
L 387.752203 199.356292 
L 388.077508 199.786219 
L 388.402813 200.001183 
L 388.728118 199.872205 
L 389.053423 200.130161 
L 389.378728 200.087168 
L 389.704034 200.517095 
L 390.029339 200.646074 
L 390.354644 200.603081 
L 391.005254 200.947023 
L 391.655864 201.763884 
L 391.98117 203.010673 
L 392.306475 203.225636 
L 392.63178 204.257462 
L 393.607695 205.97717 
L 393.933001 206.536075 
L 394.583611 208.427755 
L 395.884831 216.854327 
L 396.535442 226.441702 
L 397.511357 249.442804 
L 398.161968 273.217774 
L 398.487273 295.488 
L 398.487273 295.488 
" style="fill:none;stroke:#4bacc6;stroke-linecap:square;stroke-width:2;"/>
   </g>
   <g id="patch_3">
    <path d="M 57.6 307.584 
L 57.6 41.472 
" style="fill:none;stroke:#000000;stroke-linecap:square;stroke-linejoin:miter;stroke-width:0.8;"/>
   </g>
   <g id="patch_4">
    <path d="M 414.72 307.584 
L 414.72 41.472 
" style="fill:none;stroke:#000000;stroke-linecap:square;stroke-linejoin:miter;stroke-width:0.8;"/>
   </g>
   <g id="patch_5">
    <path d="M 57.6 307.584 
L 414.72 307.584 
" style="fill:none;stroke:#000000;stroke-linecap:square;stroke-linejoin:miter;stroke-width:0.8;"/>
   </g>
   <g id="patch_6">
    <path d="M 57.6 41.472 
L 414.72 41.472 
" style="fill:none;stroke:#000000;stroke-linecap:square;stroke-linejoin:miter;stroke-width:0.8;"/>
   </g>
   <g id="text_15">
    <!-- 2017春季 Average -->
    <defs>
     <path d="M 44.703125 66.203125 
Q 26.5 66.203125 12 65.5 
L 12 72 
Q 24.203125 71 45.703125 71 
Q 46.59375 75.90625 46.703125 81 
Q 51.5 79.59375 53.84375 79.59375 
Q 56.203125 79.59375 56.203125 78.9375 
Q 56.203125 78.296875 55.203125 77.5 
Q 53.59375 76.296875 52 71 
Q 74.90625 71 87.40625 72 
L 87.40625 65.5 
Q 75.09375 66.203125 50.796875 66.203125 
Q 49.59375 60.90625 48.5 57.703125 
L 55.59375 57.703125 
Q 72.59375 57.703125 81.703125 58.5 
L 81.703125 52 
Q 71.296875 52.90625 55.59375 52.90625 
L 46.796875 52.90625 
Q 45 48.40625 42.90625 44.5 
L 62.90625 44.5 
Q 83.40625 44.5 93.09375 45.296875 
L 93.09375 38.796875 
Q 83.09375 39.5 66.09375 39.703125 
Q 77.59375 25.5 96.40625 23.09375 
Q 93.5 20.296875 92 15.5 
Q 82.59375 18.296875 75.09375 23.703125 
L 75.09375 4.90625 
Q 75.09375 -3 75.59375 -8.09375 
L 69.09375 -8.09375 
L 69.09375 -3.40625 
L 31 -3.40625 
L 31 -9.59375 
L 24.40625 -9.59375 
Q 25 -3.703125 25 2.203125 
L 25 24.703125 
Q 17.90625 19.703125 10 14.90625 
Q 8.5 17.703125 3.796875 20.296875 
Q 23.5 28 33 39.703125 
Q 15.796875 39.5 6 38.796875 
L 6 45.296875 
Q 17.59375 44.5 36.5 44.5 
Q 38.90625 48.203125 40.796875 52.90625 
Q 26 52.90625 16.09375 52 
L 16.09375 58.5 
Q 24.796875 57.703125 42.59375 57.703125 
Q 44 62.703125 44.703125 66.203125 
z
M 60.09375 39.703125 
L 39.90625 39.703125 
Q 36.09375 34.296875 31.40625 30.09375 
L 67.703125 30.09375 
Q 63.5 34.59375 60.09375 39.703125 
z
M 31 15.703125 
L 69.09375 15.703125 
L 69.09375 25.296875 
L 31 25.296875 
z
M 31 1.296875 
L 69.09375 1.296875 
L 69.09375 11 
L 31 11 
z
" id="STXihei-26149"/>
     <path d="M 47.5 70.296875 
Q 33.09375 69.5 21.90625 69.296875 
Q 21.5 72.296875 19 75.703125 
Q 29.703125 74.796875 35.703125 74.796875 
Q 41.703125 74.796875 54.890625 75.5 
Q 68.09375 76.203125 78 79.296875 
Q 78.59375 76.203125 79.796875 74.59375 
Q 81 73 81 72.5 
Q 81 71.5 79 71.84375 
Q 77 72.203125 74.703125 72.203125 
Q 72.40625 72.203125 67.25 71.59375 
Q 62.09375 71 53.296875 70.59375 
L 53.296875 60.90625 
Q 79.203125 60.90625 92.09375 61.59375 
L 92.09375 55.59375 
Q 80.5 56.203125 61.703125 56.203125 
Q 76.796875 43.5 96.5 38.40625 
Q 93.40625 35.796875 91.796875 32.40625 
Q 67.703125 42.703125 55.203125 56.203125 
L 53.296875 56.203125 
L 53.296875 48.203125 
Q 53.296875 43.59375 53.59375 37.296875 
L 47 37.296875 
Q 47.5 44.40625 47.5 48.203125 
L 47.5 56.203125 
L 45.703125 56.203125 
Q 37.59375 47.40625 30.25 41.953125 
Q 22.90625 36.5 9 29.90625 
Q 7.703125 33.296875 3.703125 36.09375 
Q 24.203125 41.09375 39.203125 56.203125 
Q 20.40625 56.09375 8.5 55.59375 
L 8.5 61.59375 
Q 21.40625 60.90625 47.5 60.90625 
z
M 49.09375 13.296875 
Q 23.5 13.296875 12.203125 12.40625 
L 12.203125 18.90625 
Q 26 18 49.09375 18 
L 49.09375 22.203125 
L 63.796875 30.5 
L 42.59375 30.5 
Q 31.796875 30.5 23.90625 30 
L 23.90625 35.59375 
Q 33 35.203125 50.890625 35.203125 
Q 68.796875 35.203125 77.59375 35.59375 
L 77.59375 30.90625 
Q 73.703125 31.09375 68.703125 28.09375 
L 54.90625 19.90625 
L 54.90625 18 
Q 76.703125 18 90.09375 18.90625 
L 90.09375 12.5 
Q 80.703125 13.296875 54.90625 13.296875 
L 54.90625 2.203125 
Q 54.90625 -3.09375 53.703125 -5.390625 
Q 52.5 -7.703125 48.546875 -8.640625 
Q 44.59375 -9.59375 35.203125 -10 
Q 35.09375 -6.09375 32.296875 -2.5 
Q 38 -3.203125 41.59375 -3.203125 
Q 45.203125 -3.203125 47.140625 -2.390625 
Q 49.09375 -1.59375 49.09375 0.90625 
z
" id="STXihei-23395"/>
     <path id="STXihei-32"/>
     <path d="M 38.09375 80.703125 
L 71.59375 6 
L 63.90625 6 
L 52.59375 30.5 
L 21.59375 30.5 
L 10.40625 6 
L 2.40625 6 
L 36.296875 80.703125 
z
M 37.203125 64.796875 
L 24.90625 37.796875 
L 49.40625 37.796875 
z
" id="STXihei-65"/>
     <path d="M 2.59375 59.09375 
L 9.90625 59.09375 
L 27.59375 18.703125 
L 45.296875 59.09375 
L 52.59375 59.09375 
L 28.296875 4.203125 
L 27.09375 4.203125 
z
" id="STXihei-118"/>
     <path d="M 52.296875 23.203125 
L 58.09375 20.203125 
Q 49.5 4.203125 32.703125 4.203125 
Q 20.703125 4.203125 12.890625 12.453125 
Q 5.09375 20.703125 5.09375 32.296875 
Q 5.09375 43.90625 12.9375 52.203125 
Q 20.796875 60.5 32.34375 60.5 
Q 43.90625 60.5 51.75 52.796875 
Q 59.59375 45.09375 59.90625 31.796875 
L 12.09375 31.796875 
Q 12.40625 22.203125 18.15625 16.34375 
Q 23.90625 10.5 32.09375 10.5 
Q 45.59375 10.5 52.296875 23.203125 
z
M 52.296875 37.703125 
Q 50.90625 45.296875 45.296875 49.59375 
Q 39.703125 53.90625 32.40625 53.90625 
Q 17.40625 53.90625 12.796875 37.703125 
z
" id="STXihei-101"/>
     <path d="M 5 59.09375 
L 12 59.09375 
L 12 51.40625 
Q 14.796875 56.09375 17.4375 58.296875 
Q 20.09375 60.5 23.34375 60.5 
Q 26.59375 60.5 29.90625 58.703125 
L 26.296875 52.90625 
Q 24.796875 53.796875 23.203125 53.796875 
Q 20.09375 53.796875 17.34375 50.59375 
Q 14.59375 47.40625 13.296875 42.34375 
Q 12 37.296875 12 24 
L 12 6 
L 5 6 
z
" id="STXihei-114"/>
     <path d="M 60.5 59.09375 
L 60.5 6 
L 53.796875 6 
L 53.796875 15.09375 
Q 44.703125 4.203125 33 4.203125 
Q 21.296875 4.203125 13.25 12.546875 
Q 5.203125 20.90625 5.203125 32.453125 
Q 5.203125 44 13.296875 52.25 
Q 21.40625 60.5 32.703125 60.5 
Q 45.703125 60.5 53.796875 49.40625 
L 53.796875 59.09375 
z
M 54.203125 32.296875 
Q 54.203125 41.40625 48.09375 47.65625 
Q 42 53.90625 33.140625 53.90625 
Q 24.296875 53.90625 18.1875 47.453125 
Q 12.09375 41 12.09375 32.203125 
Q 12.09375 23.40625 18.296875 16.953125 
Q 24.5 10.5 33.140625 10.5 
Q 41.796875 10.5 48 16.703125 
Q 54.203125 22.90625 54.203125 32.296875 
z
" id="STXihei-97"/>
     <path d="M 54.09375 59.09375 
L 61 59.09375 
L 61 18.09375 
Q 61 7.203125 59.09375 2.09375 
Q 57.203125 -3 53.59375 -6.390625 
Q 50 -9.796875 44.890625 -11.59375 
Q 39.796875 -13.40625 33.703125 -13.40625 
Q 12.90625 -13.40625 6.296875 3.203125 
L 13.703125 3.203125 
Q 19.5 -7.203125 33.40625 -7.203125 
Q 40.09375 -7.203125 45.046875 -4.59375 
Q 50 -2 52.046875 2.046875 
Q 54.09375 6.09375 54.09375 14.703125 
L 54.09375 17 
Q 50 11.90625 44.390625 9.40625 
Q 38.796875 6.90625 32.59375 6.90625 
Q 21 6.90625 13.296875 14.796875 
Q 5.59375 22.703125 5.59375 33.40625 
Q 5.59375 44.5 13.796875 52.5 
Q 22 60.5 33.640625 60.5 
Q 45.296875 60.5 54.09375 49.90625 
z
M 54.40625 33.40625 
Q 54.40625 42.09375 48.5 48 
Q 42.59375 53.90625 33.90625 53.90625 
Q 24.703125 53.90625 18.59375 47.546875 
Q 12.5 41.203125 12.5 33 
Q 12.5 24.796875 18.390625 19.046875 
Q 24.296875 13.296875 33.5 13.296875 
Q 42.703125 13.296875 48.546875 18.890625 
Q 54.40625 24.5 54.40625 33.40625 
z
" id="STXihei-103"/>
    </defs>
    <g transform="translate(183.856875 35.472)scale(0.12 -0.12)">
     <use xlink:href="#STXihei-50"/>
     <use x="55.399994" xlink:href="#STXihei-48"/>
     <use x="110.799988" xlink:href="#STXihei-49"/>
     <use x="166.199982" xlink:href="#STXihei-55"/>
     <use x="221.599976" xlink:href="#STXihei-26149"/>
     <use x="321.59996" xlink:href="#STXihei-23395"/>
     <use x="421.599945" xlink:href="#STXihei-32"/>
     <use x="446.59993" xlink:href="#STXihei-65"/>
     <use x="520.599915" xlink:href="#STXihei-118"/>
     <use x="575.999908" xlink:href="#STXihei-101"/>
     <use x="640.999893" xlink:href="#STXihei-114"/>
     <use x="671.099884" xlink:href="#STXihei-97"/>
     <use x="739.399872" xlink:href="#STXihei-103"/>
     <use x="806.69986" xlink:href="#STXihei-101"/>
    </g>
   </g>
  </g>
 </g>
 <defs>
  <clipPath id="pcbec34cf4a">
   <rect height="266.112" width="357.12" x="57.6" y="41.472"/>
  </clipPath>
 </defs>
</svg>
