<?xml version="1.0" encoding="utf-8" standalone="no"?>
<!DOCTYPE svg PUBLIC "-//W3C//DTD SVG 1.1//EN"
  "http://www.w3.org/Graphics/SVG/1.1/DTD/svg11.dtd">
<!-- Created with matplotlib (https://matplotlib.org/) -->
<svg height="345.6pt" version="1.1" viewBox="0 0 460.8 345.6" width="460.8pt" xmlns="http://www.w3.org/2000/svg" xmlns:xlink="http://www.w3.org/1999/xlink">
 <defs>
  <style type="text/css">
*{stroke-linecap:butt;stroke-linejoin:round;}
  </style>
 </defs>
 <g id="figure_1">
  <g id="patch_1">
   <path d="M 0 345.6 
L 460.8 345.6 
L 460.8 0 
L 0 0 
z
" style="fill:#ffffff;"/>
  </g>
  <g id="axes_1">
   <g id="patch_2">
    <path d="M 57.6 307.584 
L 414.72 307.584 
L 414.72 41.472 
L 57.6 41.472 
z
" style="fill:#ffffff;"/>
   </g>
   <g id="matplotlib.axis_1">
    <g id="xtick_1">
     <g id="line2d_1">
      <path clip-path="url(#p1908290799)" d="M 73.507422 307.584 
L 73.507422 41.472 
" style="fill:none;stroke:#b0b0b0;stroke-dasharray:0.8,1.32;stroke-dashoffset:0;stroke-width:0.8;"/>
     </g>
     <g id="line2d_2">
      <defs>
       <path d="M 0 0 
L 0 3.5 
" id="mba1a364273" style="stroke:#000000;stroke-width:0.8;"/>
      </defs>
      <g>
       <use style="stroke:#000000;stroke-width:0.8;" x="73.507422" xlink:href="#mba1a364273" y="307.584"/>
      </g>
     </g>
     <g id="text_1">
      <!-- 0 -->
      <defs>
       <path d="M 27.296875 4.203125 
Q 15.703125 4.203125 9.453125 13.75 
Q 3.203125 23.296875 3.203125 41.890625 
Q 3.203125 60.5 9.453125 70.046875 
Q 15.703125 79.59375 27.203125 79.59375 
Q 38.703125 79.59375 45.453125 69.84375 
Q 52.203125 60.09375 52.203125 41.890625 
Q 52.203125 23.703125 45.390625 13.953125 
Q 38.59375 4.203125 27.296875 4.203125 
z
M 27.5 72.796875 
Q 19.203125 72.796875 14.59375 64.796875 
Q 10 56.796875 10 41.703125 
Q 10 10.703125 27.5 10.703125 
Q 36 10.703125 40.75 18.84375 
Q 45.5 27 45.5 41.890625 
Q 45.5 56.796875 40.59375 64.796875 
Q 35.703125 72.796875 27.5 72.796875 
z
" id="STXihei-48"/>
      </defs>
      <g transform="translate(70.73711 322.543375)scale(0.1 -0.1)">
       <use xlink:href="#STXihei-48"/>
      </g>
     </g>
    </g>
    <g id="xtick_2">
     <g id="line2d_3">
      <path clip-path="url(#p1908290799)" d="M 138.568453 307.584 
L 138.568453 41.472 
" style="fill:none;stroke:#b0b0b0;stroke-dasharray:0.8,1.32;stroke-dashoffset:0;stroke-width:0.8;"/>
     </g>
     <g id="line2d_4">
      <g>
       <use style="stroke:#000000;stroke-width:0.8;" x="138.568453" xlink:href="#mba1a364273" y="307.584"/>
      </g>
     </g>
     <g id="text_2">
      <!-- 200 -->
      <defs>
       <path d="M 11.59375 55.296875 
L 4.703125 55.296875 
Q 5.203125 66.296875 12 72.9375 
Q 18.796875 79.59375 28.4375 79.59375 
Q 38.09375 79.59375 44.4375 73.34375 
Q 50.796875 67.09375 50.796875 58.09375 
Q 50.796875 51.40625 47.25 45.703125 
Q 43.703125 40 36.5 32.203125 
L 18.59375 12.90625 
L 51.796875 12.90625 
L 51.796875 6 
L 3 6 
L 30.40625 35.59375 
Q 37.59375 43.40625 40.6875 47.90625 
Q 43.796875 52.40625 43.796875 58.203125 
Q 43.796875 64 39.25 68.390625 
Q 34.703125 72.796875 27.953125 72.796875 
Q 21.203125 72.796875 16.75 68.25 
Q 12.296875 63.703125 11.59375 55.296875 
z
" id="STXihei-50"/>
      </defs>
      <g transform="translate(130.257516 322.543375)scale(0.1 -0.1)">
       <use xlink:href="#STXihei-50"/>
       <use x="55.399994" xlink:href="#STXihei-48"/>
       <use x="110.799988" xlink:href="#STXihei-48"/>
      </g>
     </g>
    </g>
    <g id="xtick_3">
     <g id="line2d_5">
      <path clip-path="url(#p1908290799)" d="M 203.629484 307.584 
L 203.629484 41.472 
" style="fill:none;stroke:#b0b0b0;stroke-dasharray:0.8,1.32;stroke-dashoffset:0;stroke-width:0.8;"/>
     </g>
     <g id="line2d_6">
      <g>
       <use style="stroke:#000000;stroke-width:0.8;" x="203.629484" xlink:href="#mba1a364273" y="307.584"/>
      </g>
     </g>
     <g id="text_3">
      <!-- 400 -->
      <defs>
       <path d="M 42.59375 79.59375 
L 44 79.59375 
L 44 29.59375 
L 52.703125 29.59375 
L 52.703125 22.703125 
L 44 22.703125 
L 44 6 
L 36.90625 6 
L 36.90625 22.703125 
L 2.5 22.703125 
z
M 36.90625 29.59375 
L 36.90625 59.5 
L 15.703125 29.59375 
z
" id="STXihei-52"/>
      </defs>
      <g transform="translate(195.318547 322.543375)scale(0.1 -0.1)">
       <use xlink:href="#STXihei-52"/>
       <use x="55.399994" xlink:href="#STXihei-48"/>
       <use x="110.799988" xlink:href="#STXihei-48"/>
      </g>
     </g>
    </g>
    <g id="xtick_4">
     <g id="line2d_7">
      <path clip-path="url(#p1908290799)" d="M 268.690516 307.584 
L 268.690516 41.472 
" style="fill:none;stroke:#b0b0b0;stroke-dasharray:0.8,1.32;stroke-dashoffset:0;stroke-width:0.8;"/>
     </g>
     <g id="line2d_8">
      <g>
       <use style="stroke:#000000;stroke-width:0.8;" x="268.690516" xlink:href="#mba1a364273" y="307.584"/>
      </g>
     </g>
     <g id="text_4">
      <!-- 600 -->
      <defs>
       <path d="M 36.703125 79.59375 
L 42.59375 75.796875 
L 23.203125 46.40625 
Q 27.296875 47.796875 31 47.796875 
Q 39 47.796875 45 41.4375 
Q 51 35.09375 51 25.9375 
Q 51 16.796875 44.453125 10.5 
Q 37.90625 4.203125 28.546875 4.203125 
Q 19.203125 4.203125 12.953125 10.59375 
Q 6.703125 17 6.703125 26.203125 
Q 6.703125 30.59375 8.390625 35.25 
Q 10.09375 39.90625 14.90625 47.09375 
z
M 43.90625 26.296875 
Q 43.90625 32.59375 39.5 37 
Q 35.09375 41.40625 28.796875 41.40625 
Q 22.5 41.40625 18.09375 37 
Q 13.703125 32.59375 13.703125 26.296875 
Q 13.703125 20 18.140625 15.59375 
Q 22.59375 11.203125 28.796875 11.203125 
Q 35 11.203125 39.453125 15.59375 
Q 43.90625 20 43.90625 26.296875 
z
" id="STXihei-54"/>
      </defs>
      <g transform="translate(260.379578 322.543375)scale(0.1 -0.1)">
       <use xlink:href="#STXihei-54"/>
       <use x="55.399994" xlink:href="#STXihei-48"/>
       <use x="110.799988" xlink:href="#STXihei-48"/>
      </g>
     </g>
    </g>
    <g id="xtick_5">
     <g id="line2d_9">
      <path clip-path="url(#p1908290799)" d="M 333.751547 307.584 
L 333.751547 41.472 
" style="fill:none;stroke:#b0b0b0;stroke-dasharray:0.8,1.32;stroke-dashoffset:0;stroke-width:0.8;"/>
     </g>
     <g id="line2d_10">
      <g>
       <use style="stroke:#000000;stroke-width:0.8;" x="333.751547" xlink:href="#mba1a364273" y="307.584"/>
      </g>
     </g>
     <g id="text_5">
      <!-- 800 -->
      <defs>
       <path d="M 38.40625 45.40625 
Q 52 38.703125 52 26.59375 
Q 52 17 45.25 10.59375 
Q 38.5 4.203125 27.546875 4.203125 
Q 16.59375 4.203125 10 10.59375 
Q 3.40625 17 3.40625 26 
Q 3.40625 38.59375 17.296875 45.40625 
Q 6.796875 51 6.796875 60.90625 
Q 6.796875 68.296875 12.9375 73.9375 
Q 19.09375 79.59375 27.796875 79.59375 
Q 36.5 79.59375 42.59375 74.09375 
Q 48.703125 68.59375 48.703125 60.703125 
Q 48.703125 51.09375 38.40625 45.40625 
z
M 41.5 61 
Q 41.5 65.796875 37.75 69.25 
Q 34 72.703125 27.953125 72.703125 
Q 21.90625 72.703125 18 69.25 
Q 14.09375 65.796875 14.09375 60.890625 
Q 14.09375 56 18.34375 52.140625 
Q 22.59375 48.296875 28 48.296875 
Q 33.40625 48.296875 37.453125 52.09375 
Q 41.5 55.90625 41.5 61 
z
M 44.796875 26.5 
Q 44.796875 32.59375 39.84375 37.1875 
Q 34.90625 41.796875 27.84375 41.796875 
Q 20.796875 41.796875 15.6875 37.046875 
Q 10.59375 32.296875 10.59375 25.84375 
Q 10.59375 19.40625 15.296875 15.203125 
Q 20 11 27.59375 11 
Q 35.203125 11 40 15.5 
Q 44.796875 20 44.796875 26.5 
z
" id="STXihei-56"/>
      </defs>
      <g transform="translate(325.440609 322.543375)scale(0.1 -0.1)">
       <use xlink:href="#STXihei-56"/>
       <use x="55.399994" xlink:href="#STXihei-48"/>
       <use x="110.799988" xlink:href="#STXihei-48"/>
      </g>
     </g>
    </g>
    <g id="xtick_6">
     <g id="line2d_11">
      <path clip-path="url(#p1908290799)" d="M 398.812578 307.584 
L 398.812578 41.472 
" style="fill:none;stroke:#b0b0b0;stroke-dasharray:0.8,1.32;stroke-dashoffset:0;stroke-width:0.8;"/>
     </g>
     <g id="line2d_12">
      <g>
       <use style="stroke:#000000;stroke-width:0.8;" x="398.812578" xlink:href="#mba1a364273" y="307.584"/>
      </g>
     </g>
     <g id="text_6">
      <!-- 1000 -->
      <defs>
       <path d="M 18.5 77.796875 
L 32.59375 77.796875 
L 32.59375 6 
L 25.5 6 
L 25.5 70.796875 
L 14.203125 70.796875 
z
" id="STXihei-49"/>
      </defs>
      <g transform="translate(387.731328 322.543375)scale(0.1 -0.1)">
       <use xlink:href="#STXihei-49"/>
       <use x="55.399994" xlink:href="#STXihei-48"/>
       <use x="110.799988" xlink:href="#STXihei-48"/>
       <use x="166.199982" xlink:href="#STXihei-48"/>
      </g>
     </g>
    </g>
   </g>
   <g id="matplotlib.axis_2">
    <g id="ytick_1">
     <g id="line2d_13">
      <path clip-path="url(#p1908290799)" d="M 57.6 298.042124 
L 414.72 298.042124 
" style="fill:none;stroke:#b0b0b0;stroke-dasharray:0.8,1.32;stroke-dashoffset:0;stroke-width:0.8;"/>
     </g>
     <g id="line2d_14">
      <defs>
       <path d="M 0 0 
L -3.5 0 
" id="mde5193143f" style="stroke:#000000;stroke-width:0.8;"/>
      </defs>
      <g>
       <use style="stroke:#000000;stroke-width:0.8;" x="57.6" xlink:href="#mde5193143f" y="298.042124"/>
      </g>
     </g>
     <g id="text_7">
      <!-- 160 -->
      <g transform="translate(33.978125 302.021812)scale(0.1 -0.1)">
       <use xlink:href="#STXihei-49"/>
       <use x="55.399994" xlink:href="#STXihei-54"/>
       <use x="110.799988" xlink:href="#STXihei-48"/>
      </g>
     </g>
    </g>
    <g id="ytick_2">
     <g id="line2d_15">
      <path clip-path="url(#p1908290799)" d="M 57.6 253.344947 
L 414.72 253.344947 
" style="fill:none;stroke:#b0b0b0;stroke-dasharray:0.8,1.32;stroke-dashoffset:0;stroke-width:0.8;"/>
     </g>
     <g id="line2d_16">
      <g>
       <use style="stroke:#000000;stroke-width:0.8;" x="57.6" xlink:href="#mde5193143f" y="253.344947"/>
      </g>
     </g>
     <g id="text_8">
      <!-- 170 -->
      <defs>
       <path d="M 7.203125 77.796875 
L 52.703125 77.796875 
L 14.296875 4.203125 
L 8.40625 7.203125 
L 41.59375 71 
L 7.203125 71 
z
" id="STXihei-55"/>
      </defs>
      <g transform="translate(33.978125 257.324635)scale(0.1 -0.1)">
       <use xlink:href="#STXihei-49"/>
       <use x="55.399994" xlink:href="#STXihei-55"/>
       <use x="110.799988" xlink:href="#STXihei-48"/>
      </g>
     </g>
    </g>
    <g id="ytick_3">
     <g id="line2d_17">
      <path clip-path="url(#p1908290799)" d="M 57.6 208.64777 
L 414.72 208.64777 
" style="fill:none;stroke:#b0b0b0;stroke-dasharray:0.8,1.32;stroke-dashoffset:0;stroke-width:0.8;"/>
     </g>
     <g id="line2d_18">
      <g>
       <use style="stroke:#000000;stroke-width:0.8;" x="57.6" xlink:href="#mde5193143f" y="208.64777"/>
      </g>
     </g>
     <g id="text_9">
      <!-- 180 -->
      <g transform="translate(33.978125 212.627458)scale(0.1 -0.1)">
       <use xlink:href="#STXihei-49"/>
       <use x="55.399994" xlink:href="#STXihei-56"/>
       <use x="110.799988" xlink:href="#STXihei-48"/>
      </g>
     </g>
    </g>
    <g id="ytick_4">
     <g id="line2d_19">
      <path clip-path="url(#p1908290799)" d="M 57.6 163.950594 
L 414.72 163.950594 
" style="fill:none;stroke:#b0b0b0;stroke-dasharray:0.8,1.32;stroke-dashoffset:0;stroke-width:0.8;"/>
     </g>
     <g id="line2d_20">
      <g>
       <use style="stroke:#000000;stroke-width:0.8;" x="57.6" xlink:href="#mde5193143f" y="163.950594"/>
      </g>
     </g>
     <g id="text_10">
      <!-- 190 -->
      <defs>
       <path d="M 19.203125 4.203125 
L 13.296875 8 
L 32.703125 37.40625 
Q 28.90625 36.09375 25.203125 36.09375 
Q 16.59375 36.09375 10.75 42.296875 
Q 4.90625 48.5 4.90625 57.75 
Q 4.90625 67 11.40625 73.296875 
Q 17.90625 79.59375 27.34375 79.59375 
Q 36.796875 79.59375 42.9375 73.140625 
Q 49.09375 66.703125 49.09375 57.703125 
Q 49.09375 52.703125 47.046875 47.640625 
Q 45 42.59375 41 36.703125 
z
M 11.90625 57.5 
Q 11.90625 51.203125 16.296875 46.796875 
Q 20.703125 42.40625 27 42.40625 
Q 33.296875 42.40625 37.6875 46.84375 
Q 42.09375 51.296875 42.09375 57.5 
Q 42.09375 63.703125 37.6875 68.140625 
Q 33.296875 72.59375 27 72.59375 
Q 20.703125 72.59375 16.296875 68.1875 
Q 11.90625 63.796875 11.90625 57.5 
z
" id="STXihei-57"/>
      </defs>
      <g transform="translate(33.978125 167.930281)scale(0.1 -0.1)">
       <use xlink:href="#STXihei-49"/>
       <use x="55.399994" xlink:href="#STXihei-57"/>
       <use x="110.799988" xlink:href="#STXihei-48"/>
      </g>
     </g>
    </g>
    <g id="ytick_5">
     <g id="line2d_21">
      <path clip-path="url(#p1908290799)" d="M 57.6 119.253417 
L 414.72 119.253417 
" style="fill:none;stroke:#b0b0b0;stroke-dasharray:0.8,1.32;stroke-dashoffset:0;stroke-width:0.8;"/>
     </g>
     <g id="line2d_22">
      <g>
       <use style="stroke:#000000;stroke-width:0.8;" x="57.6" xlink:href="#mde5193143f" y="119.253417"/>
      </g>
     </g>
     <g id="text_11">
      <!-- 200 -->
      <g transform="translate(33.978125 123.233104)scale(0.1 -0.1)">
       <use xlink:href="#STXihei-50"/>
       <use x="55.399994" xlink:href="#STXihei-48"/>
       <use x="110.799988" xlink:href="#STXihei-48"/>
      </g>
     </g>
    </g>
    <g id="ytick_6">
     <g id="line2d_23">
      <path clip-path="url(#p1908290799)" d="M 57.6 74.55624 
L 414.72 74.55624 
" style="fill:none;stroke:#b0b0b0;stroke-dasharray:0.8,1.32;stroke-dashoffset:0;stroke-width:0.8;"/>
     </g>
     <g id="line2d_24">
      <g>
       <use style="stroke:#000000;stroke-width:0.8;" x="57.6" xlink:href="#mde5193143f" y="74.55624"/>
      </g>
     </g>
     <g id="text_12">
      <!-- 210 -->
      <g transform="translate(33.978125 78.535927)scale(0.1 -0.1)">
       <use xlink:href="#STXihei-50"/>
       <use x="55.399994" xlink:href="#STXihei-49"/>
       <use x="110.799988" xlink:href="#STXihei-48"/>
      </g>
     </g>
    </g>
   </g>
   <g id="line2d_25">
    <path clip-path="url(#p1908290799)" d="M 73.832727 74.195331 
L 74.483338 57.3159 
L 74.808643 53.873384 
L 75.133948 53.568 
L 75.784558 59.842262 
L 76.435169 66.671769 
L 77.085779 72.335262 
L 77.736389 77.721133 
L 78.386999 81.968753 
L 79.68822 90.269657 
L 80.33883 93.712173 
L 80.664136 95.322381 
L 80.989441 96.044199 
L 81.314746 96.460633 
L 81.640051 97.765457 
L 83.266577 101.652168 
L 84.242492 103.123566 
L 84.567797 103.290139 
L 84.893103 104.345104 
L 85.543713 105.094683 
L 86.519628 105.594403 
L 86.844934 106.316221 
L 87.170239 106.67713 
L 87.495544 106.399508 
L 87.820849 106.371746 
L 88.146154 106.843703 
L 88.471459 107.038039 
L 89.12207 106.843703 
L 89.447375 107.093563 
L 90.097985 106.732655 
L 91.399206 106.92699 
L 92.049816 106.899228 
L 93.025731 107.287899 
L 93.351037 108.093003 
L 93.676342 107.621046 
L 94.001647 108.093003 
L 94.326952 107.954192 
L 94.652257 107.398948 
L 94.977562 107.287899 
L 95.302868 107.787619 
L 95.628173 107.398948 
L 95.953478 107.565521 
L 96.278783 107.232375 
L 96.604088 107.093563 
L 96.929393 107.42671 
L 97.254698 107.093563 
L 97.580004 107.038039 
L 97.905309 107.343423 
L 98.230614 106.704892 
L 99.206529 108.037479 
L 99.85714 108.398388 
L 100.50775 108.787059 
L 101.483666 110.42503 
L 102.134276 110.702652 
L 102.459581 111.17461 
L 102.784886 110.758177 
L 103.110191 111.202372 
L 103.760802 111.091323 
L 104.411412 111.563281 
L 104.736717 112.451672 
L 105.062022 112.784819 
L 105.712633 112.090763 
L 106.037938 112.590483 
L 106.363243 112.368386 
L 107.339158 112.534959 
L 107.664463 111.896428 
L 107.989769 111.785379 
L 108.315074 112.17405 
L 108.640379 112.257337 
L 108.965684 112.590483 
L 109.290989 112.257337 
L 109.616294 112.534959 
L 109.9416 112.063001 
L 110.59221 112.951392 
L 110.917515 112.479434 
L 111.24282 112.42391 
L 111.568125 112.118526 
L 111.89343 112.340623 
L 112.218736 112.840343 
L 112.544041 112.840343 
L 114.170567 114.894748 
L 114.495872 114.950272 
L 114.821177 115.477754 
L 115.471787 115.866426 
L 115.797092 116.42167 
L 116.447703 116.782579 
L 116.773008 116.865866 
L 117.098313 117.559921 
L 117.748923 117.393348 
L 118.074228 117.698732 
L 118.399534 117.754257 
L 118.724839 117.476634 
L 119.050144 117.865305 
L 119.700754 117.532159 
L 120.026059 117.67097 
L 120.351365 117.476634 
L 121.001975 117.698732 
L 121.32728 117.948592 
L 121.652585 118.031879 
L 122.303195 117.698732 
L 122.953806 117.893068 
L 123.279111 118.004117 
L 123.929721 118.753697 
L 124.255026 118.253977 
L 124.580332 118.614885 
L 124.905637 119.308941 
L 125.230942 118.948032 
L 125.881552 119.725374 
L 126.206857 119.308941 
L 126.532163 120.114045 
L 126.857468 120.586003 
L 127.182773 120.808101 
L 127.508078 120.586003 
L 128.158688 121.196772 
L 128.483993 121.196772 
L 129.134604 120.835863 
L 129.459909 120.474954 
L 130.435824 120.946912 
L 131.086435 121.16901 
L 131.737045 120.835863 
L 132.06235 121.307821 
L 132.387655 121.557681 
L 132.71296 121.335583 
L 133.038266 121.335583 
L 133.363571 121.807541 
L 133.688876 121.974114 
L 134.664791 123.16789 
L 135.966012 124.361665 
L 136.291317 125.000196 
L 136.941927 125.139008 
L 137.267233 125.277819 
L 137.592538 125.250056 
L 137.917843 124.639288 
L 138.243148 124.778099 
L 138.568453 124.583763 
L 138.893758 124.750336 
L 139.219064 125.083483 
L 139.869674 124.861385 
L 140.194979 124.611525 
L 140.520284 124.972434 
L 140.845589 124.444952 
L 141.170895 124.444952 
L 141.4962 124.583763 
L 141.821505 124.444952 
L 142.14681 124.472714 
L 142.472115 124.139568 
L 142.79742 124.583763 
L 143.122725 124.750336 
L 143.448031 124.694812 
L 144.423946 124.028519 
L 145.074556 124.111805 
L 145.725167 124.778099 
L 146.050472 124.805861 
L 146.375777 125.444392 
L 146.701082 125.16677 
L 147.026387 125.66649 
L 147.351692 125.944112 
L 147.676998 125.860825 
L 148.002303 126.527119 
L 148.327608 126.443832 
L 148.652913 126.860265 
L 148.978218 126.749216 
L 149.303523 127.137888 
L 149.954134 127.304461 
L 150.279439 127.554321 
L 150.604744 127.998516 
L 150.930049 127.554321 
L 151.255354 127.554321 
L 151.58066 128.248376 
L 151.905965 128.331663 
L 152.23127 128.026279 
L 152.556575 127.970754 
L 152.88188 128.109565 
L 153.207185 127.554321 
L 153.53249 127.887468 
L 153.857796 127.693132 
L 154.508406 128.720334 
L 154.833711 128.997956 
L 155.484321 129.941872 
L 155.809627 129.969634 
L 156.134932 129.331103 
L 156.460237 129.747536 
L 156.785542 129.497676 
L 158.412068 130.025159 
L 158.737373 129.719774 
L 159.387983 129.941872 
L 159.713288 129.553201 
L 160.038594 129.719774 
L 160.689204 129.442152 
L 161.014509 128.748096 
L 161.665119 128.775859 
L 161.990424 128.553761 
L 162.31573 128.581523 
L 162.641035 128.331663 
L 163.61695 128.387188 
L 163.942255 127.998516 
L 164.267561 128.387188 
L 164.592866 128.581523 
L 164.918171 128.970194 
L 165.568781 129.192292 
L 165.894086 129.608725 
L 166.219392 129.580963 
L 166.544697 129.719774 
L 167.195307 129.303341 
L 167.520612 129.66425 
L 167.845917 129.775299 
L 168.171222 129.747536 
L 168.496528 130.052921 
L 168.821833 129.997396 
L 169.147138 130.108445 
L 169.472443 130.41383 
L 169.797748 130.191732 
L 170.123053 130.497116 
L 170.448359 129.692012 
L 170.773664 130.497116 
L 171.098969 129.997396 
L 172.074884 130.858025 
L 172.400189 130.91355 
L 172.725495 131.191172 
L 173.0508 131.718654 
L 173.376105 131.801941 
L 174.026715 132.551521 
L 174.35202 132.273899 
L 174.677326 132.718094 
L 175.002631 132.579283 
L 175.327936 132.773619 
L 175.978546 132.718094 
L 176.303851 133.051241 
L 176.629156 132.940192 
L 176.954462 133.134527 
L 177.605072 132.66257 
L 178.580987 133.41215 
L 178.906293 133.190052 
L 179.231598 132.745856 
L 179.556903 132.66257 
L 179.882208 132.967954 
L 180.207513 133.439912 
L 180.532818 132.91243 
L 180.858124 133.41215 
L 181.508734 134.106205 
L 181.834039 133.884107 
L 182.159344 133.856345 
L 182.809954 134.828023 
L 183.13526 134.994596 
L 183.460565 134.800261 
L 183.78587 135.16117 
L 184.111175 135.188932 
L 184.43648 134.994596 
L 184.761785 135.633127 
L 185.087091 135.438792 
L 185.412396 135.577603 
L 185.737701 135.438792 
L 186.388311 136.91019 
L 186.713616 136.91019 
L 187.038921 137.104525 
L 187.364227 136.743616 
L 187.689532 137.076763 
L 188.014837 136.604805 
L 188.340142 136.632567 
L 188.665447 136.826903 
L 189.316058 137.826343 
L 189.641363 138.187252 
L 189.966668 137.770818 
L 190.291973 137.826343 
L 190.617278 137.687532 
L 191.267889 137.90963 
L 191.593194 138.242776 
L 191.918499 137.937392 
L 192.894414 138.798021 
L 193.87033 138.90907 
L 194.195635 138.381587 
L 194.52094 138.90907 
L 195.496856 139.741936 
L 196.472771 139.852985 
L 196.798076 139.65865 
L 197.123381 139.936272 
L 197.448686 139.769698 
L 197.773992 140.047321 
L 198.099297 139.936272 
L 198.424602 139.492076 
L 198.749907 140.075083 
L 199.400517 139.880747 
L 199.725823 139.603125 
L 200.051128 139.741936 
L 200.376433 138.853545 
L 200.701738 138.964594 
L 201.027043 139.242216 
L 201.352348 139.020118 
L 202.002959 138.881307 
L 203.304179 138.353825 
L 203.629484 137.937392 
L 203.95479 138.131727 
L 204.280095 138.520398 
L 204.6054 138.65921 
L 204.930705 138.631447 
L 205.25601 139.15893 
L 205.906621 138.686972 
L 206.557231 138.575923 
L 206.882536 138.298301 
L 207.207841 138.881307 
L 207.858451 138.992356 
L 208.183757 139.464314 
L 208.834367 139.630887 
L 209.484977 139.519838 
L 209.810282 139.630887 
L 210.135588 139.603125 
L 210.786198 140.047321 
L 211.111503 140.15837 
L 211.436808 139.381027 
L 212.087418 139.40879 
L 212.412724 139.852985 
L 213.063334 139.741936 
L 213.388639 140.019558 
L 213.713944 139.741936 
L 214.039249 139.797461 
L 214.364555 139.65865 
L 215.015165 138.881307 
L 215.34047 138.853545 
L 215.665775 138.686972 
L 215.99108 138.298301 
L 216.316385 138.631447 
L 216.641691 138.548161 
L 217.292301 139.575363 
L 217.617606 139.769698 
L 218.268216 139.297741 
L 218.918827 139.436552 
L 219.244132 139.547601 
L 219.569437 139.825223 
L 219.894742 139.880747 
L 220.220047 140.075083 
L 220.870658 140.824663 
L 221.195963 141.046761 
L 221.521268 141.463194 
L 221.846573 141.574243 
L 222.171878 141.879627 
L 222.497183 141.740816 
L 222.822489 142.629207 
L 223.473099 143.184452 
L 223.798404 143.073403 
L 224.123709 143.128927 
L 224.77432 143.628647 
L 225.750235 145.072283 
L 226.07554 144.877947 
L 226.72615 145.238856 
L 227.376761 144.988996 
L 227.702066 145.211094 
L 228.027371 145.183332 
L 228.352676 145.349905 
L 229.003287 144.739136 
L 229.328592 144.433752 
L 229.979202 144.628087 
L 230.304507 144.211654 
L 230.955118 144.683612 
L 231.931033 146.043961 
L 232.256338 146.682492 
L 232.906948 146.821303 
L 233.232254 146.626967 
L 233.557559 146.849065 
L 233.882864 146.765778 
L 234.208169 146.543681 
L 234.533474 146.460394 
L 235.50939 147.432072 
L 235.834695 148.04284 
L 236.16 148.015078 
L 236.485305 148.459274 
L 236.81061 148.709134 
L 237.135915 149.125567 
L 237.461221 148.986756 
L 237.786526 149.625287 
L 238.111831 149.208854 
L 239.087746 150.013958 
L 239.413052 149.514238 
L 239.738357 149.347665 
L 240.063662 149.514238 
L 240.388967 149.403189 
L 240.714272 149.097805 
L 241.364882 149.514238 
L 241.690188 149.542 
L 242.015493 149.708574 
L 242.340798 149.653049 
L 242.991408 148.986756 
L 243.316713 149.264378 
L 243.642019 149.264378 
L 243.967324 149.736336 
L 244.617934 149.902909 
L 244.943239 150.097245 
L 245.59385 151.013398 
L 246.24446 151.096685 
L 246.569765 151.235496 
L 246.89507 151.568643 
L 247.54568 150.874587 
L 247.870986 150.874587 
L 248.196291 151.263258 
L 248.521596 152.0406 
L 249.172206 152.373747 
L 249.822817 153.067803 
L 251.124037 154.150529 
L 251.774647 155.177731 
L 252.099953 155.510878 
L 252.425258 154.872347 
L 252.750563 154.927871 
L 253.401173 155.28878 
L 253.726478 154.872347 
L 254.051784 154.955634 
L 254.377089 155.205494 
L 255.678309 155.594165 
L 256.003615 155.177731 
L 256.32892 156.010598 
L 256.654225 155.899549 
L 256.97953 156.371507 
L 257.304835 156.204934 
L 257.63014 156.204934 
L 257.955445 155.566403 
L 258.280751 155.53864 
L 258.606056 155.205494 
L 258.931361 155.122207 
L 259.256666 154.705774 
L 259.581971 154.5392 
L 259.907276 154.622487 
L 260.232582 154.900109 
L 260.557887 155.344305 
L 260.883192 155.372067 
L 261.533802 156.03836 
L 262.184412 155.927311 
L 262.509718 156.066123 
L 262.835023 155.816263 
L 263.160328 156.149409 
L 263.485633 156.204934 
L 263.810938 156.565843 
L 264.136243 156.260458 
L 264.461549 156.482556 
L 264.786854 156.177171 
L 265.112159 156.704654 
L 265.437464 156.676891 
L 266.088074 155.955074 
L 266.413379 156.149409 
L 266.738685 156.177171 
L 267.06399 156.482556 
L 267.389295 156.121647 
L 267.7146 156.177171 
L 269.015821 155.483116 
L 269.341126 155.927311 
L 269.666431 155.927311 
L 270.642347 155.566403 
L 270.967652 155.621927 
L 271.943567 155.261018 
L 272.268872 155.205494 
L 272.919483 155.705214 
L 273.244788 156.121647 
L 273.570093 156.03836 
L 273.895398 156.482556 
L 274.546008 156.815703 
L 274.871314 156.732416 
L 275.196619 156.427031 
L 275.521924 157.454234 
L 275.847229 157.53752 
L 276.172534 157.898429 
L 276.497839 157.53752 
L 276.823144 157.343185 
L 277.79906 157.842905 
L 278.124365 158.148289 
L 278.774975 157.926191 
L 279.750891 158.009478 
L 280.076196 157.704094 
L 280.401501 158.176051 
L 282.028027 158.203814 
L 282.353332 158.648009 
L 282.678637 158.814583 
L 283.329248 157.981716 
L 283.979858 158.925631 
L 284.630468 158.564723 
L 284.955773 158.564723 
L 285.281079 158.981156 
L 285.606384 158.953394 
L 285.931689 158.78682 
L 286.256994 158.759058 
L 286.582299 158.592485 
L 286.907604 158.814583 
L 287.558215 159.619687 
L 287.88352 159.5364 
L 288.208825 159.897309 
L 288.53413 159.980596 
L 288.859435 159.78626 
L 289.510046 160.397029 
L 290.160656 160.424791 
L 290.485961 160.730176 
L 290.811266 160.563602 
L 291.136571 160.868987 
L 291.461876 160.341505 
L 292.112487 159.841785 
L 292.437792 160.063882 
L 293.088402 159.647449 
L 293.413707 159.5364 
L 293.739013 160.063882 
L 294.389623 160.619127 
L 294.714928 160.674651 
L 295.040233 160.369267 
L 295.365538 160.508078 
L 295.690844 160.091645 
L 296.016149 160.008358 
L 296.992064 160.619127 
L 297.642674 160.896749 
L 298.293285 161.507518 
L 298.61859 161.729616 
L 298.943895 161.590805 
L 299.2692 162.035 
L 299.594505 162.756818 
L 299.919811 162.479196 
L 300.245116 163.03444 
L 300.895726 163.201014 
L 301.221031 163.450874 
L 301.546336 163.506398 
L 301.871641 163.423111 
L 302.522252 162.978916 
L 302.847557 162.895629 
L 303.172862 163.173251 
L 303.498167 162.618007 
L 303.823472 162.368147 
L 304.148778 162.729056 
L 304.474083 162.368147 
L 305.449998 162.840105 
L 305.775303 162.756818 
L 306.425914 162.756818 
L 306.751219 163.173251 
L 307.076524 163.228776 
L 308.377745 162.951154 
L 308.70305 162.479196 
L 309.028355 162.368147 
L 309.35366 162.562482 
L 309.678965 162.978916 
L 310.00427 162.978916 
L 310.329576 163.423111 
L 310.654881 163.450874 
L 310.980186 163.2843 
L 311.630796 164.478076 
L 313.257322 166.449193 
L 313.582627 166.726816 
L 313.907932 166.53248 
L 314.233237 166.837865 
L 314.558543 166.837865 
L 314.883848 166.449193 
L 315.859763 166.171571 
L 316.185068 166.393669 
L 316.835679 166.338145 
L 317.160984 166.365907 
L 317.486289 166.088285 
L 317.811594 166.643529 
L 318.462204 166.03276 
L 318.78751 165.977236 
L 319.112815 165.727376 
L 319.43812 166.116047 
L 319.763425 165.755138 
L 320.414035 165.949473 
L 320.73934 166.365907 
L 321.064646 166.143809 
L 321.389951 166.171571 
L 321.715256 165.949473 
L 322.040561 166.171571 
L 322.365866 166.03276 
L 322.691171 165.505278 
L 323.016477 165.588565 
L 323.341782 166.28262 
L 323.992392 165.893949 
L 324.317697 165.588565 
L 325.293613 165.588565 
L 325.618918 165.810662 
L 326.269528 166.921151 
L 326.594833 166.893389 
L 326.920138 167.198773 
L 327.245444 167.143249 
L 327.570749 167.78178 
L 327.896054 168.059402 
L 328.221359 168.670171 
L 328.546664 168.836745 
L 328.871969 168.642409 
L 329.52258 169.475276 
L 329.847885 169.586325 
L 330.17319 169.419751 
L 330.498495 169.447513 
L 330.8238 169.28094 
L 331.149105 169.641849 
L 331.474411 169.28094 
L 332.125021 169.725136 
L 332.775631 170.835625 
L 333.100936 170.585765 
L 333.426242 170.613527 
L 333.751547 170.002758 
L 334.076852 169.863947 
L 334.402157 170.113807 
L 334.727462 170.696813 
L 335.378073 170.835625 
L 335.703378 170.946673 
L 336.028683 170.669051 
L 337.329903 171.390869 
L 337.655209 172.307022 
L 338.305819 172.418071 
L 338.631124 172.112687 
L 339.281734 172.973316 
L 339.932345 173.473036 
L 340.25765 174.27814 
L 340.582955 174.305902 
L 340.90826 173.722896 
L 341.233565 174.111567 
L 341.55887 174.305902 
L 341.884176 174.305902 
L 342.209481 174.167091 
L 342.534786 174.389189 
L 342.860091 174.888909 
L 343.185396 174.694573 
L 343.510701 174.666811 
L 343.836007 175.083244 
L 344.161312 174.944433 
L 344.486617 175.083244 
L 344.811922 174.694573 
L 345.137227 174.861147 
L 346.438448 174.999958 
L 346.763753 174.666811 
L 347.089058 175.166531 
L 347.414363 175.111007 
L 347.739668 175.305342 
L 348.390279 175.194293 
L 348.715584 174.750098 
L 349.040889 175.138769 
L 349.366194 175.111007 
L 350.016805 175.333104 
L 350.34211 175.610727 
L 350.667415 175.499678 
L 350.99272 175.610727 
L 351.318025 175.388629 
L 351.968635 175.832824 
L 352.293941 175.694013 
L 352.619246 175.7773 
L 352.944551 175.499678 
L 353.595161 175.638489 
L 353.920466 175.471916 
L 354.245772 175.166531 
L 354.571077 175.138769 
L 354.896382 175.444153 
L 355.872297 175.7773 
L 356.197602 175.638489 
L 356.522908 176.138209 
L 356.848213 176.221496 
L 357.173518 176.165971 
L 357.824128 176.804502 
L 358.149433 177.165411 
L 358.474739 177.692893 
L 358.800044 177.498558 
L 359.125349 177.637369 
L 359.450654 178.02604 
L 360.42657 178.664571 
L 360.751875 179.053242 
L 361.402485 178.692333 
L 362.053095 179.164291 
L 362.3784 179.469675 
L 362.703706 179.414151 
L 363.029011 179.497438 
L 363.354316 179.247578 
L 363.679621 179.469675 
L 364.004926 179.5252 
L 364.330231 179.913871 
L 364.980842 179.414151 
L 365.306147 179.941633 
L 365.631452 179.802822 
L 365.956757 179.858347 
L 366.282062 179.691773 
L 366.607367 179.719535 
L 366.932673 179.552962 
L 367.257978 179.5252 
L 367.583283 179.719535 
L 368.559198 179.636249 
L 369.209809 180.219255 
L 369.535114 180.247018 
L 369.860419 180.802262 
L 370.185724 180.885549 
L 370.836334 181.440793 
L 371.16164 181.440793 
L 371.81225 182.412471 
L 372.137555 182.495758 
L 372.46286 182.245898 
L 372.788165 182.717855 
L 373.438776 183.02324 
L 373.764081 182.939953 
L 374.414691 183.994918 
L 375.065302 184.244778 
L 375.715912 185.383029 
L 376.041217 185.188693 
L 376.366522 185.466315 
L 377.342438 185.216455 
L 377.667743 185.410791 
L 377.993048 185.910511 
L 378.643658 186.02156 
L 378.968963 186.160371 
L 379.294269 186.104846 
L 379.944879 186.632329 
L 380.270184 186.854426 
L 380.595489 186.715615 
L 380.920794 187.215335 
L 381.571405 187.492958 
L 381.89671 187.437433 
L 382.872625 187.909391 
L 383.19793 188.77002 
L 383.523236 188.908831 
L 384.499151 190.074844 
L 384.824456 190.241417 
L 385.149761 190.713375 
L 385.475066 190.907711 
L 386.125677 192.26806 
L 386.450982 192.351346 
L 386.776287 192.656731 
L 388.077508 194.822184 
L 388.402813 194.933233 
L 388.728118 194.738897 
L 389.053423 195.655051 
L 389.704034 196.460155 
L 390.679949 198.76442 
L 391.005254 198.736657 
L 391.98117 200.208055 
L 392.306475 201.290782 
L 392.63178 201.929313 
L 393.607695 205.954835 
L 394.258306 209.036442 
L 394.583611 210.785462 
L 395.559526 219.225177 
L 395.884831 222.612168 
L 396.535442 233.88363 
L 397.186052 249.37495 
L 398.161968 282.772902 
L 398.487273 295.488 
L 398.487273 295.488 
" style="fill:none;stroke:#4bacc6;stroke-linecap:square;stroke-width:2;"/>
   </g>
   <g id="patch_3">
    <path d="M 57.6 307.584 
L 57.6 41.472 
" style="fill:none;stroke:#000000;stroke-linecap:square;stroke-linejoin:miter;stroke-width:0.8;"/>
   </g>
   <g id="patch_4">
    <path d="M 414.72 307.584 
L 414.72 41.472 
" style="fill:none;stroke:#000000;stroke-linecap:square;stroke-linejoin:miter;stroke-width:0.8;"/>
   </g>
   <g id="patch_5">
    <path d="M 57.6 307.584 
L 414.72 307.584 
" style="fill:none;stroke:#000000;stroke-linecap:square;stroke-linejoin:miter;stroke-width:0.8;"/>
   </g>
   <g id="patch_6">
    <path d="M 57.6 41.472 
L 414.72 41.472 
" style="fill:none;stroke:#000000;stroke-linecap:square;stroke-linejoin:miter;stroke-width:0.8;"/>
   </g>
   <g id="text_13">
    <!-- 2018秋季 Average -->
    <defs>
     <path d="M 69.703125 23.59375 
Q 64.796875 5.5 44.203125 -9.09375 
Q 42.09375 -5.703125 38.90625 -4.59375 
Q 52 3 58.390625 12.390625 
Q 64.796875 21.796875 65.9375 34.796875 
Q 67.09375 47.796875 67.09375 59.6875 
Q 67.09375 71.59375 65.5 79.5 
Q 71.203125 78.796875 74 78.703125 
Q 74.90625 78.703125 74.90625 78.09375 
Q 74.90625 77.5 74.09375 76.796875 
Q 73.296875 76.09375 73.046875 73.640625 
Q 72.796875 71.203125 72.59375 63 
L 72.40625 45.203125 
Q 72.40625 37.5 71.40625 31.703125 
Q 81.203125 6.90625 97 -2.796875 
Q 93.796875 -4.5 91.90625 -7.796875 
Q 76.09375 6 69.703125 23.59375 
z
M 23.703125 67.40625 
Q 15.40625 65.59375 8.5 64.703125 
Q 8.203125 68.09375 6.296875 70.5 
Q 27.5 71.09375 39.796875 78.59375 
Q 41.203125 75.59375 43.90625 73.59375 
Q 44.703125 73 44.703125 72.34375 
Q 44.703125 71.703125 43.90625 71.703125 
L 42.796875 71.796875 
Q 40.90625 71.796875 29.5 68.90625 
L 29.5 51.203125 
Q 39.203125 51.203125 45.5 52 
L 45.5 45.59375 
Q 39.203125 46.40625 29.5 46.40625 
L 29.5 41.296875 
Q 39 34 46.09375 27.09375 
L 41.296875 22.40625 
Q 36.90625 28.703125 29.5 35.5 
L 29.5 7.90625 
Q 29.5 0.40625 30.296875 -9.296875 
L 22.796875 -9.296875 
Q 23.703125 -0.296875 23.703125 7.90625 
L 23.703125 34.90625 
Q 18.5 23.296875 8.59375 9.203125 
Q 6.5 12.203125 2.59375 13.203125 
Q 17.296875 28.203125 23.203125 46.40625 
Q 12.40625 46.40625 5.703125 45.59375 
L 5.703125 52 
Q 12.59375 51.203125 23.703125 51.203125 
z
M 87.40625 62.296875 
Q 90.796875 59.90625 93.90625 59.203125 
Q 95.40625 58.90625 95.40625 58.15625 
Q 95.40625 57.40625 94.25 56.546875 
Q 93.09375 55.703125 90.6875 51 
Q 88.296875 46.296875 82 32.09375 
Q 80.09375 33.90625 77 34.703125 
Q 85 48.5 87.40625 62.296875 
z
M 57.296875 61.09375 
Q 57.40625 47.5 54.5 32.296875 
L 48.296875 33.40625 
Q 51.5 42.703125 51.5 55.09375 
Q 51.5 58.203125 51.296875 61.09375 
z
" id="STXihei-31179"/>
     <path d="M 47.5 70.296875 
Q 33.09375 69.5 21.90625 69.296875 
Q 21.5 72.296875 19 75.703125 
Q 29.703125 74.796875 35.703125 74.796875 
Q 41.703125 74.796875 54.890625 75.5 
Q 68.09375 76.203125 78 79.296875 
Q 78.59375 76.203125 79.796875 74.59375 
Q 81 73 81 72.5 
Q 81 71.5 79 71.84375 
Q 77 72.203125 74.703125 72.203125 
Q 72.40625 72.203125 67.25 71.59375 
Q 62.09375 71 53.296875 70.59375 
L 53.296875 60.90625 
Q 79.203125 60.90625 92.09375 61.59375 
L 92.09375 55.59375 
Q 80.5 56.203125 61.703125 56.203125 
Q 76.796875 43.5 96.5 38.40625 
Q 93.40625 35.796875 91.796875 32.40625 
Q 67.703125 42.703125 55.203125 56.203125 
L 53.296875 56.203125 
L 53.296875 48.203125 
Q 53.296875 43.59375 53.59375 37.296875 
L 47 37.296875 
Q 47.5 44.40625 47.5 48.203125 
L 47.5 56.203125 
L 45.703125 56.203125 
Q 37.59375 47.40625 30.25 41.953125 
Q 22.90625 36.5 9 29.90625 
Q 7.703125 33.296875 3.703125 36.09375 
Q 24.203125 41.09375 39.203125 56.203125 
Q 20.40625 56.09375 8.5 55.59375 
L 8.5 61.59375 
Q 21.40625 60.90625 47.5 60.90625 
z
M 49.09375 13.296875 
Q 23.5 13.296875 12.203125 12.40625 
L 12.203125 18.90625 
Q 26 18 49.09375 18 
L 49.09375 22.203125 
L 63.796875 30.5 
L 42.59375 30.5 
Q 31.796875 30.5 23.90625 30 
L 23.90625 35.59375 
Q 33 35.203125 50.890625 35.203125 
Q 68.796875 35.203125 77.59375 35.59375 
L 77.59375 30.90625 
Q 73.703125 31.09375 68.703125 28.09375 
L 54.90625 19.90625 
L 54.90625 18 
Q 76.703125 18 90.09375 18.90625 
L 90.09375 12.5 
Q 80.703125 13.296875 54.90625 13.296875 
L 54.90625 2.203125 
Q 54.90625 -3.09375 53.703125 -5.390625 
Q 52.5 -7.703125 48.546875 -8.640625 
Q 44.59375 -9.59375 35.203125 -10 
Q 35.09375 -6.09375 32.296875 -2.5 
Q 38 -3.203125 41.59375 -3.203125 
Q 45.203125 -3.203125 47.140625 -2.390625 
Q 49.09375 -1.59375 49.09375 0.90625 
z
" id="STXihei-23395"/>
     <path id="STXihei-32"/>
     <path d="M 38.09375 80.703125 
L 71.59375 6 
L 63.90625 6 
L 52.59375 30.5 
L 21.59375 30.5 
L 10.40625 6 
L 2.40625 6 
L 36.296875 80.703125 
z
M 37.203125 64.796875 
L 24.90625 37.796875 
L 49.40625 37.796875 
z
" id="STXihei-65"/>
     <path d="M 2.59375 59.09375 
L 9.90625 59.09375 
L 27.59375 18.703125 
L 45.296875 59.09375 
L 52.59375 59.09375 
L 28.296875 4.203125 
L 27.09375 4.203125 
z
" id="STXihei-118"/>
     <path d="M 52.296875 23.203125 
L 58.09375 20.203125 
Q 49.5 4.203125 32.703125 4.203125 
Q 20.703125 4.203125 12.890625 12.453125 
Q 5.09375 20.703125 5.09375 32.296875 
Q 5.09375 43.90625 12.9375 52.203125 
Q 20.796875 60.5 32.34375 60.5 
Q 43.90625 60.5 51.75 52.796875 
Q 59.59375 45.09375 59.90625 31.796875 
L 12.09375 31.796875 
Q 12.40625 22.203125 18.15625 16.34375 
Q 23.90625 10.5 32.09375 10.5 
Q 45.59375 10.5 52.296875 23.203125 
z
M 52.296875 37.703125 
Q 50.90625 45.296875 45.296875 49.59375 
Q 39.703125 53.90625 32.40625 53.90625 
Q 17.40625 53.90625 12.796875 37.703125 
z
" id="STXihei-101"/>
     <path d="M 5 59.09375 
L 12 59.09375 
L 12 51.40625 
Q 14.796875 56.09375 17.4375 58.296875 
Q 20.09375 60.5 23.34375 60.5 
Q 26.59375 60.5 29.90625 58.703125 
L 26.296875 52.90625 
Q 24.796875 53.796875 23.203125 53.796875 
Q 20.09375 53.796875 17.34375 50.59375 
Q 14.59375 47.40625 13.296875 42.34375 
Q 12 37.296875 12 24 
L 12 6 
L 5 6 
z
" id="STXihei-114"/>
     <path d="M 60.5 59.09375 
L 60.5 6 
L 53.796875 6 
L 53.796875 15.09375 
Q 44.703125 4.203125 33 4.203125 
Q 21.296875 4.203125 13.25 12.546875 
Q 5.203125 20.90625 5.203125 32.453125 
Q 5.203125 44 13.296875 52.25 
Q 21.40625 60.5 32.703125 60.5 
Q 45.703125 60.5 53.796875 49.40625 
L 53.796875 59.09375 
z
M 54.203125 32.296875 
Q 54.203125 41.40625 48.09375 47.65625 
Q 42 53.90625 33.140625 53.90625 
Q 24.296875 53.90625 18.1875 47.453125 
Q 12.09375 41 12.09375 32.203125 
Q 12.09375 23.40625 18.296875 16.953125 
Q 24.5 10.5 33.140625 10.5 
Q 41.796875 10.5 48 16.703125 
Q 54.203125 22.90625 54.203125 32.296875 
z
" id="STXihei-97"/>
     <path d="M 54.09375 59.09375 
L 61 59.09375 
L 61 18.09375 
Q 61 7.203125 59.09375 2.09375 
Q 57.203125 -3 53.59375 -6.390625 
Q 50 -9.796875 44.890625 -11.59375 
Q 39.796875 -13.40625 33.703125 -13.40625 
Q 12.90625 -13.40625 6.296875 3.203125 
L 13.703125 3.203125 
Q 19.5 -7.203125 33.40625 -7.203125 
Q 40.09375 -7.203125 45.046875 -4.59375 
Q 50 -2 52.046875 2.046875 
Q 54.09375 6.09375 54.09375 14.703125 
L 54.09375 17 
Q 50 11.90625 44.390625 9.40625 
Q 38.796875 6.90625 32.59375 6.90625 
Q 21 6.90625 13.296875 14.796875 
Q 5.59375 22.703125 5.59375 33.40625 
Q 5.59375 44.5 13.796875 52.5 
Q 22 60.5 33.640625 60.5 
Q 45.296875 60.5 54.09375 49.90625 
z
M 54.40625 33.40625 
Q 54.40625 42.09375 48.5 48 
Q 42.59375 53.90625 33.90625 53.90625 
Q 24.703125 53.90625 18.59375 47.546875 
Q 12.5 41.203125 12.5 33 
Q 12.5 24.796875 18.390625 19.046875 
Q 24.296875 13.296875 33.5 13.296875 
Q 42.703125 13.296875 48.546875 18.890625 
Q 54.40625 24.5 54.40625 33.40625 
z
" id="STXihei-103"/>
    </defs>
    <g transform="translate(183.856875 35.472)scale(0.12 -0.12)">
     <use xlink:href="#STXihei-50"/>
     <use x="55.399994" xlink:href="#STXihei-48"/>
     <use x="110.799988" xlink:href="#STXihei-49"/>
     <use x="166.199982" xlink:href="#STXihei-56"/>
     <use x="221.599976" xlink:href="#STXihei-31179"/>
     <use x="321.59996" xlink:href="#STXihei-23395"/>
     <use x="421.599945" xlink:href="#STXihei-32"/>
     <use x="446.59993" xlink:href="#STXihei-65"/>
     <use x="520.599915" xlink:href="#STXihei-118"/>
     <use x="575.999908" xlink:href="#STXihei-101"/>
     <use x="640.999893" xlink:href="#STXihei-114"/>
     <use x="671.099884" xlink:href="#STXihei-97"/>
     <use x="739.399872" xlink:href="#STXihei-103"/>
     <use x="806.69986" xlink:href="#STXihei-101"/>
    </g>
   </g>
  </g>
 </g>
 <defs>
  <clipPath id="p1908290799">
   <rect height="266.112" width="357.12" x="57.6" y="41.472"/>
  </clipPath>
 </defs>
</svg>
