<?xml version="1.0" encoding="utf-8" standalone="no"?>
<!DOCTYPE svg PUBLIC "-//W3C//DTD SVG 1.1//EN"
  "http://www.w3.org/Graphics/SVG/1.1/DTD/svg11.dtd">
<!-- Created with matplotlib (https://matplotlib.org/) -->
<svg height="345.6pt" version="1.1" viewBox="0 0 460.8 345.6" width="460.8pt" xmlns="http://www.w3.org/2000/svg" xmlns:xlink="http://www.w3.org/1999/xlink">
 <defs>
  <style type="text/css">
*{stroke-linecap:butt;stroke-linejoin:round;}
  </style>
 </defs>
 <g id="figure_1">
  <g id="patch_1">
   <path d="M 0 345.6 
L 460.8 345.6 
L 460.8 0 
L 0 0 
z
" style="fill:#ffffff;"/>
  </g>
  <g id="axes_1">
   <g id="patch_2">
    <path d="M 57.6 307.584 
L 414.72 307.584 
L 414.72 41.472 
L 57.6 41.472 
z
" style="fill:#ffffff;"/>
   </g>
   <g id="matplotlib.axis_1">
    <g id="xtick_1">
     <g id="line2d_1">
      <path clip-path="url(#p6f78e43184)" d="M 73.507422 307.584 
L 73.507422 41.472 
" style="fill:none;stroke:#b0b0b0;stroke-dasharray:0.8,1.32;stroke-dashoffset:0;stroke-width:0.8;"/>
     </g>
     <g id="line2d_2">
      <defs>
       <path d="M 0 0 
L 0 3.5 
" id="m8691903f20" style="stroke:#000000;stroke-width:0.8;"/>
      </defs>
      <g>
       <use style="stroke:#000000;stroke-width:0.8;" x="73.507422" xlink:href="#m8691903f20" y="307.584"/>
      </g>
     </g>
     <g id="text_1">
      <!-- 0 -->
      <defs>
       <path d="M 27.296875 4.203125 
Q 15.703125 4.203125 9.453125 13.75 
Q 3.203125 23.296875 3.203125 41.890625 
Q 3.203125 60.5 9.453125 70.046875 
Q 15.703125 79.59375 27.203125 79.59375 
Q 38.703125 79.59375 45.453125 69.84375 
Q 52.203125 60.09375 52.203125 41.890625 
Q 52.203125 23.703125 45.390625 13.953125 
Q 38.59375 4.203125 27.296875 4.203125 
z
M 27.5 72.796875 
Q 19.203125 72.796875 14.59375 64.796875 
Q 10 56.796875 10 41.703125 
Q 10 10.703125 27.5 10.703125 
Q 36 10.703125 40.75 18.84375 
Q 45.5 27 45.5 41.890625 
Q 45.5 56.796875 40.59375 64.796875 
Q 35.703125 72.796875 27.5 72.796875 
z
" id="STXihei-48"/>
      </defs>
      <g transform="translate(70.73711 322.543375)scale(0.1 -0.1)">
       <use xlink:href="#STXihei-48"/>
      </g>
     </g>
    </g>
    <g id="xtick_2">
     <g id="line2d_3">
      <path clip-path="url(#p6f78e43184)" d="M 138.568453 307.584 
L 138.568453 41.472 
" style="fill:none;stroke:#b0b0b0;stroke-dasharray:0.8,1.32;stroke-dashoffset:0;stroke-width:0.8;"/>
     </g>
     <g id="line2d_4">
      <g>
       <use style="stroke:#000000;stroke-width:0.8;" x="138.568453" xlink:href="#m8691903f20" y="307.584"/>
      </g>
     </g>
     <g id="text_2">
      <!-- 200 -->
      <defs>
       <path d="M 11.59375 55.296875 
L 4.703125 55.296875 
Q 5.203125 66.296875 12 72.9375 
Q 18.796875 79.59375 28.4375 79.59375 
Q 38.09375 79.59375 44.4375 73.34375 
Q 50.796875 67.09375 50.796875 58.09375 
Q 50.796875 51.40625 47.25 45.703125 
Q 43.703125 40 36.5 32.203125 
L 18.59375 12.90625 
L 51.796875 12.90625 
L 51.796875 6 
L 3 6 
L 30.40625 35.59375 
Q 37.59375 43.40625 40.6875 47.90625 
Q 43.796875 52.40625 43.796875 58.203125 
Q 43.796875 64 39.25 68.390625 
Q 34.703125 72.796875 27.953125 72.796875 
Q 21.203125 72.796875 16.75 68.25 
Q 12.296875 63.703125 11.59375 55.296875 
z
" id="STXihei-50"/>
      </defs>
      <g transform="translate(130.257516 322.543375)scale(0.1 -0.1)">
       <use xlink:href="#STXihei-50"/>
       <use x="55.399994" xlink:href="#STXihei-48"/>
       <use x="110.799988" xlink:href="#STXihei-48"/>
      </g>
     </g>
    </g>
    <g id="xtick_3">
     <g id="line2d_5">
      <path clip-path="url(#p6f78e43184)" d="M 203.629484 307.584 
L 203.629484 41.472 
" style="fill:none;stroke:#b0b0b0;stroke-dasharray:0.8,1.32;stroke-dashoffset:0;stroke-width:0.8;"/>
     </g>
     <g id="line2d_6">
      <g>
       <use style="stroke:#000000;stroke-width:0.8;" x="203.629484" xlink:href="#m8691903f20" y="307.584"/>
      </g>
     </g>
     <g id="text_3">
      <!-- 400 -->
      <defs>
       <path d="M 42.59375 79.59375 
L 44 79.59375 
L 44 29.59375 
L 52.703125 29.59375 
L 52.703125 22.703125 
L 44 22.703125 
L 44 6 
L 36.90625 6 
L 36.90625 22.703125 
L 2.5 22.703125 
z
M 36.90625 29.59375 
L 36.90625 59.5 
L 15.703125 29.59375 
z
" id="STXihei-52"/>
      </defs>
      <g transform="translate(195.318547 322.543375)scale(0.1 -0.1)">
       <use xlink:href="#STXihei-52"/>
       <use x="55.399994" xlink:href="#STXihei-48"/>
       <use x="110.799988" xlink:href="#STXihei-48"/>
      </g>
     </g>
    </g>
    <g id="xtick_4">
     <g id="line2d_7">
      <path clip-path="url(#p6f78e43184)" d="M 268.690516 307.584 
L 268.690516 41.472 
" style="fill:none;stroke:#b0b0b0;stroke-dasharray:0.8,1.32;stroke-dashoffset:0;stroke-width:0.8;"/>
     </g>
     <g id="line2d_8">
      <g>
       <use style="stroke:#000000;stroke-width:0.8;" x="268.690516" xlink:href="#m8691903f20" y="307.584"/>
      </g>
     </g>
     <g id="text_4">
      <!-- 600 -->
      <defs>
       <path d="M 36.703125 79.59375 
L 42.59375 75.796875 
L 23.203125 46.40625 
Q 27.296875 47.796875 31 47.796875 
Q 39 47.796875 45 41.4375 
Q 51 35.09375 51 25.9375 
Q 51 16.796875 44.453125 10.5 
Q 37.90625 4.203125 28.546875 4.203125 
Q 19.203125 4.203125 12.953125 10.59375 
Q 6.703125 17 6.703125 26.203125 
Q 6.703125 30.59375 8.390625 35.25 
Q 10.09375 39.90625 14.90625 47.09375 
z
M 43.90625 26.296875 
Q 43.90625 32.59375 39.5 37 
Q 35.09375 41.40625 28.796875 41.40625 
Q 22.5 41.40625 18.09375 37 
Q 13.703125 32.59375 13.703125 26.296875 
Q 13.703125 20 18.140625 15.59375 
Q 22.59375 11.203125 28.796875 11.203125 
Q 35 11.203125 39.453125 15.59375 
Q 43.90625 20 43.90625 26.296875 
z
" id="STXihei-54"/>
      </defs>
      <g transform="translate(260.379578 322.543375)scale(0.1 -0.1)">
       <use xlink:href="#STXihei-54"/>
       <use x="55.399994" xlink:href="#STXihei-48"/>
       <use x="110.799988" xlink:href="#STXihei-48"/>
      </g>
     </g>
    </g>
    <g id="xtick_5">
     <g id="line2d_9">
      <path clip-path="url(#p6f78e43184)" d="M 333.751547 307.584 
L 333.751547 41.472 
" style="fill:none;stroke:#b0b0b0;stroke-dasharray:0.8,1.32;stroke-dashoffset:0;stroke-width:0.8;"/>
     </g>
     <g id="line2d_10">
      <g>
       <use style="stroke:#000000;stroke-width:0.8;" x="333.751547" xlink:href="#m8691903f20" y="307.584"/>
      </g>
     </g>
     <g id="text_5">
      <!-- 800 -->
      <defs>
       <path d="M 38.40625 45.40625 
Q 52 38.703125 52 26.59375 
Q 52 17 45.25 10.59375 
Q 38.5 4.203125 27.546875 4.203125 
Q 16.59375 4.203125 10 10.59375 
Q 3.40625 17 3.40625 26 
Q 3.40625 38.59375 17.296875 45.40625 
Q 6.796875 51 6.796875 60.90625 
Q 6.796875 68.296875 12.9375 73.9375 
Q 19.09375 79.59375 27.796875 79.59375 
Q 36.5 79.59375 42.59375 74.09375 
Q 48.703125 68.59375 48.703125 60.703125 
Q 48.703125 51.09375 38.40625 45.40625 
z
M 41.5 61 
Q 41.5 65.796875 37.75 69.25 
Q 34 72.703125 27.953125 72.703125 
Q 21.90625 72.703125 18 69.25 
Q 14.09375 65.796875 14.09375 60.890625 
Q 14.09375 56 18.34375 52.140625 
Q 22.59375 48.296875 28 48.296875 
Q 33.40625 48.296875 37.453125 52.09375 
Q 41.5 55.90625 41.5 61 
z
M 44.796875 26.5 
Q 44.796875 32.59375 39.84375 37.1875 
Q 34.90625 41.796875 27.84375 41.796875 
Q 20.796875 41.796875 15.6875 37.046875 
Q 10.59375 32.296875 10.59375 25.84375 
Q 10.59375 19.40625 15.296875 15.203125 
Q 20 11 27.59375 11 
Q 35.203125 11 40 15.5 
Q 44.796875 20 44.796875 26.5 
z
" id="STXihei-56"/>
      </defs>
      <g transform="translate(325.440609 322.543375)scale(0.1 -0.1)">
       <use xlink:href="#STXihei-56"/>
       <use x="55.399994" xlink:href="#STXihei-48"/>
       <use x="110.799988" xlink:href="#STXihei-48"/>
      </g>
     </g>
    </g>
    <g id="xtick_6">
     <g id="line2d_11">
      <path clip-path="url(#p6f78e43184)" d="M 398.812578 307.584 
L 398.812578 41.472 
" style="fill:none;stroke:#b0b0b0;stroke-dasharray:0.8,1.32;stroke-dashoffset:0;stroke-width:0.8;"/>
     </g>
     <g id="line2d_12">
      <g>
       <use style="stroke:#000000;stroke-width:0.8;" x="398.812578" xlink:href="#m8691903f20" y="307.584"/>
      </g>
     </g>
     <g id="text_6">
      <!-- 1000 -->
      <defs>
       <path d="M 18.5 77.796875 
L 32.59375 77.796875 
L 32.59375 6 
L 25.5 6 
L 25.5 70.796875 
L 14.203125 70.796875 
z
" id="STXihei-49"/>
      </defs>
      <g transform="translate(387.731328 322.543375)scale(0.1 -0.1)">
       <use xlink:href="#STXihei-49"/>
       <use x="55.399994" xlink:href="#STXihei-48"/>
       <use x="110.799988" xlink:href="#STXihei-48"/>
       <use x="166.199982" xlink:href="#STXihei-48"/>
      </g>
     </g>
    </g>
   </g>
   <g id="matplotlib.axis_2">
    <g id="ytick_1">
     <g id="line2d_13">
      <path clip-path="url(#p6f78e43184)" d="M 57.6 298.748661 
L 414.72 298.748661 
" style="fill:none;stroke:#b0b0b0;stroke-dasharray:0.8,1.32;stroke-dashoffset:0;stroke-width:0.8;"/>
     </g>
     <g id="line2d_14">
      <defs>
       <path d="M 0 0 
L -3.5 0 
" id="m8e229765b7" style="stroke:#000000;stroke-width:0.8;"/>
      </defs>
      <g>
       <use style="stroke:#000000;stroke-width:0.8;" x="57.6" xlink:href="#m8e229765b7" y="298.748661"/>
      </g>
     </g>
     <g id="text_7">
      <!-- 45 -->
      <defs>
       <path d="M 49.203125 77.796875 
L 49.203125 71 
L 23.59375 71 
L 20 51.40625 
Q 24.796875 52.796875 29 52.796875 
Q 38.40625 52.796875 44.703125 46.140625 
Q 51 39.5 51 29.09375 
Q 51 18.703125 44.140625 11.453125 
Q 37.296875 4.203125 26 4.203125 
Q 17.40625 4.203125 11.34375 9.34375 
Q 5.296875 14.5 4.09375 23.40625 
L 11.40625 23.40625 
Q 12.703125 17.40625 16.796875 14.203125 
Q 20.90625 11 26.296875 11 
Q 33.40625 11 38.546875 16.296875 
Q 43.703125 21.59375 43.703125 29.5 
Q 43.703125 36.703125 39.203125 41.34375 
Q 34.703125 46 27.453125 46 
Q 20.203125 46 11.40625 42.203125 
L 18.09375 77.796875 
z
" id="STXihei-53"/>
      </defs>
      <g transform="translate(39.51875 302.728348)scale(0.1 -0.1)">
       <use xlink:href="#STXihei-52"/>
       <use x="55.399994" xlink:href="#STXihei-53"/>
      </g>
     </g>
    </g>
    <g id="ytick_2">
     <g id="line2d_15">
      <path clip-path="url(#p6f78e43184)" d="M 57.6 256.412661 
L 414.72 256.412661 
" style="fill:none;stroke:#b0b0b0;stroke-dasharray:0.8,1.32;stroke-dashoffset:0;stroke-width:0.8;"/>
     </g>
     <g id="line2d_16">
      <g>
       <use style="stroke:#000000;stroke-width:0.8;" x="57.6" xlink:href="#m8e229765b7" y="256.412661"/>
      </g>
     </g>
     <g id="text_8">
      <!-- 50 -->
      <g transform="translate(39.51875 260.392348)scale(0.1 -0.1)">
       <use xlink:href="#STXihei-53"/>
       <use x="55.399994" xlink:href="#STXihei-48"/>
      </g>
     </g>
    </g>
    <g id="ytick_3">
     <g id="line2d_17">
      <path clip-path="url(#p6f78e43184)" d="M 57.6 214.076661 
L 414.72 214.076661 
" style="fill:none;stroke:#b0b0b0;stroke-dasharray:0.8,1.32;stroke-dashoffset:0;stroke-width:0.8;"/>
     </g>
     <g id="line2d_18">
      <g>
       <use style="stroke:#000000;stroke-width:0.8;" x="57.6" xlink:href="#m8e229765b7" y="214.076661"/>
      </g>
     </g>
     <g id="text_9">
      <!-- 55 -->
      <g transform="translate(39.51875 218.056348)scale(0.1 -0.1)">
       <use xlink:href="#STXihei-53"/>
       <use x="55.399994" xlink:href="#STXihei-53"/>
      </g>
     </g>
    </g>
    <g id="ytick_4">
     <g id="line2d_19">
      <path clip-path="url(#p6f78e43184)" d="M 57.6 171.740661 
L 414.72 171.740661 
" style="fill:none;stroke:#b0b0b0;stroke-dasharray:0.8,1.32;stroke-dashoffset:0;stroke-width:0.8;"/>
     </g>
     <g id="line2d_20">
      <g>
       <use style="stroke:#000000;stroke-width:0.8;" x="57.6" xlink:href="#m8e229765b7" y="171.740661"/>
      </g>
     </g>
     <g id="text_10">
      <!-- 60 -->
      <g transform="translate(39.51875 175.720348)scale(0.1 -0.1)">
       <use xlink:href="#STXihei-54"/>
       <use x="55.399994" xlink:href="#STXihei-48"/>
      </g>
     </g>
    </g>
    <g id="ytick_5">
     <g id="line2d_21">
      <path clip-path="url(#p6f78e43184)" d="M 57.6 129.404661 
L 414.72 129.404661 
" style="fill:none;stroke:#b0b0b0;stroke-dasharray:0.8,1.32;stroke-dashoffset:0;stroke-width:0.8;"/>
     </g>
     <g id="line2d_22">
      <g>
       <use style="stroke:#000000;stroke-width:0.8;" x="57.6" xlink:href="#m8e229765b7" y="129.404661"/>
      </g>
     </g>
     <g id="text_11">
      <!-- 65 -->
      <g transform="translate(39.51875 133.384348)scale(0.1 -0.1)">
       <use xlink:href="#STXihei-54"/>
       <use x="55.399994" xlink:href="#STXihei-53"/>
      </g>
     </g>
    </g>
    <g id="ytick_6">
     <g id="line2d_23">
      <path clip-path="url(#p6f78e43184)" d="M 57.6 87.068661 
L 414.72 87.068661 
" style="fill:none;stroke:#b0b0b0;stroke-dasharray:0.8,1.32;stroke-dashoffset:0;stroke-width:0.8;"/>
     </g>
     <g id="line2d_24">
      <g>
       <use style="stroke:#000000;stroke-width:0.8;" x="57.6" xlink:href="#m8e229765b7" y="87.068661"/>
      </g>
     </g>
     <g id="text_12">
      <!-- 70 -->
      <defs>
       <path d="M 7.203125 77.796875 
L 52.703125 77.796875 
L 14.296875 4.203125 
L 8.40625 7.203125 
L 41.59375 71 
L 7.203125 71 
z
" id="STXihei-55"/>
      </defs>
      <g transform="translate(39.51875 91.048348)scale(0.1 -0.1)">
       <use xlink:href="#STXihei-55"/>
       <use x="55.399994" xlink:href="#STXihei-48"/>
      </g>
     </g>
    </g>
    <g id="ytick_7">
     <g id="line2d_25">
      <path clip-path="url(#p6f78e43184)" d="M 57.6 44.732661 
L 414.72 44.732661 
" style="fill:none;stroke:#b0b0b0;stroke-dasharray:0.8,1.32;stroke-dashoffset:0;stroke-width:0.8;"/>
     </g>
     <g id="line2d_26">
      <g>
       <use style="stroke:#000000;stroke-width:0.8;" x="57.6" xlink:href="#m8e229765b7" y="44.732661"/>
      </g>
     </g>
     <g id="text_13">
      <!-- 75 -->
      <g transform="translate(39.51875 48.712348)scale(0.1 -0.1)">
       <use xlink:href="#STXihei-55"/>
       <use x="55.399994" xlink:href="#STXihei-53"/>
      </g>
     </g>
    </g>
   </g>
   <g id="line2d_27">
    <path clip-path="url(#p6f78e43184)" d="M 73.832727 118.623443 
L 74.158032 75.971896 
L 74.483338 61.824835 
L 74.808643 54.935374 
L 75.133948 53.830957 
L 75.459253 53.568 
L 76.109863 57.459757 
L 76.435169 58.353809 
L 76.760474 61.561878 
L 77.411084 64.980313 
L 78.061694 66.768417 
L 79.03761 70.817948 
L 79.68822 72.658643 
L 80.33883 75.866713 
L 80.664136 76.445217 
L 80.989441 78.496278 
L 81.314746 79.022191 
L 81.640051 80.810296 
L 81.965356 81.283617 
L 82.290661 81.3888 
L 82.615966 82.493217 
L 82.941272 83.01913 
L 83.266577 84.807235 
L 83.917187 85.0176 
L 84.893103 87.85753 
L 85.543713 88.751583 
L 85.869018 88.698991 
L 86.194323 89.540452 
L 86.519628 89.487861 
L 86.844934 90.64487 
L 87.170239 90.855235 
L 87.495544 91.381148 
L 88.146154 91.644104 
L 88.796764 92.643339 
L 89.12207 92.643339 
L 89.77268 93.274435 
L 90.097985 94.010713 
L 90.42329 95.062539 
L 90.748595 96.535096 
L 91.073901 97.1136 
L 91.399206 96.745461 
L 91.724511 96.903235 
L 92.049816 97.429148 
L 92.375121 97.376557 
L 92.700426 97.744696 
L 93.025731 98.849113 
L 93.351037 99.322435 
L 93.676342 100.006122 
L 94.001647 100.006122 
L 94.326952 99.5328 
L 94.652257 99.900939 
L 94.977562 99.637983 
L 95.302868 99.743165 
L 95.628173 99.217252 
L 96.278783 101.268313 
L 96.604088 100.900174 
L 96.929393 100.7424 
L 97.580004 101.952 
L 97.905309 102.37273 
L 98.230614 102.583096 
L 98.555919 103.109009 
L 98.881224 104.055652 
L 99.206529 103.897878 
L 99.85714 104.423791 
L 100.182445 104.79193 
L 100.50775 104.213426 
L 100.833055 104.949704 
L 101.15836 104.423791 
L 101.483666 104.634157 
L 101.808971 104.634157 
L 102.459581 105.16007 
L 102.784886 104.949704 
L 103.110191 105.054887 
L 103.435496 105.843757 
L 103.760802 106.00153 
L 104.086107 106.527443 
L 104.736717 106.632626 
L 105.062022 107.316313 
L 105.387327 107.421496 
L 105.712633 108.157774 
L 106.037938 108.105183 
L 106.363243 108.473322 
L 106.688548 109.157009 
L 107.339158 109.63033 
L 107.664463 110.208835 
L 107.989769 109.262191 
L 108.315074 110.051061 
L 109.290989 111.418435 
L 109.616294 111.523617 
L 109.9416 110.945113 
L 110.266905 111.576209 
L 110.59221 111.681391 
L 110.917515 111.523617 
L 111.568125 111.681391 
L 111.89343 112.259896 
L 112.218736 112.04953 
L 112.869346 113.101357 
L 113.194651 113.153948 
L 113.519956 112.996174 
L 113.845261 113.416904 
L 114.170567 113.364313 
L 114.495872 113.62727 
L 115.146482 113.048765 
L 115.471787 113.101357 
L 116.122398 114.310957 
L 116.447703 114.048 
L 116.773008 114.573913 
L 117.423618 115.047235 
L 117.748923 114.83687 
L 118.074228 115.573148 
L 118.399534 115.625739 
L 118.724839 115.941287 
L 119.050144 115.783513 
L 119.700754 116.414609 
L 120.351365 116.730157 
L 120.67667 116.414609 
L 121.32728 116.940522 
L 121.652585 117.571617 
L 121.97789 117.25607 
L 122.303195 117.361252 
L 122.628501 117.25607 
L 122.953806 116.519791 
L 123.279111 116.4672 
L 123.604416 116.835339 
L 123.929721 116.4672 
L 124.580332 117.413843 
L 124.905637 117.045704 
L 125.230942 117.624209 
L 125.556247 117.624209 
L 125.881552 116.782748 
L 126.206857 116.624974 
L 126.532163 116.624974 
L 126.857468 117.413843 
L 127.182773 117.834574 
L 127.508078 117.571617 
L 128.158688 117.887165 
L 128.483993 117.571617 
L 128.809299 117.519026 
L 129.134604 117.939757 
L 129.785214 117.466435 
L 130.110519 117.939757 
L 130.435824 117.992348 
L 130.76113 118.46567 
L 131.086435 119.149357 
L 132.06235 120.148591 
L 132.387655 120.148591 
L 133.363571 121.147826 
L 133.688876 120.674504 
L 134.014181 121.200417 
L 134.339486 120.990052 
L 134.664791 121.358191 
L 135.315402 121.515965 
L 135.640707 121.936696 
L 136.291317 123.146296 
L 136.616622 123.146296 
L 137.267233 122.199652 
L 137.917843 123.198887 
L 138.243148 122.304835 
L 138.568453 122.830748 
L 138.893758 122.5152 
L 139.219064 122.830748 
L 140.194979 122.357426 
L 140.520284 122.883339 
L 142.14681 123.619617 
L 142.472115 124.198122 
L 142.79742 124.092939 
L 143.122725 124.461078 
L 143.448031 124.250713 
L 143.773336 124.303304 
L 144.098641 123.619617 
L 144.423946 123.514435 
L 145.074556 123.935165 
L 145.399862 124.198122 
L 145.725167 124.303304 
L 146.050472 124.776626 
L 146.701082 124.566261 
L 147.026387 124.618852 
L 147.351692 124.829217 
L 147.676998 124.408487 
L 148.327608 124.408487 
L 148.652913 125.197357 
L 148.978218 125.512904 
L 149.303523 125.460313 
L 149.628829 125.670678 
L 149.954134 126.512139 
L 150.604744 127.090643 
L 150.930049 127.301009 
L 151.58066 128.300243 
L 152.88188 129.194296 
L 153.53249 129.194296 
L 154.183101 129.562435 
L 154.833711 130.035757 
L 155.159016 129.667617 
L 155.484321 129.562435 
L 155.809627 129.720209 
L 156.134932 129.667617 
L 156.460237 130.035757 
L 156.785542 129.930574 
L 157.761457 131.350539 
L 158.086763 130.9824 
L 158.737373 131.40313 
L 159.062678 131.350539 
L 159.713288 131.666087 
L 160.038594 131.508313 
L 160.363899 131.981635 
L 160.689204 131.929043 
L 161.014509 132.086817 
L 161.665119 131.666087 
L 161.990424 132.297183 
L 162.641035 133.033461 
L 162.96634 133.138643 
L 163.291645 132.402365 
L 163.61695 132.349774 
L 164.267561 133.033461 
L 164.592866 132.98087 
L 165.243476 133.191235 
L 165.894086 133.874922 
L 166.870002 134.979339 
L 167.520612 134.506017 
L 168.171222 134.874157 
L 168.496528 134.137878 
L 168.821833 134.348243 
L 169.472443 135.137113 
L 169.797748 135.505252 
L 170.773664 137.0304 
L 171.098969 137.0304 
L 172.074884 137.661496 
L 173.0508 137.556313 
L 173.70141 137.977043 
L 174.35202 137.345948 
L 174.677326 136.977809 
L 175.002631 137.345948 
L 175.327936 137.398539 
L 175.978546 138.555548 
L 176.303851 138.345183 
L 176.629156 138.502957 
L 176.954462 138.134817 
L 177.279767 138.66073 
L 177.930377 139.186643 
L 178.255682 139.712557 
L 178.580987 139.765148 
L 178.906293 140.185878 
L 179.231598 139.554783 
L 179.556903 139.659965 
L 179.882208 140.448835 
L 180.858124 141.605843 
L 181.183429 141.605843 
L 181.508734 142.236939 
L 181.834039 141.8688 
L 183.13526 141.921391 
L 183.460565 142.184348 
L 184.111175 142.394713 
L 184.43648 143.025809 
L 185.087091 142.762852 
L 185.412396 143.183583 
L 185.737701 143.341357 
L 186.063006 143.814678 
L 186.388311 143.551722 
L 187.038921 144.025043 
L 187.364227 143.972452 
L 187.689532 143.762087 
L 188.014837 144.130226 
L 188.340142 143.972452 
L 188.665447 144.077635 
L 188.990752 143.762087 
L 189.316058 143.656904 
L 189.641363 144.235409 
L 189.966668 144.235409 
L 190.291973 143.919861 
L 190.617278 143.762087 
L 190.942583 144.182817 
L 191.267889 144.288 
L 191.593194 143.972452 
L 191.918499 144.130226 
L 192.243804 143.919861 
L 192.569109 144.130226 
L 193.219719 144.130226 
L 193.545025 143.762087 
L 193.87033 143.709496 
L 194.195635 144.235409 
L 194.52094 144.130226 
L 194.846245 143.656904 
L 195.17155 143.393948 
L 195.496856 143.656904 
L 195.822161 143.656904 
L 196.147466 144.077635 
L 196.798076 144.393183 
L 197.123381 144.340591 
L 197.448686 144.866504 
L 197.773992 144.603548 
L 198.099297 144.761322 
L 198.749907 144.393183 
L 199.075212 144.971687 
L 199.400517 144.70873 
L 199.725823 145.655374 
L 200.051128 145.602783 
L 200.701738 145.813148 
L 201.027043 145.865739 
L 201.352348 146.28647 
L 201.677653 146.391652 
L 202.328264 147.443478 
L 202.653569 147.811617 
L 202.978874 147.601252 
L 203.304179 147.180522 
L 203.629484 147.548661 
L 204.6054 147.759026 
L 205.906621 147.864209 
L 206.557231 149.073809 
L 206.882536 148.547896 
L 207.207841 148.33753 
L 207.533146 149.231583 
L 208.183757 149.284174 
L 208.509062 149.704904 
L 209.159672 150.020452 
L 209.484977 150.336 
L 209.810282 150.178226 
L 210.135588 150.283409 
L 210.460893 150.914504 
L 210.786198 151.282643 
L 211.111503 151.230052 
L 211.762113 150.493774 
L 212.087418 150.336 
L 212.738029 150.546365 
L 213.063334 149.91527 
L 213.713944 149.652313 
L 214.039249 149.810087 
L 214.364555 149.54713 
L 214.68986 149.54713 
L 215.34047 150.441183 
L 215.665775 149.91527 
L 215.99108 150.598957 
L 216.316385 150.073043 
L 216.641691 150.75673 
L 217.292301 151.230052 
L 217.617606 150.704139 
L 218.268216 151.598191 
L 218.593522 151.703374 
L 218.918827 151.440417 
L 219.894742 152.281878 
L 220.220047 151.703374 
L 220.545353 151.5456 
L 220.870658 151.019687 
L 221.195963 151.598191 
L 221.846573 152.018922 
L 222.171878 151.598191 
L 222.497183 151.703374 
L 222.822489 151.387826 
L 223.147794 151.5456 
L 223.473099 152.229287 
L 223.798404 152.281878 
L 224.449014 152.807791 
L 224.77432 152.965565 
L 225.099625 152.807791 
L 225.42493 153.018157 
L 225.750235 153.438887 
L 226.400845 153.018157 
L 226.72615 153.386296 
L 227.051456 152.965565 
L 227.376761 153.438887 
L 227.702066 153.649252 
L 228.027371 153.386296 
L 228.352676 152.860383 
L 228.677981 153.228522 
L 229.003287 153.9648 
L 229.328592 154.280348 
L 229.653897 154.438122 
L 229.979202 155.1744 
L 230.304507 155.016626 
L 230.629812 155.226991 
L 231.280423 154.543304 
L 231.605728 155.384765 
L 231.931033 155.1744 
L 232.581643 155.647722 
L 232.906948 155.752904 
L 233.232254 156.226226 
L 233.557559 155.910678 
L 233.882864 156.173635 
L 234.208169 155.647722 
L 234.533474 155.752904 
L 234.858779 155.647722 
L 235.50939 155.858087 
L 236.81061 157.698783 
L 237.135915 157.856557 
L 237.461221 157.698783 
L 237.786526 157.856557 
L 238.111831 158.277287 
L 238.437136 158.277287 
L 238.762441 158.066922 
L 239.087746 158.698017 
L 239.413052 158.698017 
L 239.738357 158.855791 
L 240.063662 158.645426 
L 240.388967 158.592835 
L 240.714272 158.698017 
L 241.364882 159.644661 
L 241.690188 159.539478 
L 242.340798 159.855026 
L 243.316713 159.22393 
L 243.967324 159.907617 
L 244.292629 159.697252 
L 244.617934 159.907617 
L 244.943239 160.43353 
L 245.59385 160.538713 
L 245.919155 159.907617 
L 246.24446 160.170574 
L 246.569765 160.275757 
L 246.89507 160.591304 
L 247.220375 161.117217 
L 247.870986 160.80167 
L 248.196291 161.274991 
L 248.521596 161.432765 
L 248.846901 160.906852 
L 249.172206 161.064626 
L 249.497511 161.380174 
L 249.822817 161.485357 
L 250.148122 161.800904 
L 250.473427 161.64313 
L 250.798732 162.747548 
L 251.124037 163.010504 
L 251.449342 163.063096 
L 251.774647 162.747548 
L 252.425258 163.6416 
L 252.750563 163.378643 
L 253.401173 163.22087 
L 253.726478 163.483826 
L 254.051784 164.009739 
L 254.377089 165.008974 
L 254.702394 165.534887 
L 255.027699 165.27193 
L 255.353004 165.745252 
L 255.678309 165.324522 
L 256.003615 165.587478 
L 256.32892 165.587478 
L 256.654225 166.008209 
L 257.304835 165.850435 
L 257.63014 166.744487 
L 257.955445 166.271165 
L 258.280751 166.323757 
L 258.606056 166.534122 
L 258.931361 166.954852 
L 259.581971 166.954852 
L 259.907276 166.954852 
L 260.232582 166.376348 
L 260.557887 166.84967 
L 261.208497 166.639304 
L 261.533802 166.218574 
L 261.859107 166.271165 
L 262.184412 166.008209 
L 262.509718 166.113391 
L 262.835023 165.955617 
L 263.160328 165.166748 
L 263.485633 165.482296 
L 264.136243 166.639304 
L 264.461549 166.0608 
L 264.786854 166.534122 
L 265.112159 166.48153 
L 265.437464 166.639304 
L 266.088074 166.428939 
L 266.413379 167.112626 
L 267.389295 167.165217 
L 267.7146 167.901496 
L 268.039905 168.006678 
L 268.36521 168.585183 
L 268.690516 168.90073 
L 269.015821 169.742191 
L 269.341126 169.6896 
L 269.666431 170.425878 
L 269.991736 170.531061 
L 270.317041 170.951791 
L 270.967652 170.8992 
L 271.292957 171.214748 
L 271.618262 172.003617 
L 271.943567 171.740661 
L 272.268872 171.793252 
L 272.594177 171.635478 
L 272.919483 171.793252 
L 273.244788 171.793252 
L 273.570093 172.003617 
L 273.895398 171.898435 
L 274.220703 172.845078 
L 274.546008 172.582122 
L 274.871314 172.89767 
L 275.196619 173.423583 
L 275.521924 173.370991 
L 275.847229 173.949496 
L 276.172534 174.054678 
L 276.497839 173.791722 
L 276.823144 173.791722 
L 277.14845 173.476174 
L 277.473755 173.949496 
L 277.79906 174.10727 
L 278.124365 173.633948 
L 278.44967 173.476174 
L 278.774975 174.212452 
L 279.100281 173.791722 
L 279.750891 173.791722 
L 280.076196 173.265809 
L 280.726806 173.73913 
L 281.052111 174.212452 
L 282.028027 174.002087 
L 282.353332 173.73913 
L 283.003942 173.896904 
L 283.654553 173.370991 
L 283.979858 173.844313 
L 284.305163 173.949496 
L 284.630468 173.3184 
L 284.955773 173.370991 
L 285.281079 173.73913 
L 285.606384 173.73913 
L 286.582299 172.687304 
L 286.907604 172.687304 
L 287.232909 172.845078 
L 287.558215 173.686539 
L 288.208825 173.528765 
L 288.53413 173.949496 
L 289.835351 174.528 
L 290.160656 173.949496 
L 290.485961 174.422817 
L 290.811266 174.580591 
L 291.136571 174.370226 
L 291.787182 175.842783 
L 292.437792 175.264278 
L 292.763097 175.632417 
L 293.088402 175.264278 
L 293.413707 175.579826 
L 293.739013 175.685009 
L 294.389623 176.15833 
L 295.365538 176.368696 
L 295.690844 176.789426 
L 296.016149 176.999791 
L 296.341454 176.842017 
L 296.666759 177.210157 
L 296.992064 177.052383 
L 297.317369 177.210157 
L 297.642674 177.630887 
L 297.96798 177.262748 
L 298.293285 177.36793 
L 298.61859 177.788661 
L 298.943895 177.788661 
L 299.2692 178.682713 
L 299.594505 178.472348 
L 300.245116 178.682713 
L 301.221031 177.36793 
L 301.546336 177.946435 
L 301.871641 177.999026 
L 302.196947 178.57753 
L 303.172862 179.156035 
L 303.498167 179.734539 
L 303.823472 179.050852 
L 304.148778 178.787896 
L 305.124693 179.418991 
L 305.449998 179.261217 
L 305.775303 179.839722 
L 306.425914 179.471583 
L 306.751219 179.78713 
L 307.076524 179.734539 
L 308.052439 180.681183 
L 308.377745 180.628591 
L 309.028355 181.312278 
L 309.35366 181.36487 
L 310.00427 180.523409 
L 310.654881 180.576 
L 310.980186 180.313043 
L 311.305491 180.418226 
L 311.956101 179.734539 
L 312.281406 179.576765 
L 312.606712 179.629357 
L 313.257322 180.944139 
L 313.582627 181.312278 
L 313.907932 182.153739 
L 314.233237 182.101148 
L 314.558543 181.733009 
L 314.883848 181.943374 
L 315.209153 181.838191 
L 315.534458 181.522643 
L 315.859763 181.36487 
L 316.185068 181.838191 
L 316.510373 182.048557 
L 316.835679 181.890783 
L 317.160984 182.153739 
L 317.486289 181.890783 
L 318.462204 182.153739 
L 318.78751 182.627061 
L 319.112815 182.679652 
L 319.43812 182.890017 
L 319.763425 182.890017 
L 320.08873 183.100383 
L 320.73934 182.101148 
L 321.064646 182.258922 
L 321.389951 181.7856 
L 322.040561 182.101148 
L 322.365866 181.890783 
L 322.691171 181.312278 
L 323.341782 181.575235 
L 323.667087 181.36487 
L 324.317697 181.470052 
L 324.643002 181.575235 
L 324.968308 181.207096 
L 325.293613 181.312278 
L 325.618918 181.049322 
L 325.944223 181.680417 
L 326.269528 181.575235 
L 326.594833 181.733009 
L 326.920138 181.627826 
L 327.245444 181.680417 
L 327.570749 181.36487 
L 327.896054 181.259687 
L 328.221359 181.838191 
L 328.871969 181.575235 
L 329.52258 182.521878 
L 329.847885 182.57447 
L 330.17319 182.837426 
L 330.498495 183.41593 
L 331.149105 184.047026 
L 331.474411 184.941078 
L 331.799716 184.941078 
L 332.125021 185.4144 
L 332.775631 185.309217 
L 333.100936 185.677357 
L 333.426242 185.729948 
L 333.751547 185.992904 
L 334.076852 185.729948 
L 334.402157 185.677357 
L 334.727462 186.098087 
L 335.052767 187.465461 
L 335.378073 187.255096 
L 335.703378 187.623235 
L 336.028683 187.675826 
L 336.353988 187.938783 
L 336.679293 187.781009 
L 337.004598 188.569878 
L 337.329903 188.62247 
L 337.980514 188.043965 
L 338.631124 187.886191 
L 338.956429 188.517287 
L 339.60704 189.0432 
L 339.932345 188.569878 
L 340.25765 189.095791 
L 340.582955 188.938017 
L 340.90826 188.990609 
L 341.233565 188.885426 
L 341.55887 189.200974 
L 342.860091 189.200974 
L 343.185396 189.621704 
L 343.510701 189.516522 
L 344.161312 189.0432 
L 344.811922 188.990609 
L 345.137227 189.358748 
L 345.462532 189.516522 
L 345.787837 189.884661 
L 346.763753 190.2528 
L 347.414363 189.83207 
L 347.739668 189.200974 
L 348.390279 189.516522 
L 349.040889 190.042435 
L 349.366194 190.095026 
L 349.691499 190.305391 
L 350.016805 190.831304 
L 350.34211 190.147617 
L 350.667415 189.989843 
L 350.99272 190.883896 
L 351.318025 190.568348 
L 351.64333 190.831304 
L 352.293941 190.305391 
L 352.619246 190.463165 
L 352.944551 190.2528 
L 353.595161 190.147617 
L 353.920466 189.621704 
L 354.245772 189.674296 
L 354.571077 190.410574 
L 354.896382 189.779478 
L 355.221687 189.937252 
L 355.546992 190.2528 
L 355.872297 190.147617 
L 356.197602 190.410574 
L 356.522908 190.463165 
L 356.848213 191.304626 
L 357.173518 190.726122 
L 357.824128 191.4624 
L 358.149433 190.778713 
L 358.474739 191.409809 
L 358.800044 191.725357 
L 359.125349 191.88313 
L 359.775959 191.620174 
L 360.101264 191.725357 
L 360.751875 192.672 
L 361.07718 192.409043 
L 361.402485 192.619409 
L 361.72779 193.355687 
L 362.053095 193.566052 
L 362.3784 193.934191 
L 362.703706 193.776417 
L 363.679621 192.882365 
L 364.004926 192.672 
L 364.330231 192.987548 
L 364.655537 192.777183 
L 365.306147 193.250504 
L 365.631452 193.566052 
L 365.956757 193.723826 
L 366.282062 193.303096 
L 366.607367 193.355687 
L 366.932673 193.197913 
L 367.908588 194.091965 
L 368.233893 194.197148 
L 368.559198 194.828243 
L 369.209809 194.828243 
L 369.535114 195.459339 
L 369.860419 195.354157 
L 370.185724 195.406748 
L 370.511029 194.775652 
L 370.836334 194.933426 
L 371.16164 194.828243 
L 371.486945 194.933426 
L 372.46286 194.407513 
L 373.438776 195.51193 
L 373.764081 195.51193 
L 374.089386 195.827478 
L 374.414691 196.458574 
L 374.739996 196.668939 
L 375.065302 197.405217 
L 375.390607 197.5104 
L 375.715912 198.877774 
L 376.041217 198.141496 
L 376.691827 198.562226 
L 377.017132 198.246678 
L 377.342438 198.667409 
L 377.667743 198.141496 
L 377.993048 198.404452 
L 378.968963 199.666643 
L 379.294269 199.666643 
L 379.619574 199.877009 
L 379.944879 199.824417 
L 380.270184 200.297739 
L 380.920794 200.35033 
L 381.246099 200.613287 
L 381.571405 200.455513 
L 381.89671 201.086609 
L 382.222015 201.349565 
L 382.54732 201.402157 
L 382.872625 201.717704 
L 383.523236 201.875478 
L 383.848541 202.085843 
L 384.499151 203.242852 
L 384.824456 203.348035 
L 385.149761 203.873948 
L 385.475066 203.873948 
L 386.125677 204.294678 
L 386.450982 204.136904 
L 387.101592 205.451687 
L 387.426897 205.504278 
L 387.752203 205.030957 
L 388.077508 205.030957 
L 388.728118 206.450922 
L 389.053423 207.082017 
L 389.378728 207.082017 
L 389.704034 207.344974 
L 390.029339 207.765704 
L 391.330559 210.290087 
L 391.655864 210.763409 
L 391.98117 211.60487 
L 392.63178 214.129252 
L 392.957085 215.023304 
L 393.28239 215.496626 
L 394.258306 218.231374 
L 395.234221 223.122365 
L 395.559526 225.436383 
L 396.535442 237.00647 
L 397.511357 256.991165 
L 398.161968 279.920974 
L 398.487273 295.488 
L 398.487273 295.488 
" style="fill:none;stroke:#4bacc6;stroke-linecap:square;stroke-width:2;"/>
   </g>
   <g id="patch_3">
    <path d="M 57.6 307.584 
L 57.6 41.472 
" style="fill:none;stroke:#000000;stroke-linecap:square;stroke-linejoin:miter;stroke-width:0.8;"/>
   </g>
   <g id="patch_4">
    <path d="M 414.72 307.584 
L 414.72 41.472 
" style="fill:none;stroke:#000000;stroke-linecap:square;stroke-linejoin:miter;stroke-width:0.8;"/>
   </g>
   <g id="patch_5">
    <path d="M 57.6 307.584 
L 414.72 307.584 
" style="fill:none;stroke:#000000;stroke-linecap:square;stroke-linejoin:miter;stroke-width:0.8;"/>
   </g>
   <g id="patch_6">
    <path d="M 57.6 41.472 
L 414.72 41.472 
" style="fill:none;stroke:#000000;stroke-linecap:square;stroke-linejoin:miter;stroke-width:0.8;"/>
   </g>
   <g id="text_14">
    <!-- 2018春季 Average -->
    <defs>
     <path d="M 44.703125 66.203125 
Q 26.5 66.203125 12 65.5 
L 12 72 
Q 24.203125 71 45.703125 71 
Q 46.59375 75.90625 46.703125 81 
Q 51.5 79.59375 53.84375 79.59375 
Q 56.203125 79.59375 56.203125 78.9375 
Q 56.203125 78.296875 55.203125 77.5 
Q 53.59375 76.296875 52 71 
Q 74.90625 71 87.40625 72 
L 87.40625 65.5 
Q 75.09375 66.203125 50.796875 66.203125 
Q 49.59375 60.90625 48.5 57.703125 
L 55.59375 57.703125 
Q 72.59375 57.703125 81.703125 58.5 
L 81.703125 52 
Q 71.296875 52.90625 55.59375 52.90625 
L 46.796875 52.90625 
Q 45 48.40625 42.90625 44.5 
L 62.90625 44.5 
Q 83.40625 44.5 93.09375 45.296875 
L 93.09375 38.796875 
Q 83.09375 39.5 66.09375 39.703125 
Q 77.59375 25.5 96.40625 23.09375 
Q 93.5 20.296875 92 15.5 
Q 82.59375 18.296875 75.09375 23.703125 
L 75.09375 4.90625 
Q 75.09375 -3 75.59375 -8.09375 
L 69.09375 -8.09375 
L 69.09375 -3.40625 
L 31 -3.40625 
L 31 -9.59375 
L 24.40625 -9.59375 
Q 25 -3.703125 25 2.203125 
L 25 24.703125 
Q 17.90625 19.703125 10 14.90625 
Q 8.5 17.703125 3.796875 20.296875 
Q 23.5 28 33 39.703125 
Q 15.796875 39.5 6 38.796875 
L 6 45.296875 
Q 17.59375 44.5 36.5 44.5 
Q 38.90625 48.203125 40.796875 52.90625 
Q 26 52.90625 16.09375 52 
L 16.09375 58.5 
Q 24.796875 57.703125 42.59375 57.703125 
Q 44 62.703125 44.703125 66.203125 
z
M 60.09375 39.703125 
L 39.90625 39.703125 
Q 36.09375 34.296875 31.40625 30.09375 
L 67.703125 30.09375 
Q 63.5 34.59375 60.09375 39.703125 
z
M 31 15.703125 
L 69.09375 15.703125 
L 69.09375 25.296875 
L 31 25.296875 
z
M 31 1.296875 
L 69.09375 1.296875 
L 69.09375 11 
L 31 11 
z
" id="STXihei-26149"/>
     <path d="M 47.5 70.296875 
Q 33.09375 69.5 21.90625 69.296875 
Q 21.5 72.296875 19 75.703125 
Q 29.703125 74.796875 35.703125 74.796875 
Q 41.703125 74.796875 54.890625 75.5 
Q 68.09375 76.203125 78 79.296875 
Q 78.59375 76.203125 79.796875 74.59375 
Q 81 73 81 72.5 
Q 81 71.5 79 71.84375 
Q 77 72.203125 74.703125 72.203125 
Q 72.40625 72.203125 67.25 71.59375 
Q 62.09375 71 53.296875 70.59375 
L 53.296875 60.90625 
Q 79.203125 60.90625 92.09375 61.59375 
L 92.09375 55.59375 
Q 80.5 56.203125 61.703125 56.203125 
Q 76.796875 43.5 96.5 38.40625 
Q 93.40625 35.796875 91.796875 32.40625 
Q 67.703125 42.703125 55.203125 56.203125 
L 53.296875 56.203125 
L 53.296875 48.203125 
Q 53.296875 43.59375 53.59375 37.296875 
L 47 37.296875 
Q 47.5 44.40625 47.5 48.203125 
L 47.5 56.203125 
L 45.703125 56.203125 
Q 37.59375 47.40625 30.25 41.953125 
Q 22.90625 36.5 9 29.90625 
Q 7.703125 33.296875 3.703125 36.09375 
Q 24.203125 41.09375 39.203125 56.203125 
Q 20.40625 56.09375 8.5 55.59375 
L 8.5 61.59375 
Q 21.40625 60.90625 47.5 60.90625 
z
M 49.09375 13.296875 
Q 23.5 13.296875 12.203125 12.40625 
L 12.203125 18.90625 
Q 26 18 49.09375 18 
L 49.09375 22.203125 
L 63.796875 30.5 
L 42.59375 30.5 
Q 31.796875 30.5 23.90625 30 
L 23.90625 35.59375 
Q 33 35.203125 50.890625 35.203125 
Q 68.796875 35.203125 77.59375 35.59375 
L 77.59375 30.90625 
Q 73.703125 31.09375 68.703125 28.09375 
L 54.90625 19.90625 
L 54.90625 18 
Q 76.703125 18 90.09375 18.90625 
L 90.09375 12.5 
Q 80.703125 13.296875 54.90625 13.296875 
L 54.90625 2.203125 
Q 54.90625 -3.09375 53.703125 -5.390625 
Q 52.5 -7.703125 48.546875 -8.640625 
Q 44.59375 -9.59375 35.203125 -10 
Q 35.09375 -6.09375 32.296875 -2.5 
Q 38 -3.203125 41.59375 -3.203125 
Q 45.203125 -3.203125 47.140625 -2.390625 
Q 49.09375 -1.59375 49.09375 0.90625 
z
" id="STXihei-23395"/>
     <path id="STXihei-32"/>
     <path d="M 38.09375 80.703125 
L 71.59375 6 
L 63.90625 6 
L 52.59375 30.5 
L 21.59375 30.5 
L 10.40625 6 
L 2.40625 6 
L 36.296875 80.703125 
z
M 37.203125 64.796875 
L 24.90625 37.796875 
L 49.40625 37.796875 
z
" id="STXihei-65"/>
     <path d="M 2.59375 59.09375 
L 9.90625 59.09375 
L 27.59375 18.703125 
L 45.296875 59.09375 
L 52.59375 59.09375 
L 28.296875 4.203125 
L 27.09375 4.203125 
z
" id="STXihei-118"/>
     <path d="M 52.296875 23.203125 
L 58.09375 20.203125 
Q 49.5 4.203125 32.703125 4.203125 
Q 20.703125 4.203125 12.890625 12.453125 
Q 5.09375 20.703125 5.09375 32.296875 
Q 5.09375 43.90625 12.9375 52.203125 
Q 20.796875 60.5 32.34375 60.5 
Q 43.90625 60.5 51.75 52.796875 
Q 59.59375 45.09375 59.90625 31.796875 
L 12.09375 31.796875 
Q 12.40625 22.203125 18.15625 16.34375 
Q 23.90625 10.5 32.09375 10.5 
Q 45.59375 10.5 52.296875 23.203125 
z
M 52.296875 37.703125 
Q 50.90625 45.296875 45.296875 49.59375 
Q 39.703125 53.90625 32.40625 53.90625 
Q 17.40625 53.90625 12.796875 37.703125 
z
" id="STXihei-101"/>
     <path d="M 5 59.09375 
L 12 59.09375 
L 12 51.40625 
Q 14.796875 56.09375 17.4375 58.296875 
Q 20.09375 60.5 23.34375 60.5 
Q 26.59375 60.5 29.90625 58.703125 
L 26.296875 52.90625 
Q 24.796875 53.796875 23.203125 53.796875 
Q 20.09375 53.796875 17.34375 50.59375 
Q 14.59375 47.40625 13.296875 42.34375 
Q 12 37.296875 12 24 
L 12 6 
L 5 6 
z
" id="STXihei-114"/>
     <path d="M 60.5 59.09375 
L 60.5 6 
L 53.796875 6 
L 53.796875 15.09375 
Q 44.703125 4.203125 33 4.203125 
Q 21.296875 4.203125 13.25 12.546875 
Q 5.203125 20.90625 5.203125 32.453125 
Q 5.203125 44 13.296875 52.25 
Q 21.40625 60.5 32.703125 60.5 
Q 45.703125 60.5 53.796875 49.40625 
L 53.796875 59.09375 
z
M 54.203125 32.296875 
Q 54.203125 41.40625 48.09375 47.65625 
Q 42 53.90625 33.140625 53.90625 
Q 24.296875 53.90625 18.1875 47.453125 
Q 12.09375 41 12.09375 32.203125 
Q 12.09375 23.40625 18.296875 16.953125 
Q 24.5 10.5 33.140625 10.5 
Q 41.796875 10.5 48 16.703125 
Q 54.203125 22.90625 54.203125 32.296875 
z
" id="STXihei-97"/>
     <path d="M 54.09375 59.09375 
L 61 59.09375 
L 61 18.09375 
Q 61 7.203125 59.09375 2.09375 
Q 57.203125 -3 53.59375 -6.390625 
Q 50 -9.796875 44.890625 -11.59375 
Q 39.796875 -13.40625 33.703125 -13.40625 
Q 12.90625 -13.40625 6.296875 3.203125 
L 13.703125 3.203125 
Q 19.5 -7.203125 33.40625 -7.203125 
Q 40.09375 -7.203125 45.046875 -4.59375 
Q 50 -2 52.046875 2.046875 
Q 54.09375 6.09375 54.09375 14.703125 
L 54.09375 17 
Q 50 11.90625 44.390625 9.40625 
Q 38.796875 6.90625 32.59375 6.90625 
Q 21 6.90625 13.296875 14.796875 
Q 5.59375 22.703125 5.59375 33.40625 
Q 5.59375 44.5 13.796875 52.5 
Q 22 60.5 33.640625 60.5 
Q 45.296875 60.5 54.09375 49.90625 
z
M 54.40625 33.40625 
Q 54.40625 42.09375 48.5 48 
Q 42.59375 53.90625 33.90625 53.90625 
Q 24.703125 53.90625 18.59375 47.546875 
Q 12.5 41.203125 12.5 33 
Q 12.5 24.796875 18.390625 19.046875 
Q 24.296875 13.296875 33.5 13.296875 
Q 42.703125 13.296875 48.546875 18.890625 
Q 54.40625 24.5 54.40625 33.40625 
z
" id="STXihei-103"/>
    </defs>
    <g transform="translate(183.856875 35.472)scale(0.12 -0.12)">
     <use xlink:href="#STXihei-50"/>
     <use x="55.399994" xlink:href="#STXihei-48"/>
     <use x="110.799988" xlink:href="#STXihei-49"/>
     <use x="166.199982" xlink:href="#STXihei-56"/>
     <use x="221.599976" xlink:href="#STXihei-26149"/>
     <use x="321.59996" xlink:href="#STXihei-23395"/>
     <use x="421.599945" xlink:href="#STXihei-32"/>
     <use x="446.59993" xlink:href="#STXihei-65"/>
     <use x="520.599915" xlink:href="#STXihei-118"/>
     <use x="575.999908" xlink:href="#STXihei-101"/>
     <use x="640.999893" xlink:href="#STXihei-114"/>
     <use x="671.099884" xlink:href="#STXihei-97"/>
     <use x="739.399872" xlink:href="#STXihei-103"/>
     <use x="806.69986" xlink:href="#STXihei-101"/>
    </g>
   </g>
  </g>
 </g>
 <defs>
  <clipPath id="p6f78e43184">
   <rect height="266.112" width="357.12" x="57.6" y="41.472"/>
  </clipPath>
 </defs>
</svg>
