<?xml version="1.0" encoding="utf-8" standalone="no"?>
<!DOCTYPE svg PUBLIC "-//W3C//DTD SVG 1.1//EN"
  "http://www.w3.org/Graphics/SVG/1.1/DTD/svg11.dtd">
<!-- Created with matplotlib (https://matplotlib.org/) -->
<svg height="345.6pt" version="1.1" viewBox="0 0 460.8 345.6" width="460.8pt" xmlns="http://www.w3.org/2000/svg" xmlns:xlink="http://www.w3.org/1999/xlink">
 <defs>
  <style type="text/css">
*{stroke-linecap:butt;stroke-linejoin:round;}
  </style>
 </defs>
 <g id="figure_1">
  <g id="patch_1">
   <path d="M 0 345.6 
L 460.8 345.6 
L 460.8 0 
L 0 0 
z
" style="fill:#ffffff;"/>
  </g>
  <g id="axes_1">
   <g id="patch_2">
    <path d="M 57.6 307.584 
L 414.72 307.584 
L 414.72 41.472 
L 57.6 41.472 
z
" style="fill:#ffffff;"/>
   </g>
   <g id="patch_3">
    <path clip-path="url(#p161dea030c)" d="M 73.832727 307.584 
L 89.292468 307.584 
L 89.292468 54.144 
L 73.832727 54.144 
z
" style="fill:#c0504d;opacity:0.75;stroke:#000000;stroke-linejoin:miter;"/>
   </g>
   <g id="patch_4">
    <path clip-path="url(#p161dea030c)" d="M 89.292468 307.584 
L 104.752208 307.584 
L 104.752208 147.072 
L 89.292468 147.072 
z
" style="fill:#c0504d;opacity:0.75;stroke:#000000;stroke-linejoin:miter;"/>
   </g>
   <g id="patch_5">
    <path clip-path="url(#p161dea030c)" d="M 104.752208 307.584 
L 120.211948 307.584 
L 120.211948 214.656 
L 104.752208 214.656 
z
" style="fill:#c0504d;opacity:0.75;stroke:#000000;stroke-linejoin:miter;"/>
   </g>
   <g id="patch_6">
    <path clip-path="url(#p161dea030c)" d="M 120.211948 307.584 
L 135.671688 307.584 
L 135.671688 261.12 
L 120.211948 261.12 
z
" style="fill:#c0504d;opacity:0.75;stroke:#000000;stroke-linejoin:miter;"/>
   </g>
   <g id="patch_7">
    <path clip-path="url(#p161dea030c)" d="M 135.671688 307.584 
L 151.131429 307.584 
L 151.131429 290.688 
L 135.671688 290.688 
z
" style="fill:#c0504d;opacity:0.75;stroke:#000000;stroke-linejoin:miter;"/>
   </g>
   <g id="patch_8">
    <path clip-path="url(#p161dea030c)" d="M 151.131429 307.584 
L 166.591169 307.584 
L 166.591169 278.016 
L 151.131429 278.016 
z
" style="fill:#c0504d;opacity:0.75;stroke:#000000;stroke-linejoin:miter;"/>
   </g>
   <g id="patch_9">
    <path clip-path="url(#p161dea030c)" d="M 166.591169 307.584 
L 182.050909 307.584 
L 182.050909 294.912 
L 166.591169 294.912 
z
" style="fill:#c0504d;opacity:0.75;stroke:#000000;stroke-linejoin:miter;"/>
   </g>
   <g id="patch_10">
    <path clip-path="url(#p161dea030c)" d="M 182.050909 307.584 
L 197.510649 307.584 
L 197.510649 299.136 
L 182.050909 299.136 
z
" style="fill:#c0504d;opacity:0.75;stroke:#000000;stroke-linejoin:miter;"/>
   </g>
   <g id="patch_11">
    <path clip-path="url(#p161dea030c)" d="M 197.510649 307.584 
L 212.97039 307.584 
L 212.97039 294.912 
L 197.510649 294.912 
z
" style="fill:#c0504d;opacity:0.75;stroke:#000000;stroke-linejoin:miter;"/>
   </g>
   <g id="patch_12">
    <path clip-path="url(#p161dea030c)" d="M 212.97039 307.584 
L 228.43013 307.584 
L 228.43013 303.36 
L 212.97039 303.36 
z
" style="fill:#c0504d;opacity:0.75;stroke:#000000;stroke-linejoin:miter;"/>
   </g>
   <g id="patch_13">
    <path clip-path="url(#p161dea030c)" d="M 228.43013 307.584 
L 243.88987 307.584 
L 243.88987 299.136 
L 228.43013 299.136 
z
" style="fill:#c0504d;opacity:0.75;stroke:#000000;stroke-linejoin:miter;"/>
   </g>
   <g id="patch_14">
    <path clip-path="url(#p161dea030c)" d="M 243.88987 307.584 
L 259.34961 307.584 
L 259.34961 307.584 
L 243.88987 307.584 
z
" style="fill:#c0504d;opacity:0.75;stroke:#000000;stroke-linejoin:miter;"/>
   </g>
   <g id="patch_15">
    <path clip-path="url(#p161dea030c)" d="M 259.34961 307.584 
L 274.809351 307.584 
L 274.809351 307.584 
L 259.34961 307.584 
z
" style="fill:#c0504d;opacity:0.75;stroke:#000000;stroke-linejoin:miter;"/>
   </g>
   <g id="patch_16">
    <path clip-path="url(#p161dea030c)" d="M 274.809351 307.584 
L 290.269091 307.584 
L 290.269091 299.136 
L 274.809351 299.136 
z
" style="fill:#c0504d;opacity:0.75;stroke:#000000;stroke-linejoin:miter;"/>
   </g>
   <g id="patch_17">
    <path clip-path="url(#p161dea030c)" d="M 290.269091 307.584 
L 305.728831 307.584 
L 305.728831 303.36 
L 290.269091 303.36 
z
" style="fill:#c0504d;opacity:0.75;stroke:#000000;stroke-linejoin:miter;"/>
   </g>
   <g id="patch_18">
    <path clip-path="url(#p161dea030c)" d="M 305.728831 307.584 
L 321.188571 307.584 
L 321.188571 299.136 
L 305.728831 299.136 
z
" style="fill:#c0504d;opacity:0.75;stroke:#000000;stroke-linejoin:miter;"/>
   </g>
   <g id="patch_19">
    <path clip-path="url(#p161dea030c)" d="M 321.188571 307.584 
L 336.648312 307.584 
L 336.648312 307.584 
L 321.188571 307.584 
z
" style="fill:#c0504d;opacity:0.75;stroke:#000000;stroke-linejoin:miter;"/>
   </g>
   <g id="patch_20">
    <path clip-path="url(#p161dea030c)" d="M 336.648312 307.584 
L 352.108052 307.584 
L 352.108052 307.584 
L 336.648312 307.584 
z
" style="fill:#c0504d;opacity:0.75;stroke:#000000;stroke-linejoin:miter;"/>
   </g>
   <g id="patch_21">
    <path clip-path="url(#p161dea030c)" d="M 352.108052 307.584 
L 367.567792 307.584 
L 367.567792 307.584 
L 352.108052 307.584 
z
" style="fill:#c0504d;opacity:0.75;stroke:#000000;stroke-linejoin:miter;"/>
   </g>
   <g id="patch_22">
    <path clip-path="url(#p161dea030c)" d="M 367.567792 307.584 
L 383.027532 307.584 
L 383.027532 307.584 
L 367.567792 307.584 
z
" style="fill:#c0504d;opacity:0.75;stroke:#000000;stroke-linejoin:miter;"/>
   </g>
   <g id="patch_23">
    <path clip-path="url(#p161dea030c)" d="M 383.027532 307.584 
L 398.487273 307.584 
L 398.487273 307.584 
L 383.027532 307.584 
z
" style="fill:#c0504d;opacity:0.75;stroke:#000000;stroke-linejoin:miter;"/>
   </g>
   <g id="matplotlib.axis_1">
    <g id="xtick_1">
     <g id="line2d_1">
      <defs>
       <path d="M 0 0 
L 0 3.5 
" id="m3e508e24b2" style="stroke:#000000;stroke-width:0.8;"/>
      </defs>
      <g>
       <use style="stroke:#000000;stroke-width:0.8;" x="73.832727" xlink:href="#m3e508e24b2" y="307.584"/>
      </g>
     </g>
     <g id="text_1">
      <!-- 0.0 -->
      <defs>
       <path d="M 27.296875 4.203125 
Q 15.703125 4.203125 9.453125 13.75 
Q 3.203125 23.296875 3.203125 41.890625 
Q 3.203125 60.5 9.453125 70.046875 
Q 15.703125 79.59375 27.203125 79.59375 
Q 38.703125 79.59375 45.453125 69.84375 
Q 52.203125 60.09375 52.203125 41.890625 
Q 52.203125 23.703125 45.390625 13.953125 
Q 38.59375 4.203125 27.296875 4.203125 
z
M 27.5 72.796875 
Q 19.203125 72.796875 14.59375 64.796875 
Q 10 56.796875 10 41.703125 
Q 10 10.703125 27.5 10.703125 
Q 36 10.703125 40.75 18.84375 
Q 45.5 27 45.5 41.890625 
Q 45.5 56.796875 40.59375 64.796875 
Q 35.703125 72.796875 27.5 72.796875 
z
" id="STXihei-48"/>
       <path d="M 9.09375 10.703125 
Q 9.09375 13.203125 10.890625 14.953125 
Q 12.703125 16.703125 15.140625 16.703125 
Q 17.59375 16.703125 19.34375 14.953125 
Q 21.09375 13.203125 21.09375 10.640625 
Q 21.09375 8.09375 19.34375 6.34375 
Q 17.59375 4.59375 15.140625 4.59375 
Q 12.703125 4.59375 10.890625 6.390625 
Q 9.09375 8.203125 9.09375 10.703125 
z
" id="STXihei-46"/>
      </defs>
      <g transform="translate(66.906946 322.543375)scale(0.1 -0.1)">
       <use xlink:href="#STXihei-48"/>
       <use x="55.399994" xlink:href="#STXihei-46"/>
       <use x="83.099991" xlink:href="#STXihei-48"/>
      </g>
     </g>
    </g>
    <g id="xtick_2">
     <g id="line2d_2">
      <g>
       <use style="stroke:#000000;stroke-width:0.8;" x="151.131429" xlink:href="#m3e508e24b2" y="307.584"/>
      </g>
     </g>
     <g id="text_2">
      <!-- 0.5 -->
      <defs>
       <path d="M 49.203125 77.796875 
L 49.203125 71 
L 23.59375 71 
L 20 51.40625 
Q 24.796875 52.796875 29 52.796875 
Q 38.40625 52.796875 44.703125 46.140625 
Q 51 39.5 51 29.09375 
Q 51 18.703125 44.140625 11.453125 
Q 37.296875 4.203125 26 4.203125 
Q 17.40625 4.203125 11.34375 9.34375 
Q 5.296875 14.5 4.09375 23.40625 
L 11.40625 23.40625 
Q 12.703125 17.40625 16.796875 14.203125 
Q 20.90625 11 26.296875 11 
Q 33.40625 11 38.546875 16.296875 
Q 43.703125 21.59375 43.703125 29.5 
Q 43.703125 36.703125 39.203125 41.34375 
Q 34.703125 46 27.453125 46 
Q 20.203125 46 11.40625 42.203125 
L 18.09375 77.796875 
z
" id="STXihei-53"/>
      </defs>
      <g transform="translate(144.205647 322.543375)scale(0.1 -0.1)">
       <use xlink:href="#STXihei-48"/>
       <use x="55.399994" xlink:href="#STXihei-46"/>
       <use x="83.099991" xlink:href="#STXihei-53"/>
      </g>
     </g>
    </g>
    <g id="xtick_3">
     <g id="line2d_3">
      <g>
       <use style="stroke:#000000;stroke-width:0.8;" x="228.43013" xlink:href="#m3e508e24b2" y="307.584"/>
      </g>
     </g>
     <g id="text_3">
      <!-- 1.0 -->
      <defs>
       <path d="M 18.5 77.796875 
L 32.59375 77.796875 
L 32.59375 6 
L 25.5 6 
L 25.5 70.796875 
L 14.203125 70.796875 
z
" id="STXihei-49"/>
      </defs>
      <g transform="translate(221.504349 322.543375)scale(0.1 -0.1)">
       <use xlink:href="#STXihei-49"/>
       <use x="55.399994" xlink:href="#STXihei-46"/>
       <use x="83.099991" xlink:href="#STXihei-48"/>
      </g>
     </g>
    </g>
    <g id="xtick_4">
     <g id="line2d_4">
      <g>
       <use style="stroke:#000000;stroke-width:0.8;" x="305.728831" xlink:href="#m3e508e24b2" y="307.584"/>
      </g>
     </g>
     <g id="text_4">
      <!-- 1.5 -->
      <g transform="translate(298.80305 322.543375)scale(0.1 -0.1)">
       <use xlink:href="#STXihei-49"/>
       <use x="55.399994" xlink:href="#STXihei-46"/>
       <use x="83.099991" xlink:href="#STXihei-53"/>
      </g>
     </g>
    </g>
    <g id="xtick_5">
     <g id="line2d_5">
      <g>
       <use style="stroke:#000000;stroke-width:0.8;" x="383.027532" xlink:href="#m3e508e24b2" y="307.584"/>
      </g>
     </g>
     <g id="text_5">
      <!-- 2.0 -->
      <defs>
       <path d="M 11.59375 55.296875 
L 4.703125 55.296875 
Q 5.203125 66.296875 12 72.9375 
Q 18.796875 79.59375 28.4375 79.59375 
Q 38.09375 79.59375 44.4375 73.34375 
Q 50.796875 67.09375 50.796875 58.09375 
Q 50.796875 51.40625 47.25 45.703125 
Q 43.703125 40 36.5 32.203125 
L 18.59375 12.90625 
L 51.796875 12.90625 
L 51.796875 6 
L 3 6 
L 30.40625 35.59375 
Q 37.59375 43.40625 40.6875 47.90625 
Q 43.796875 52.40625 43.796875 58.203125 
Q 43.796875 64 39.25 68.390625 
Q 34.703125 72.796875 27.953125 72.796875 
Q 21.203125 72.796875 16.75 68.25 
Q 12.296875 63.703125 11.59375 55.296875 
z
" id="STXihei-50"/>
      </defs>
      <g transform="translate(376.101751 322.543375)scale(0.1 -0.1)">
       <use xlink:href="#STXihei-50"/>
       <use x="55.399994" xlink:href="#STXihei-46"/>
       <use x="83.099991" xlink:href="#STXihei-48"/>
      </g>
     </g>
    </g>
   </g>
   <g id="matplotlib.axis_2"/>
   <g id="patch_24">
    <path d="M 57.6 307.584 
L 57.6 41.472 
" style="fill:none;stroke:#000000;stroke-linecap:square;stroke-linejoin:miter;stroke-width:0.8;"/>
   </g>
   <g id="patch_25">
    <path d="M 414.72 307.584 
L 414.72 41.472 
" style="fill:none;stroke:#000000;stroke-linecap:square;stroke-linejoin:miter;stroke-width:0.8;"/>
   </g>
   <g id="patch_26">
    <path d="M 57.6 307.584 
L 414.72 307.584 
" style="fill:none;stroke:#000000;stroke-linecap:square;stroke-linejoin:miter;stroke-width:0.8;"/>
   </g>
   <g id="patch_27">
    <path d="M 57.6 41.472 
L 414.72 41.472 
" style="fill:none;stroke:#000000;stroke-linecap:square;stroke-linejoin:miter;stroke-width:0.8;"/>
   </g>
   <g id="text_6">
    <!-- 2017春季 -->
    <defs>
     <path d="M 7.203125 77.796875 
L 52.703125 77.796875 
L 14.296875 4.203125 
L 8.40625 7.203125 
L 41.59375 71 
L 7.203125 71 
z
" id="STXihei-55"/>
     <path d="M 44.703125 66.203125 
Q 26.5 66.203125 12 65.5 
L 12 72 
Q 24.203125 71 45.703125 71 
Q 46.59375 75.90625 46.703125 81 
Q 51.5 79.59375 53.84375 79.59375 
Q 56.203125 79.59375 56.203125 78.9375 
Q 56.203125 78.296875 55.203125 77.5 
Q 53.59375 76.296875 52 71 
Q 74.90625 71 87.40625 72 
L 87.40625 65.5 
Q 75.09375 66.203125 50.796875 66.203125 
Q 49.59375 60.90625 48.5 57.703125 
L 55.59375 57.703125 
Q 72.59375 57.703125 81.703125 58.5 
L 81.703125 52 
Q 71.296875 52.90625 55.59375 52.90625 
L 46.796875 52.90625 
Q 45 48.40625 42.90625 44.5 
L 62.90625 44.5 
Q 83.40625 44.5 93.09375 45.296875 
L 93.09375 38.796875 
Q 83.09375 39.5 66.09375 39.703125 
Q 77.59375 25.5 96.40625 23.09375 
Q 93.5 20.296875 92 15.5 
Q 82.59375 18.296875 75.09375 23.703125 
L 75.09375 4.90625 
Q 75.09375 -3 75.59375 -8.09375 
L 69.09375 -8.09375 
L 69.09375 -3.40625 
L 31 -3.40625 
L 31 -9.59375 
L 24.40625 -9.59375 
Q 25 -3.703125 25 2.203125 
L 25 24.703125 
Q 17.90625 19.703125 10 14.90625 
Q 8.5 17.703125 3.796875 20.296875 
Q 23.5 28 33 39.703125 
Q 15.796875 39.5 6 38.796875 
L 6 45.296875 
Q 17.59375 44.5 36.5 44.5 
Q 38.90625 48.203125 40.796875 52.90625 
Q 26 52.90625 16.09375 52 
L 16.09375 58.5 
Q 24.796875 57.703125 42.59375 57.703125 
Q 44 62.703125 44.703125 66.203125 
z
M 60.09375 39.703125 
L 39.90625 39.703125 
Q 36.09375 34.296875 31.40625 30.09375 
L 67.703125 30.09375 
Q 63.5 34.59375 60.09375 39.703125 
z
M 31 15.703125 
L 69.09375 15.703125 
L 69.09375 25.296875 
L 31 25.296875 
z
M 31 1.296875 
L 69.09375 1.296875 
L 69.09375 11 
L 31 11 
z
" id="STXihei-26149"/>
     <path d="M 47.5 70.296875 
Q 33.09375 69.5 21.90625 69.296875 
Q 21.5 72.296875 19 75.703125 
Q 29.703125 74.796875 35.703125 74.796875 
Q 41.703125 74.796875 54.890625 75.5 
Q 68.09375 76.203125 78 79.296875 
Q 78.59375 76.203125 79.796875 74.59375 
Q 81 73 81 72.5 
Q 81 71.5 79 71.84375 
Q 77 72.203125 74.703125 72.203125 
Q 72.40625 72.203125 67.25 71.59375 
Q 62.09375 71 53.296875 70.59375 
L 53.296875 60.90625 
Q 79.203125 60.90625 92.09375 61.59375 
L 92.09375 55.59375 
Q 80.5 56.203125 61.703125 56.203125 
Q 76.796875 43.5 96.5 38.40625 
Q 93.40625 35.796875 91.796875 32.40625 
Q 67.703125 42.703125 55.203125 56.203125 
L 53.296875 56.203125 
L 53.296875 48.203125 
Q 53.296875 43.59375 53.59375 37.296875 
L 47 37.296875 
Q 47.5 44.40625 47.5 48.203125 
L 47.5 56.203125 
L 45.703125 56.203125 
Q 37.59375 47.40625 30.25 41.953125 
Q 22.90625 36.5 9 29.90625 
Q 7.703125 33.296875 3.703125 36.09375 
Q 24.203125 41.09375 39.203125 56.203125 
Q 20.40625 56.09375 8.5 55.59375 
L 8.5 61.59375 
Q 21.40625 60.90625 47.5 60.90625 
z
M 49.09375 13.296875 
Q 23.5 13.296875 12.203125 12.40625 
L 12.203125 18.90625 
Q 26 18 49.09375 18 
L 49.09375 22.203125 
L 63.796875 30.5 
L 42.59375 30.5 
Q 31.796875 30.5 23.90625 30 
L 23.90625 35.59375 
Q 33 35.203125 50.890625 35.203125 
Q 68.796875 35.203125 77.59375 35.59375 
L 77.59375 30.90625 
Q 73.703125 31.09375 68.703125 28.09375 
L 54.90625 19.90625 
L 54.90625 18 
Q 76.703125 18 90.09375 18.90625 
L 90.09375 12.5 
Q 80.703125 13.296875 54.90625 13.296875 
L 54.90625 2.203125 
Q 54.90625 -3.09375 53.703125 -5.390625 
Q 52.5 -7.703125 48.546875 -8.640625 
Q 44.59375 -9.59375 35.203125 -10 
Q 35.09375 -6.09375 32.296875 -2.5 
Q 38 -3.203125 41.59375 -3.203125 
Q 45.203125 -3.203125 47.140625 -2.390625 
Q 49.09375 -1.59375 49.09375 0.90625 
z
" id="STXihei-23395"/>
    </defs>
    <g transform="translate(210.8625 35.472)scale(0.12 -0.12)">
     <use xlink:href="#STXihei-50"/>
     <use x="55.399994" xlink:href="#STXihei-48"/>
     <use x="110.799988" xlink:href="#STXihei-49"/>
     <use x="166.199982" xlink:href="#STXihei-55"/>
     <use x="221.599976" xlink:href="#STXihei-26149"/>
     <use x="321.59996" xlink:href="#STXihei-23395"/>
    </g>
   </g>
  </g>
 </g>
 <defs>
  <clipPath id="p161dea030c">
   <rect height="266.112" width="357.12" x="57.6" y="41.472"/>
  </clipPath>
 </defs>
</svg>
