<?xml version="1.0" encoding="utf-8" standalone="no"?>
<!DOCTYPE svg PUBLIC "-//W3C//DTD SVG 1.1//EN"
  "http://www.w3.org/Graphics/SVG/1.1/DTD/svg11.dtd">
<!-- Created with matplotlib (https://matplotlib.org/) -->
<svg height="345.6pt" version="1.1" viewBox="0 0 460.8 345.6" width="460.8pt" xmlns="http://www.w3.org/2000/svg" xmlns:xlink="http://www.w3.org/1999/xlink">
 <defs>
  <style type="text/css">
*{stroke-linecap:butt;stroke-linejoin:round;}
  </style>
 </defs>
 <g id="figure_1">
  <g id="patch_1">
   <path d="M 0 345.6 
L 460.8 345.6 
L 460.8 0 
L 0 0 
z
" style="fill:#ffffff;"/>
  </g>
  <g id="axes_1">
   <g id="patch_2">
    <path d="M 57.6 307.584 
L 414.72 307.584 
L 414.72 41.472 
L 57.6 41.472 
z
" style="fill:#ffffff;"/>
   </g>
   <g id="patch_3">
    <path clip-path="url(#pe0d5d49eed)" d="M 73.832727 307.584 
L 89.292468 307.584 
L 89.292468 253.275429 
L 73.832727 253.275429 
z
" style="fill:#c0504d;opacity:0.75;stroke:#000000;stroke-linejoin:miter;"/>
   </g>
   <g id="patch_4">
    <path clip-path="url(#pe0d5d49eed)" d="M 89.292468 307.584 
L 104.752208 307.584 
L 104.752208 90.349714 
L 89.292468 90.349714 
z
" style="fill:#c0504d;opacity:0.75;stroke:#000000;stroke-linejoin:miter;"/>
   </g>
   <g id="patch_5">
    <path clip-path="url(#pe0d5d49eed)" d="M 104.752208 307.584 
L 120.211948 307.584 
L 120.211948 54.144 
L 104.752208 54.144 
z
" style="fill:#c0504d;opacity:0.75;stroke:#000000;stroke-linejoin:miter;"/>
   </g>
   <g id="patch_6">
    <path clip-path="url(#pe0d5d49eed)" d="M 120.211948 307.584 
L 135.671688 307.584 
L 135.671688 54.144 
L 120.211948 54.144 
z
" style="fill:#c0504d;opacity:0.75;stroke:#000000;stroke-linejoin:miter;"/>
   </g>
   <g id="patch_7">
    <path clip-path="url(#pe0d5d49eed)" d="M 135.671688 307.584 
L 151.131429 307.584 
L 151.131429 162.761143 
L 135.671688 162.761143 
z
" style="fill:#c0504d;opacity:0.75;stroke:#000000;stroke-linejoin:miter;"/>
   </g>
   <g id="patch_8">
    <path clip-path="url(#pe0d5d49eed)" d="M 151.131429 307.584 
L 166.591169 307.584 
L 166.591169 217.069714 
L 151.131429 217.069714 
z
" style="fill:#c0504d;opacity:0.75;stroke:#000000;stroke-linejoin:miter;"/>
   </g>
   <g id="patch_9">
    <path clip-path="url(#pe0d5d49eed)" d="M 166.591169 307.584 
L 182.050909 307.584 
L 182.050909 226.121143 
L 166.591169 226.121143 
z
" style="fill:#c0504d;opacity:0.75;stroke:#000000;stroke-linejoin:miter;"/>
   </g>
   <g id="patch_10">
    <path clip-path="url(#pe0d5d49eed)" d="M 182.050909 307.584 
L 197.510649 307.584 
L 197.510649 244.224 
L 182.050909 244.224 
z
" style="fill:#c0504d;opacity:0.75;stroke:#000000;stroke-linejoin:miter;"/>
   </g>
   <g id="patch_11">
    <path clip-path="url(#pe0d5d49eed)" d="M 197.510649 307.584 
L 212.97039 307.584 
L 212.97039 289.481143 
L 197.510649 289.481143 
z
" style="fill:#c0504d;opacity:0.75;stroke:#000000;stroke-linejoin:miter;"/>
   </g>
   <g id="patch_12">
    <path clip-path="url(#pe0d5d49eed)" d="M 212.97039 307.584 
L 228.43013 307.584 
L 228.43013 298.532571 
L 212.97039 298.532571 
z
" style="fill:#c0504d;opacity:0.75;stroke:#000000;stroke-linejoin:miter;"/>
   </g>
   <g id="patch_13">
    <path clip-path="url(#pe0d5d49eed)" d="M 228.43013 307.584 
L 243.88987 307.584 
L 243.88987 262.326857 
L 228.43013 262.326857 
z
" style="fill:#c0504d;opacity:0.75;stroke:#000000;stroke-linejoin:miter;"/>
   </g>
   <g id="patch_14">
    <path clip-path="url(#pe0d5d49eed)" d="M 243.88987 307.584 
L 259.34961 307.584 
L 259.34961 271.378286 
L 243.88987 271.378286 
z
" style="fill:#c0504d;opacity:0.75;stroke:#000000;stroke-linejoin:miter;"/>
   </g>
   <g id="patch_15">
    <path clip-path="url(#pe0d5d49eed)" d="M 259.34961 307.584 
L 274.809351 307.584 
L 274.809351 271.378286 
L 259.34961 271.378286 
z
" style="fill:#c0504d;opacity:0.75;stroke:#000000;stroke-linejoin:miter;"/>
   </g>
   <g id="patch_16">
    <path clip-path="url(#pe0d5d49eed)" d="M 274.809351 307.584 
L 290.269091 307.584 
L 290.269091 298.532571 
L 274.809351 298.532571 
z
" style="fill:#c0504d;opacity:0.75;stroke:#000000;stroke-linejoin:miter;"/>
   </g>
   <g id="patch_17">
    <path clip-path="url(#pe0d5d49eed)" d="M 290.269091 307.584 
L 305.728831 307.584 
L 305.728831 289.481143 
L 290.269091 289.481143 
z
" style="fill:#c0504d;opacity:0.75;stroke:#000000;stroke-linejoin:miter;"/>
   </g>
   <g id="patch_18">
    <path clip-path="url(#pe0d5d49eed)" d="M 305.728831 307.584 
L 321.188571 307.584 
L 321.188571 307.584 
L 305.728831 307.584 
z
" style="fill:#c0504d;opacity:0.75;stroke:#000000;stroke-linejoin:miter;"/>
   </g>
   <g id="patch_19">
    <path clip-path="url(#pe0d5d49eed)" d="M 321.188571 307.584 
L 336.648312 307.584 
L 336.648312 307.584 
L 321.188571 307.584 
z
" style="fill:#c0504d;opacity:0.75;stroke:#000000;stroke-linejoin:miter;"/>
   </g>
   <g id="patch_20">
    <path clip-path="url(#pe0d5d49eed)" d="M 336.648312 307.584 
L 352.108052 307.584 
L 352.108052 289.481143 
L 336.648312 289.481143 
z
" style="fill:#c0504d;opacity:0.75;stroke:#000000;stroke-linejoin:miter;"/>
   </g>
   <g id="patch_21">
    <path clip-path="url(#pe0d5d49eed)" d="M 352.108052 307.584 
L 367.567792 307.584 
L 367.567792 298.532571 
L 352.108052 298.532571 
z
" style="fill:#c0504d;opacity:0.75;stroke:#000000;stroke-linejoin:miter;"/>
   </g>
   <g id="patch_22">
    <path clip-path="url(#pe0d5d49eed)" d="M 367.567792 307.584 
L 383.027532 307.584 
L 383.027532 307.584 
L 367.567792 307.584 
z
" style="fill:#c0504d;opacity:0.75;stroke:#000000;stroke-linejoin:miter;"/>
   </g>
   <g id="patch_23">
    <path clip-path="url(#pe0d5d49eed)" d="M 383.027532 307.584 
L 398.487273 307.584 
L 398.487273 298.532571 
L 383.027532 298.532571 
z
" style="fill:#c0504d;opacity:0.75;stroke:#000000;stroke-linejoin:miter;"/>
   </g>
   <g id="matplotlib.axis_1">
    <g id="xtick_1">
     <g id="line2d_1">
      <defs>
       <path d="M 0 0 
L 0 3.5 
" id="m54e55942c1" style="stroke:#000000;stroke-width:0.8;"/>
      </defs>
      <g>
       <use style="stroke:#000000;stroke-width:0.8;" x="73.832727" xlink:href="#m54e55942c1" y="307.584"/>
      </g>
     </g>
     <g id="text_1">
      <!-- 0.0 -->
      <defs>
       <path d="M 27.296875 4.203125 
Q 15.703125 4.203125 9.453125 13.75 
Q 3.203125 23.296875 3.203125 41.890625 
Q 3.203125 60.5 9.453125 70.046875 
Q 15.703125 79.59375 27.203125 79.59375 
Q 38.703125 79.59375 45.453125 69.84375 
Q 52.203125 60.09375 52.203125 41.890625 
Q 52.203125 23.703125 45.390625 13.953125 
Q 38.59375 4.203125 27.296875 4.203125 
z
M 27.5 72.796875 
Q 19.203125 72.796875 14.59375 64.796875 
Q 10 56.796875 10 41.703125 
Q 10 10.703125 27.5 10.703125 
Q 36 10.703125 40.75 18.84375 
Q 45.5 27 45.5 41.890625 
Q 45.5 56.796875 40.59375 64.796875 
Q 35.703125 72.796875 27.5 72.796875 
z
" id="STXihei-48"/>
       <path d="M 9.09375 10.703125 
Q 9.09375 13.203125 10.890625 14.953125 
Q 12.703125 16.703125 15.140625 16.703125 
Q 17.59375 16.703125 19.34375 14.953125 
Q 21.09375 13.203125 21.09375 10.640625 
Q 21.09375 8.09375 19.34375 6.34375 
Q 17.59375 4.59375 15.140625 4.59375 
Q 12.703125 4.59375 10.890625 6.390625 
Q 9.09375 8.203125 9.09375 10.703125 
z
" id="STXihei-46"/>
      </defs>
      <g transform="translate(66.906946 322.543375)scale(0.1 -0.1)">
       <use xlink:href="#STXihei-48"/>
       <use x="55.399994" xlink:href="#STXihei-46"/>
       <use x="83.099991" xlink:href="#STXihei-48"/>
      </g>
     </g>
    </g>
    <g id="xtick_2">
     <g id="line2d_2">
      <g>
       <use style="stroke:#000000;stroke-width:0.8;" x="151.131429" xlink:href="#m54e55942c1" y="307.584"/>
      </g>
     </g>
     <g id="text_2">
      <!-- 0.5 -->
      <defs>
       <path d="M 49.203125 77.796875 
L 49.203125 71 
L 23.59375 71 
L 20 51.40625 
Q 24.796875 52.796875 29 52.796875 
Q 38.40625 52.796875 44.703125 46.140625 
Q 51 39.5 51 29.09375 
Q 51 18.703125 44.140625 11.453125 
Q 37.296875 4.203125 26 4.203125 
Q 17.40625 4.203125 11.34375 9.34375 
Q 5.296875 14.5 4.09375 23.40625 
L 11.40625 23.40625 
Q 12.703125 17.40625 16.796875 14.203125 
Q 20.90625 11 26.296875 11 
Q 33.40625 11 38.546875 16.296875 
Q 43.703125 21.59375 43.703125 29.5 
Q 43.703125 36.703125 39.203125 41.34375 
Q 34.703125 46 27.453125 46 
Q 20.203125 46 11.40625 42.203125 
L 18.09375 77.796875 
z
" id="STXihei-53"/>
      </defs>
      <g transform="translate(144.205647 322.543375)scale(0.1 -0.1)">
       <use xlink:href="#STXihei-48"/>
       <use x="55.399994" xlink:href="#STXihei-46"/>
       <use x="83.099991" xlink:href="#STXihei-53"/>
      </g>
     </g>
    </g>
    <g id="xtick_3">
     <g id="line2d_3">
      <g>
       <use style="stroke:#000000;stroke-width:0.8;" x="228.43013" xlink:href="#m54e55942c1" y="307.584"/>
      </g>
     </g>
     <g id="text_3">
      <!-- 1.0 -->
      <defs>
       <path d="M 18.5 77.796875 
L 32.59375 77.796875 
L 32.59375 6 
L 25.5 6 
L 25.5 70.796875 
L 14.203125 70.796875 
z
" id="STXihei-49"/>
      </defs>
      <g transform="translate(221.504349 322.543375)scale(0.1 -0.1)">
       <use xlink:href="#STXihei-49"/>
       <use x="55.399994" xlink:href="#STXihei-46"/>
       <use x="83.099991" xlink:href="#STXihei-48"/>
      </g>
     </g>
    </g>
    <g id="xtick_4">
     <g id="line2d_4">
      <g>
       <use style="stroke:#000000;stroke-width:0.8;" x="305.728831" xlink:href="#m54e55942c1" y="307.584"/>
      </g>
     </g>
     <g id="text_4">
      <!-- 1.5 -->
      <g transform="translate(298.80305 322.543375)scale(0.1 -0.1)">
       <use xlink:href="#STXihei-49"/>
       <use x="55.399994" xlink:href="#STXihei-46"/>
       <use x="83.099991" xlink:href="#STXihei-53"/>
      </g>
     </g>
    </g>
    <g id="xtick_5">
     <g id="line2d_5">
      <g>
       <use style="stroke:#000000;stroke-width:0.8;" x="383.027532" xlink:href="#m54e55942c1" y="307.584"/>
      </g>
     </g>
     <g id="text_5">
      <!-- 2.0 -->
      <defs>
       <path d="M 11.59375 55.296875 
L 4.703125 55.296875 
Q 5.203125 66.296875 12 72.9375 
Q 18.796875 79.59375 28.4375 79.59375 
Q 38.09375 79.59375 44.4375 73.34375 
Q 50.796875 67.09375 50.796875 58.09375 
Q 50.796875 51.40625 47.25 45.703125 
Q 43.703125 40 36.5 32.203125 
L 18.59375 12.90625 
L 51.796875 12.90625 
L 51.796875 6 
L 3 6 
L 30.40625 35.59375 
Q 37.59375 43.40625 40.6875 47.90625 
Q 43.796875 52.40625 43.796875 58.203125 
Q 43.796875 64 39.25 68.390625 
Q 34.703125 72.796875 27.953125 72.796875 
Q 21.203125 72.796875 16.75 68.25 
Q 12.296875 63.703125 11.59375 55.296875 
z
" id="STXihei-50"/>
      </defs>
      <g transform="translate(376.101751 322.543375)scale(0.1 -0.1)">
       <use xlink:href="#STXihei-50"/>
       <use x="55.399994" xlink:href="#STXihei-46"/>
       <use x="83.099991" xlink:href="#STXihei-48"/>
      </g>
     </g>
    </g>
   </g>
   <g id="matplotlib.axis_2"/>
   <g id="patch_24">
    <path d="M 57.6 307.584 
L 57.6 41.472 
" style="fill:none;stroke:#000000;stroke-linecap:square;stroke-linejoin:miter;stroke-width:0.8;"/>
   </g>
   <g id="patch_25">
    <path d="M 414.72 307.584 
L 414.72 41.472 
" style="fill:none;stroke:#000000;stroke-linecap:square;stroke-linejoin:miter;stroke-width:0.8;"/>
   </g>
   <g id="patch_26">
    <path d="M 57.6 307.584 
L 414.72 307.584 
" style="fill:none;stroke:#000000;stroke-linecap:square;stroke-linejoin:miter;stroke-width:0.8;"/>
   </g>
   <g id="patch_27">
    <path d="M 57.6 41.472 
L 414.72 41.472 
" style="fill:none;stroke:#000000;stroke-linecap:square;stroke-linejoin:miter;stroke-width:0.8;"/>
   </g>
   <g id="text_6">
    <!-- 2018秋季 -->
    <defs>
     <path d="M 38.40625 45.40625 
Q 52 38.703125 52 26.59375 
Q 52 17 45.25 10.59375 
Q 38.5 4.203125 27.546875 4.203125 
Q 16.59375 4.203125 10 10.59375 
Q 3.40625 17 3.40625 26 
Q 3.40625 38.59375 17.296875 45.40625 
Q 6.796875 51 6.796875 60.90625 
Q 6.796875 68.296875 12.9375 73.9375 
Q 19.09375 79.59375 27.796875 79.59375 
Q 36.5 79.59375 42.59375 74.09375 
Q 48.703125 68.59375 48.703125 60.703125 
Q 48.703125 51.09375 38.40625 45.40625 
z
M 41.5 61 
Q 41.5 65.796875 37.75 69.25 
Q 34 72.703125 27.953125 72.703125 
Q 21.90625 72.703125 18 69.25 
Q 14.09375 65.796875 14.09375 60.890625 
Q 14.09375 56 18.34375 52.140625 
Q 22.59375 48.296875 28 48.296875 
Q 33.40625 48.296875 37.453125 52.09375 
Q 41.5 55.90625 41.5 61 
z
M 44.796875 26.5 
Q 44.796875 32.59375 39.84375 37.1875 
Q 34.90625 41.796875 27.84375 41.796875 
Q 20.796875 41.796875 15.6875 37.046875 
Q 10.59375 32.296875 10.59375 25.84375 
Q 10.59375 19.40625 15.296875 15.203125 
Q 20 11 27.59375 11 
Q 35.203125 11 40 15.5 
Q 44.796875 20 44.796875 26.5 
z
" id="STXihei-56"/>
     <path d="M 69.703125 23.59375 
Q 64.796875 5.5 44.203125 -9.09375 
Q 42.09375 -5.703125 38.90625 -4.59375 
Q 52 3 58.390625 12.390625 
Q 64.796875 21.796875 65.9375 34.796875 
Q 67.09375 47.796875 67.09375 59.6875 
Q 67.09375 71.59375 65.5 79.5 
Q 71.203125 78.796875 74 78.703125 
Q 74.90625 78.703125 74.90625 78.09375 
Q 74.90625 77.5 74.09375 76.796875 
Q 73.296875 76.09375 73.046875 73.640625 
Q 72.796875 71.203125 72.59375 63 
L 72.40625 45.203125 
Q 72.40625 37.5 71.40625 31.703125 
Q 81.203125 6.90625 97 -2.796875 
Q 93.796875 -4.5 91.90625 -7.796875 
Q 76.09375 6 69.703125 23.59375 
z
M 23.703125 67.40625 
Q 15.40625 65.59375 8.5 64.703125 
Q 8.203125 68.09375 6.296875 70.5 
Q 27.5 71.09375 39.796875 78.59375 
Q 41.203125 75.59375 43.90625 73.59375 
Q 44.703125 73 44.703125 72.34375 
Q 44.703125 71.703125 43.90625 71.703125 
L 42.796875 71.796875 
Q 40.90625 71.796875 29.5 68.90625 
L 29.5 51.203125 
Q 39.203125 51.203125 45.5 52 
L 45.5 45.59375 
Q 39.203125 46.40625 29.5 46.40625 
L 29.5 41.296875 
Q 39 34 46.09375 27.09375 
L 41.296875 22.40625 
Q 36.90625 28.703125 29.5 35.5 
L 29.5 7.90625 
Q 29.5 0.40625 30.296875 -9.296875 
L 22.796875 -9.296875 
Q 23.703125 -0.296875 23.703125 7.90625 
L 23.703125 34.90625 
Q 18.5 23.296875 8.59375 9.203125 
Q 6.5 12.203125 2.59375 13.203125 
Q 17.296875 28.203125 23.203125 46.40625 
Q 12.40625 46.40625 5.703125 45.59375 
L 5.703125 52 
Q 12.59375 51.203125 23.703125 51.203125 
z
M 87.40625 62.296875 
Q 90.796875 59.90625 93.90625 59.203125 
Q 95.40625 58.90625 95.40625 58.15625 
Q 95.40625 57.40625 94.25 56.546875 
Q 93.09375 55.703125 90.6875 51 
Q 88.296875 46.296875 82 32.09375 
Q 80.09375 33.90625 77 34.703125 
Q 85 48.5 87.40625 62.296875 
z
M 57.296875 61.09375 
Q 57.40625 47.5 54.5 32.296875 
L 48.296875 33.40625 
Q 51.5 42.703125 51.5 55.09375 
Q 51.5 58.203125 51.296875 61.09375 
z
" id="STXihei-31179"/>
     <path d="M 47.5 70.296875 
Q 33.09375 69.5 21.90625 69.296875 
Q 21.5 72.296875 19 75.703125 
Q 29.703125 74.796875 35.703125 74.796875 
Q 41.703125 74.796875 54.890625 75.5 
Q 68.09375 76.203125 78 79.296875 
Q 78.59375 76.203125 79.796875 74.59375 
Q 81 73 81 72.5 
Q 81 71.5 79 71.84375 
Q 77 72.203125 74.703125 72.203125 
Q 72.40625 72.203125 67.25 71.59375 
Q 62.09375 71 53.296875 70.59375 
L 53.296875 60.90625 
Q 79.203125 60.90625 92.09375 61.59375 
L 92.09375 55.59375 
Q 80.5 56.203125 61.703125 56.203125 
Q 76.796875 43.5 96.5 38.40625 
Q 93.40625 35.796875 91.796875 32.40625 
Q 67.703125 42.703125 55.203125 56.203125 
L 53.296875 56.203125 
L 53.296875 48.203125 
Q 53.296875 43.59375 53.59375 37.296875 
L 47 37.296875 
Q 47.5 44.40625 47.5 48.203125 
L 47.5 56.203125 
L 45.703125 56.203125 
Q 37.59375 47.40625 30.25 41.953125 
Q 22.90625 36.5 9 29.90625 
Q 7.703125 33.296875 3.703125 36.09375 
Q 24.203125 41.09375 39.203125 56.203125 
Q 20.40625 56.09375 8.5 55.59375 
L 8.5 61.59375 
Q 21.40625 60.90625 47.5 60.90625 
z
M 49.09375 13.296875 
Q 23.5 13.296875 12.203125 12.40625 
L 12.203125 18.90625 
Q 26 18 49.09375 18 
L 49.09375 22.203125 
L 63.796875 30.5 
L 42.59375 30.5 
Q 31.796875 30.5 23.90625 30 
L 23.90625 35.59375 
Q 33 35.203125 50.890625 35.203125 
Q 68.796875 35.203125 77.59375 35.59375 
L 77.59375 30.90625 
Q 73.703125 31.09375 68.703125 28.09375 
L 54.90625 19.90625 
L 54.90625 18 
Q 76.703125 18 90.09375 18.90625 
L 90.09375 12.5 
Q 80.703125 13.296875 54.90625 13.296875 
L 54.90625 2.203125 
Q 54.90625 -3.09375 53.703125 -5.390625 
Q 52.5 -7.703125 48.546875 -8.640625 
Q 44.59375 -9.59375 35.203125 -10 
Q 35.09375 -6.09375 32.296875 -2.5 
Q 38 -3.203125 41.59375 -3.203125 
Q 45.203125 -3.203125 47.140625 -2.390625 
Q 49.09375 -1.59375 49.09375 0.90625 
z
" id="STXihei-23395"/>
    </defs>
    <g transform="translate(210.8625 35.472)scale(0.12 -0.12)">
     <use xlink:href="#STXihei-50"/>
     <use x="55.399994" xlink:href="#STXihei-48"/>
     <use x="110.799988" xlink:href="#STXihei-49"/>
     <use x="166.199982" xlink:href="#STXihei-56"/>
     <use x="221.599976" xlink:href="#STXihei-31179"/>
     <use x="321.59996" xlink:href="#STXihei-23395"/>
    </g>
   </g>
  </g>
 </g>
 <defs>
  <clipPath id="pe0d5d49eed">
   <rect height="266.112" width="357.12" x="57.6" y="41.472"/>
  </clipPath>
 </defs>
</svg>
